G04 #@! TF.FileFunction,Legend,Bot*
%FSLAX46Y46*%
G04 Gerber Fmt 4.6, Leading zero omitted, Abs format (unit mm)*
G04 Created by KiCad (PCBNEW 4.0.1-stable) date 1/31/2016 9:18:08 PM*
%MOMM*%
G01*
G04 APERTURE LIST*
%ADD10C,0.100000*%
%ADD11C,0.300000*%
%ADD12C,0.150000*%
G04 APERTURE END LIST*
D10*
D11*
X102846286Y-96230286D02*
X102846286Y-96944571D01*
X102346286Y-95444571D02*
X102846286Y-96230286D01*
X103346286Y-95444571D01*
X104846286Y-97087429D02*
X104703429Y-97016000D01*
X104560572Y-96873143D01*
X104346286Y-96658857D01*
X104203429Y-96587429D01*
X104060572Y-96587429D01*
X104132000Y-96944571D02*
X103989143Y-96873143D01*
X103846286Y-96730286D01*
X103774857Y-96444571D01*
X103774857Y-95944571D01*
X103846286Y-95658857D01*
X103989143Y-95516000D01*
X104132000Y-95444571D01*
X104417714Y-95444571D01*
X104560572Y-95516000D01*
X104703429Y-95658857D01*
X104774857Y-95944571D01*
X104774857Y-96444571D01*
X104703429Y-96730286D01*
X104560572Y-96873143D01*
X104417714Y-96944571D01*
X104132000Y-96944571D01*
D12*
X79598428Y-54688429D02*
X79455571Y-55288429D01*
X79341285Y-54859857D01*
X79226999Y-55288429D01*
X79084142Y-54688429D01*
X78598428Y-55288429D02*
X78598428Y-54974143D01*
X78626999Y-54917000D01*
X78684142Y-54888429D01*
X78798428Y-54888429D01*
X78855571Y-54917000D01*
X78598428Y-55259857D02*
X78655571Y-55288429D01*
X78798428Y-55288429D01*
X78855571Y-55259857D01*
X78884142Y-55202714D01*
X78884142Y-55145571D01*
X78855571Y-55088429D01*
X78798428Y-55059857D01*
X78655571Y-55059857D01*
X78598428Y-55031286D01*
X78312714Y-55288429D02*
X78312714Y-54688429D01*
X78255571Y-55059857D02*
X78084142Y-55288429D01*
X78084142Y-54888429D02*
X78312714Y-55117000D01*
X77598428Y-55259857D02*
X77655571Y-55288429D01*
X77769857Y-55288429D01*
X77827000Y-55259857D01*
X77855571Y-55202714D01*
X77855571Y-54974143D01*
X77827000Y-54917000D01*
X77769857Y-54888429D01*
X77655571Y-54888429D01*
X77598428Y-54917000D01*
X77569857Y-54974143D01*
X77569857Y-55031286D01*
X77855571Y-55088429D01*
X77312714Y-55059857D02*
X76855571Y-55059857D01*
X76312714Y-54888429D02*
X76312714Y-55288429D01*
X76569857Y-54888429D02*
X76569857Y-55202714D01*
X76541285Y-55259857D01*
X76484143Y-55288429D01*
X76398428Y-55288429D01*
X76341285Y-55259857D01*
X76312714Y-55231286D01*
X76027000Y-54888429D02*
X76027000Y-55488429D01*
X76027000Y-54917000D02*
X75969857Y-54888429D01*
X75855571Y-54888429D01*
X75798428Y-54917000D01*
X75769857Y-54945571D01*
X75741286Y-55002714D01*
X75741286Y-55174143D01*
X75769857Y-55231286D01*
X75798428Y-55259857D01*
X75855571Y-55288429D01*
X75969857Y-55288429D01*
X76027000Y-55259857D01*
X74741286Y-55288429D02*
X75027000Y-55288429D01*
X75027000Y-54688429D01*
X74541286Y-55288429D02*
X74541286Y-54888429D01*
X74541286Y-54688429D02*
X74569857Y-54717000D01*
X74541286Y-54745571D01*
X74512714Y-54717000D01*
X74541286Y-54688429D01*
X74541286Y-54745571D01*
X73998429Y-54888429D02*
X73998429Y-55374143D01*
X74027000Y-55431286D01*
X74055572Y-55459857D01*
X74112715Y-55488429D01*
X74198429Y-55488429D01*
X74255572Y-55459857D01*
X73998429Y-55259857D02*
X74055572Y-55288429D01*
X74169858Y-55288429D01*
X74227000Y-55259857D01*
X74255572Y-55231286D01*
X74284143Y-55174143D01*
X74284143Y-55002714D01*
X74255572Y-54945571D01*
X74227000Y-54917000D01*
X74169858Y-54888429D01*
X74055572Y-54888429D01*
X73998429Y-54917000D01*
X73712715Y-55288429D02*
X73712715Y-54688429D01*
X73455572Y-55288429D02*
X73455572Y-54974143D01*
X73484143Y-54917000D01*
X73541286Y-54888429D01*
X73627001Y-54888429D01*
X73684143Y-54917000D01*
X73712715Y-54945571D01*
X73255572Y-54888429D02*
X73027001Y-54888429D01*
X73169858Y-54688429D02*
X73169858Y-55202714D01*
X73141286Y-55259857D01*
X73084144Y-55288429D01*
X73027001Y-55288429D01*
X77569858Y-56278429D02*
X77769858Y-55992714D01*
X77912715Y-56278429D02*
X77912715Y-55678429D01*
X77684143Y-55678429D01*
X77627001Y-55707000D01*
X77598429Y-55735571D01*
X77569858Y-55792714D01*
X77569858Y-55878429D01*
X77598429Y-55935571D01*
X77627001Y-55964143D01*
X77684143Y-55992714D01*
X77912715Y-55992714D01*
X77084143Y-56249857D02*
X77141286Y-56278429D01*
X77255572Y-56278429D01*
X77312715Y-56249857D01*
X77341286Y-56192714D01*
X77341286Y-55964143D01*
X77312715Y-55907000D01*
X77255572Y-55878429D01*
X77141286Y-55878429D01*
X77084143Y-55907000D01*
X77055572Y-55964143D01*
X77055572Y-56021286D01*
X77341286Y-56078429D01*
X76855572Y-55878429D02*
X76712715Y-56278429D01*
X76569857Y-55878429D01*
X75569857Y-56278429D02*
X75912714Y-56278429D01*
X75741286Y-56278429D02*
X75741286Y-55678429D01*
X75798429Y-55764143D01*
X75855571Y-55821286D01*
X75912714Y-55849857D01*
X75312714Y-56221286D02*
X75284142Y-56249857D01*
X75312714Y-56278429D01*
X75341285Y-56249857D01*
X75312714Y-56221286D01*
X75312714Y-56278429D01*
X74912714Y-55678429D02*
X74855571Y-55678429D01*
X74798428Y-55707000D01*
X74769857Y-55735571D01*
X74741286Y-55792714D01*
X74712714Y-55907000D01*
X74712714Y-56049857D01*
X74741286Y-56164143D01*
X74769857Y-56221286D01*
X74798428Y-56249857D01*
X74855571Y-56278429D01*
X74912714Y-56278429D01*
X74969857Y-56249857D01*
X74998428Y-56221286D01*
X75027000Y-56164143D01*
X75055571Y-56049857D01*
X75055571Y-55907000D01*
X75027000Y-55792714D01*
X74998428Y-55735571D01*
X74969857Y-55707000D01*
X74912714Y-55678429D01*
X81726999Y-57268429D02*
X81726999Y-56668429D01*
X81584142Y-56668429D01*
X81498427Y-56697000D01*
X81441285Y-56754143D01*
X81412713Y-56811286D01*
X81384142Y-56925571D01*
X81384142Y-57011286D01*
X81412713Y-57125571D01*
X81441285Y-57182714D01*
X81498427Y-57239857D01*
X81584142Y-57268429D01*
X81726999Y-57268429D01*
X80898427Y-57239857D02*
X80955570Y-57268429D01*
X81069856Y-57268429D01*
X81126999Y-57239857D01*
X81155570Y-57182714D01*
X81155570Y-56954143D01*
X81126999Y-56897000D01*
X81069856Y-56868429D01*
X80955570Y-56868429D01*
X80898427Y-56897000D01*
X80869856Y-56954143D01*
X80869856Y-57011286D01*
X81155570Y-57068429D01*
X80641284Y-57239857D02*
X80584141Y-57268429D01*
X80469856Y-57268429D01*
X80412713Y-57239857D01*
X80384141Y-57182714D01*
X80384141Y-57154143D01*
X80412713Y-57097000D01*
X80469856Y-57068429D01*
X80555570Y-57068429D01*
X80612713Y-57039857D01*
X80641284Y-56982714D01*
X80641284Y-56954143D01*
X80612713Y-56897000D01*
X80555570Y-56868429D01*
X80469856Y-56868429D01*
X80412713Y-56897000D01*
X80126999Y-57268429D02*
X80126999Y-56868429D01*
X80126999Y-56668429D02*
X80155570Y-56697000D01*
X80126999Y-56725571D01*
X80098427Y-56697000D01*
X80126999Y-56668429D01*
X80126999Y-56725571D01*
X79584142Y-56868429D02*
X79584142Y-57354143D01*
X79612713Y-57411286D01*
X79641285Y-57439857D01*
X79698428Y-57468429D01*
X79784142Y-57468429D01*
X79841285Y-57439857D01*
X79584142Y-57239857D02*
X79641285Y-57268429D01*
X79755571Y-57268429D01*
X79812713Y-57239857D01*
X79841285Y-57211286D01*
X79869856Y-57154143D01*
X79869856Y-56982714D01*
X79841285Y-56925571D01*
X79812713Y-56897000D01*
X79755571Y-56868429D01*
X79641285Y-56868429D01*
X79584142Y-56897000D01*
X79298428Y-56868429D02*
X79298428Y-57268429D01*
X79298428Y-56925571D02*
X79269856Y-56897000D01*
X79212714Y-56868429D01*
X79126999Y-56868429D01*
X79069856Y-56897000D01*
X79041285Y-56954143D01*
X79041285Y-57268429D01*
X78526999Y-57239857D02*
X78584142Y-57268429D01*
X78698428Y-57268429D01*
X78755571Y-57239857D01*
X78784142Y-57182714D01*
X78784142Y-56954143D01*
X78755571Y-56897000D01*
X78698428Y-56868429D01*
X78584142Y-56868429D01*
X78526999Y-56897000D01*
X78498428Y-56954143D01*
X78498428Y-57011286D01*
X78784142Y-57068429D01*
X77984142Y-57268429D02*
X77984142Y-56668429D01*
X77984142Y-57239857D02*
X78041285Y-57268429D01*
X78155571Y-57268429D01*
X78212713Y-57239857D01*
X78241285Y-57211286D01*
X78269856Y-57154143D01*
X78269856Y-56982714D01*
X78241285Y-56925571D01*
X78212713Y-56897000D01*
X78155571Y-56868429D01*
X78041285Y-56868429D01*
X77984142Y-56897000D01*
X77241285Y-57268429D02*
X77241285Y-56868429D01*
X77241285Y-56668429D02*
X77269856Y-56697000D01*
X77241285Y-56725571D01*
X77212713Y-56697000D01*
X77241285Y-56668429D01*
X77241285Y-56725571D01*
X76955571Y-56868429D02*
X76955571Y-57268429D01*
X76955571Y-56925571D02*
X76926999Y-56897000D01*
X76869857Y-56868429D01*
X76784142Y-56868429D01*
X76726999Y-56897000D01*
X76698428Y-56954143D01*
X76698428Y-57268429D01*
X75841285Y-56668429D02*
X75726999Y-56668429D01*
X75669857Y-56697000D01*
X75612714Y-56754143D01*
X75584142Y-56868429D01*
X75584142Y-57068429D01*
X75612714Y-57182714D01*
X75669857Y-57239857D01*
X75726999Y-57268429D01*
X75841285Y-57268429D01*
X75898428Y-57239857D01*
X75955571Y-57182714D01*
X75984142Y-57068429D01*
X75984142Y-56868429D01*
X75955571Y-56754143D01*
X75898428Y-56697000D01*
X75841285Y-56668429D01*
X75327000Y-57268429D02*
X75327000Y-56668429D01*
X74984143Y-57268429D01*
X74984143Y-56668429D01*
X74669857Y-57239857D02*
X74669857Y-57268429D01*
X74698429Y-57325571D01*
X74727000Y-57354143D01*
X73612715Y-57211286D02*
X73641286Y-57239857D01*
X73727000Y-57268429D01*
X73784143Y-57268429D01*
X73869858Y-57239857D01*
X73927000Y-57182714D01*
X73955572Y-57125571D01*
X73984143Y-57011286D01*
X73984143Y-56925571D01*
X73955572Y-56811286D01*
X73927000Y-56754143D01*
X73869858Y-56697000D01*
X73784143Y-56668429D01*
X73727000Y-56668429D01*
X73641286Y-56697000D01*
X73612715Y-56725571D01*
X73098429Y-57268429D02*
X73098429Y-56954143D01*
X73127000Y-56897000D01*
X73184143Y-56868429D01*
X73298429Y-56868429D01*
X73355572Y-56897000D01*
X73098429Y-57239857D02*
X73155572Y-57268429D01*
X73298429Y-57268429D01*
X73355572Y-57239857D01*
X73384143Y-57182714D01*
X73384143Y-57125571D01*
X73355572Y-57068429D01*
X73298429Y-57039857D01*
X73155572Y-57039857D01*
X73098429Y-57011286D01*
X72812715Y-56868429D02*
X72812715Y-57268429D01*
X72812715Y-56925571D02*
X72784143Y-56897000D01*
X72727001Y-56868429D01*
X72641286Y-56868429D01*
X72584143Y-56897000D01*
X72555572Y-56954143D01*
X72555572Y-57268429D01*
X72012715Y-57268429D02*
X72012715Y-56954143D01*
X72041286Y-56897000D01*
X72098429Y-56868429D01*
X72212715Y-56868429D01*
X72269858Y-56897000D01*
X72012715Y-57239857D02*
X72069858Y-57268429D01*
X72212715Y-57268429D01*
X72269858Y-57239857D01*
X72298429Y-57182714D01*
X72298429Y-57125571D01*
X72269858Y-57068429D01*
X72212715Y-57039857D01*
X72069858Y-57039857D01*
X72012715Y-57011286D01*
X71469858Y-57268429D02*
X71469858Y-56668429D01*
X71469858Y-57239857D02*
X71527001Y-57268429D01*
X71641287Y-57268429D01*
X71698429Y-57239857D01*
X71727001Y-57211286D01*
X71755572Y-57154143D01*
X71755572Y-56982714D01*
X71727001Y-56925571D01*
X71698429Y-56897000D01*
X71641287Y-56868429D01*
X71527001Y-56868429D01*
X71469858Y-56897000D01*
X70927001Y-57268429D02*
X70927001Y-56954143D01*
X70955572Y-56897000D01*
X71012715Y-56868429D01*
X71127001Y-56868429D01*
X71184144Y-56897000D01*
X70927001Y-57239857D02*
X70984144Y-57268429D01*
X71127001Y-57268429D01*
X71184144Y-57239857D01*
X71212715Y-57182714D01*
X71212715Y-57125571D01*
X71184144Y-57068429D01*
X71127001Y-57039857D01*
X70984144Y-57039857D01*
X70927001Y-57011286D01*
X100203000Y-97155000D02*
X138303000Y-97155000D01*
X138303000Y-97155000D02*
X138303000Y-76835000D01*
X138303000Y-76835000D02*
X100203000Y-76835000D01*
X100203000Y-76835000D02*
X100203000Y-97155000D01*
X88432000Y-61079000D02*
X88432000Y-60079000D01*
X87082000Y-60079000D02*
X87082000Y-61079000D01*
X90464000Y-61079000D02*
X90464000Y-60079000D01*
X89114000Y-60079000D02*
X89114000Y-61079000D01*
X86400000Y-61079000D02*
X86400000Y-60079000D01*
X85050000Y-60079000D02*
X85050000Y-61079000D01*
X101346000Y-66675000D02*
X96266000Y-66675000D01*
X96266000Y-66675000D02*
X96266000Y-71247000D01*
X96266000Y-71247000D02*
X101346000Y-71247000D01*
X101346000Y-71247000D02*
X101346000Y-66675000D01*
X101346000Y-68199000D02*
X100838000Y-68199000D01*
X100838000Y-68199000D02*
X100838000Y-69469000D01*
X100838000Y-69469000D02*
X101346000Y-69469000D01*
X82169000Y-67056000D02*
X82169000Y-61976000D01*
X82169000Y-61976000D02*
X77597000Y-61976000D01*
X77597000Y-61976000D02*
X77597000Y-67056000D01*
X77597000Y-67056000D02*
X82169000Y-67056000D01*
X80645000Y-67056000D02*
X80645000Y-66548000D01*
X80645000Y-66548000D02*
X79375000Y-66548000D01*
X79375000Y-66548000D02*
X79375000Y-67056000D01*
X90678000Y-93980000D02*
X90678000Y-76200000D01*
X90678000Y-76200000D02*
X57658000Y-76200000D01*
X57658000Y-76200000D02*
X57658000Y-93980000D01*
X57658000Y-93980000D02*
X90678000Y-93980000D01*
X98385381Y-82145381D02*
X98385381Y-82335858D01*
X98433000Y-82431096D01*
X98528238Y-82526334D01*
X98718714Y-82573953D01*
X99052048Y-82573953D01*
X99242524Y-82526334D01*
X99337762Y-82431096D01*
X99385381Y-82335858D01*
X99385381Y-82145381D01*
X99337762Y-82050143D01*
X99242524Y-81954905D01*
X99052048Y-81907286D01*
X98718714Y-81907286D01*
X98528238Y-81954905D01*
X98433000Y-82050143D01*
X98385381Y-82145381D01*
X99337762Y-82954905D02*
X99385381Y-83097762D01*
X99385381Y-83335858D01*
X99337762Y-83431096D01*
X99290143Y-83478715D01*
X99194905Y-83526334D01*
X99099667Y-83526334D01*
X99004429Y-83478715D01*
X98956810Y-83431096D01*
X98909190Y-83335858D01*
X98861571Y-83145381D01*
X98813952Y-83050143D01*
X98766333Y-83002524D01*
X98671095Y-82954905D01*
X98575857Y-82954905D01*
X98480619Y-83002524D01*
X98433000Y-83050143D01*
X98385381Y-83145381D01*
X98385381Y-83383477D01*
X98433000Y-83526334D01*
X99290143Y-84526334D02*
X99337762Y-84478715D01*
X99385381Y-84335858D01*
X99385381Y-84240620D01*
X99337762Y-84097762D01*
X99242524Y-84002524D01*
X99147286Y-83954905D01*
X98956810Y-83907286D01*
X98813952Y-83907286D01*
X98623476Y-83954905D01*
X98528238Y-84002524D01*
X98433000Y-84097762D01*
X98385381Y-84240620D01*
X98385381Y-84335858D01*
X98433000Y-84478715D01*
X98480619Y-84526334D01*
X99385381Y-85478715D02*
X99385381Y-84907286D01*
X99385381Y-85193000D02*
X98385381Y-85193000D01*
X98528238Y-85097762D01*
X98623476Y-85002524D01*
X98671095Y-84907286D01*
X98734571Y-87590618D02*
X98734571Y-87923952D01*
X99258381Y-88066809D02*
X99258381Y-87590618D01*
X98258381Y-87590618D01*
X98258381Y-88066809D01*
X99258381Y-88400142D02*
X98591714Y-88923952D01*
X98591714Y-88400142D02*
X99258381Y-88923952D01*
X98591714Y-89162047D02*
X98591714Y-89542999D01*
X98258381Y-89304904D02*
X99115524Y-89304904D01*
X99210762Y-89352523D01*
X99258381Y-89447761D01*
X99258381Y-89542999D01*
X99353619Y-89638238D02*
X99353619Y-90400143D01*
X99163143Y-91209667D02*
X99210762Y-91162048D01*
X99258381Y-91019191D01*
X99258381Y-90923953D01*
X99210762Y-90781095D01*
X99115524Y-90685857D01*
X99020286Y-90638238D01*
X98829810Y-90590619D01*
X98686952Y-90590619D01*
X98496476Y-90638238D01*
X98401238Y-90685857D01*
X98306000Y-90781095D01*
X98258381Y-90923953D01*
X98258381Y-91019191D01*
X98306000Y-91162048D01*
X98353619Y-91209667D01*
X99258381Y-91781095D02*
X99210762Y-91685857D01*
X99115524Y-91638238D01*
X98258381Y-91638238D01*
X99258381Y-92162048D02*
X98258381Y-92162048D01*
X98877429Y-92257286D02*
X99258381Y-92543001D01*
X98591714Y-92543001D02*
X98972667Y-92162048D01*
X88209381Y-63587334D02*
X87733190Y-63254000D01*
X88209381Y-63015905D02*
X87209381Y-63015905D01*
X87209381Y-63396858D01*
X87257000Y-63492096D01*
X87304619Y-63539715D01*
X87399857Y-63587334D01*
X87542714Y-63587334D01*
X87637952Y-63539715D01*
X87685571Y-63492096D01*
X87733190Y-63396858D01*
X87733190Y-63015905D01*
X88209381Y-64539715D02*
X88209381Y-63968286D01*
X88209381Y-64254000D02*
X87209381Y-64254000D01*
X87352238Y-64158762D01*
X87447476Y-64063524D01*
X87495095Y-63968286D01*
X90241381Y-63587334D02*
X89765190Y-63254000D01*
X90241381Y-63015905D02*
X89241381Y-63015905D01*
X89241381Y-63396858D01*
X89289000Y-63492096D01*
X89336619Y-63539715D01*
X89431857Y-63587334D01*
X89574714Y-63587334D01*
X89669952Y-63539715D01*
X89717571Y-63492096D01*
X89765190Y-63396858D01*
X89765190Y-63015905D01*
X89336619Y-63968286D02*
X89289000Y-64015905D01*
X89241381Y-64111143D01*
X89241381Y-64349239D01*
X89289000Y-64444477D01*
X89336619Y-64492096D01*
X89431857Y-64539715D01*
X89527095Y-64539715D01*
X89669952Y-64492096D01*
X90241381Y-63920667D01*
X90241381Y-64539715D01*
X86177381Y-63587334D02*
X85701190Y-63254000D01*
X86177381Y-63015905D02*
X85177381Y-63015905D01*
X85177381Y-63396858D01*
X85225000Y-63492096D01*
X85272619Y-63539715D01*
X85367857Y-63587334D01*
X85510714Y-63587334D01*
X85605952Y-63539715D01*
X85653571Y-63492096D01*
X85701190Y-63396858D01*
X85701190Y-63015905D01*
X85177381Y-63920667D02*
X85177381Y-64539715D01*
X85558333Y-64206381D01*
X85558333Y-64349239D01*
X85605952Y-64444477D01*
X85653571Y-64492096D01*
X85748810Y-64539715D01*
X85986905Y-64539715D01*
X86082143Y-64492096D01*
X86129762Y-64444477D01*
X86177381Y-64349239D01*
X86177381Y-64063524D01*
X86129762Y-63968286D01*
X86082143Y-63920667D01*
X94321381Y-68072095D02*
X95130905Y-68072095D01*
X95226143Y-68119714D01*
X95273762Y-68167333D01*
X95321381Y-68262571D01*
X95321381Y-68453048D01*
X95273762Y-68548286D01*
X95226143Y-68595905D01*
X95130905Y-68643524D01*
X94321381Y-68643524D01*
X94654714Y-69548286D02*
X95321381Y-69548286D01*
X94273762Y-69310190D02*
X94988048Y-69072095D01*
X94988048Y-69691143D01*
X80898905Y-60285381D02*
X80898905Y-61094905D01*
X80851286Y-61190143D01*
X80803667Y-61237762D01*
X80708429Y-61285381D01*
X80517952Y-61285381D01*
X80422714Y-61237762D01*
X80375095Y-61190143D01*
X80327476Y-61094905D01*
X80327476Y-60285381D01*
X79375095Y-60285381D02*
X79851286Y-60285381D01*
X79898905Y-60761571D01*
X79851286Y-60713952D01*
X79756048Y-60666333D01*
X79517952Y-60666333D01*
X79422714Y-60713952D01*
X79375095Y-60761571D01*
X79327476Y-60856810D01*
X79327476Y-61094905D01*
X79375095Y-61190143D01*
X79422714Y-61237762D01*
X79517952Y-61285381D01*
X79756048Y-61285381D01*
X79851286Y-61237762D01*
X79898905Y-61190143D01*
X89153905Y-74763381D02*
X89153905Y-75572905D01*
X89106286Y-75668143D01*
X89058667Y-75715762D01*
X88963429Y-75763381D01*
X88772952Y-75763381D01*
X88677714Y-75715762D01*
X88630095Y-75668143D01*
X88582476Y-75572905D01*
X88582476Y-74763381D01*
X87582476Y-75763381D02*
X88153905Y-75763381D01*
X87868191Y-75763381D02*
X87868191Y-74763381D01*
X87963429Y-74906238D01*
X88058667Y-75001476D01*
X88153905Y-75049095D01*
X80287048Y-85256667D02*
X79810857Y-85256667D01*
X80382286Y-85542381D02*
X80048953Y-84542381D01*
X79715619Y-85542381D01*
X79382286Y-85542381D02*
X79382286Y-84875714D01*
X79382286Y-85066190D02*
X79334667Y-84970952D01*
X79287048Y-84923333D01*
X79191810Y-84875714D01*
X79096571Y-84875714D01*
X78334666Y-85542381D02*
X78334666Y-84542381D01*
X78334666Y-85494762D02*
X78429904Y-85542381D01*
X78620381Y-85542381D01*
X78715619Y-85494762D01*
X78763238Y-85447143D01*
X78810857Y-85351905D01*
X78810857Y-85066190D01*
X78763238Y-84970952D01*
X78715619Y-84923333D01*
X78620381Y-84875714D01*
X78429904Y-84875714D01*
X78334666Y-84923333D01*
X77429904Y-84875714D02*
X77429904Y-85542381D01*
X77858476Y-84875714D02*
X77858476Y-85399524D01*
X77810857Y-85494762D01*
X77715619Y-85542381D01*
X77572761Y-85542381D01*
X77477523Y-85494762D01*
X77429904Y-85447143D01*
X76953714Y-85542381D02*
X76953714Y-84875714D01*
X76953714Y-84542381D02*
X77001333Y-84590000D01*
X76953714Y-84637619D01*
X76906095Y-84590000D01*
X76953714Y-84542381D01*
X76953714Y-84637619D01*
X76477524Y-84875714D02*
X76477524Y-85542381D01*
X76477524Y-84970952D02*
X76429905Y-84923333D01*
X76334667Y-84875714D01*
X76191809Y-84875714D01*
X76096571Y-84923333D01*
X76048952Y-85018571D01*
X76048952Y-85542381D01*
X75429905Y-85542381D02*
X75525143Y-85494762D01*
X75572762Y-85447143D01*
X75620381Y-85351905D01*
X75620381Y-85066190D01*
X75572762Y-84970952D01*
X75525143Y-84923333D01*
X75429905Y-84875714D01*
X75287047Y-84875714D01*
X75191809Y-84923333D01*
X75144190Y-84970952D01*
X75096571Y-85066190D01*
X75096571Y-85351905D01*
X75144190Y-85447143D01*
X75191809Y-85494762D01*
X75287047Y-85542381D01*
X75429905Y-85542381D01*
X74906095Y-85637619D02*
X74144190Y-85637619D01*
X73906095Y-85542381D02*
X73906095Y-84542381D01*
X73525142Y-84542381D01*
X73429904Y-84590000D01*
X73382285Y-84637619D01*
X73334666Y-84732857D01*
X73334666Y-84875714D01*
X73382285Y-84970952D01*
X73429904Y-85018571D01*
X73525142Y-85066190D01*
X73906095Y-85066190D01*
X72906095Y-85542381D02*
X72906095Y-84875714D01*
X72906095Y-85066190D02*
X72858476Y-84970952D01*
X72810857Y-84923333D01*
X72715619Y-84875714D01*
X72620380Y-84875714D01*
X72144190Y-85542381D02*
X72239428Y-85494762D01*
X72287047Y-85447143D01*
X72334666Y-85351905D01*
X72334666Y-85066190D01*
X72287047Y-84970952D01*
X72239428Y-84923333D01*
X72144190Y-84875714D01*
X72001332Y-84875714D01*
X71906094Y-84923333D01*
X71858475Y-84970952D01*
X71810856Y-85066190D01*
X71810856Y-85351905D01*
X71858475Y-85447143D01*
X71906094Y-85494762D01*
X72001332Y-85542381D01*
X72144190Y-85542381D01*
X71620380Y-85637619D02*
X70858475Y-85637619D01*
X70620380Y-85542381D02*
X70620380Y-84542381D01*
X70287046Y-85256667D01*
X69953713Y-84542381D01*
X69953713Y-85542381D01*
X69477523Y-85542381D02*
X69477523Y-84875714D01*
X69477523Y-84542381D02*
X69525142Y-84590000D01*
X69477523Y-84637619D01*
X69429904Y-84590000D01*
X69477523Y-84542381D01*
X69477523Y-84637619D01*
X69001333Y-84875714D02*
X69001333Y-85542381D01*
X69001333Y-84970952D02*
X68953714Y-84923333D01*
X68858476Y-84875714D01*
X68715618Y-84875714D01*
X68620380Y-84923333D01*
X68572761Y-85018571D01*
X68572761Y-85542381D01*
X68096571Y-85542381D02*
X68096571Y-84875714D01*
X68096571Y-84542381D02*
X68144190Y-84590000D01*
X68096571Y-84637619D01*
X68048952Y-84590000D01*
X68096571Y-84542381D01*
X68096571Y-84637619D01*
M02*
