G04 #@! TF.FileFunction,Copper,L2,Bot,Signal*
%FSLAX46Y46*%
G04 Gerber Fmt 4.6, Leading zero omitted, Abs format (unit mm)*
G04 Created by KiCad (PCBNEW 4.0.1-stable) date 1/31/2016 9:18:08 PM*
%MOMM*%
G01*
G04 APERTURE LIST*
%ADD10C,0.100000*%
%ADD11R,1.524000X1.524000*%
%ADD12C,1.524000*%
%ADD13C,1.727200*%
%ADD14R,1.727200X2.032000*%
%ADD15O,1.727200X2.032000*%
%ADD16R,0.900000X1.200000*%
%ADD17O,1.700000X2.800000*%
%ADD18R,0.508000X1.143000*%
%ADD19R,1.143000X0.508000*%
%ADD20C,3.000000*%
%ADD21R,3.500120X3.500120*%
%ADD22C,2.540000*%
%ADD23C,0.600000*%
%ADD24C,1.200000*%
%ADD25C,0.250000*%
%ADD26C,0.500000*%
%ADD27C,0.254000*%
G04 APERTURE END LIST*
D10*
D11*
X81407000Y-69088000D03*
D12*
X86487000Y-69088000D03*
D10*
G36*
X61019078Y-60940763D02*
X59797763Y-62162078D01*
X58360922Y-60725237D01*
X59582237Y-59503922D01*
X61019078Y-60940763D01*
X61019078Y-60940763D01*
G37*
D13*
X61593814Y-59144712D02*
X61378288Y-58929186D01*
X63389865Y-57348661D02*
X63174339Y-57133135D01*
X65185917Y-55552609D02*
X64970391Y-55337083D01*
D12*
X61849000Y-95758000D03*
X64389000Y-95758000D03*
X66929000Y-95758000D03*
X69469000Y-95758000D03*
X72009000Y-95758000D03*
X74549000Y-95758000D03*
X77089000Y-95758000D03*
X79629000Y-95758000D03*
X82169000Y-95758000D03*
X84709000Y-95758000D03*
X87249000Y-95758000D03*
X89789000Y-95758000D03*
X92329000Y-95758000D03*
X94869000Y-95758000D03*
X97409000Y-95758000D03*
X97409000Y-80518000D03*
X94869000Y-80518000D03*
X92329000Y-80518000D03*
X89789000Y-80518000D03*
X87249000Y-80518000D03*
X84709000Y-80518000D03*
X82169000Y-80518000D03*
X79629000Y-80518000D03*
X77089000Y-80518000D03*
X74549000Y-80518000D03*
X72009000Y-80518000D03*
X69469000Y-80518000D03*
X66929000Y-80518000D03*
X64389000Y-80518000D03*
X61849000Y-80518000D03*
D11*
X72644000Y-60071000D03*
D12*
X77724000Y-60071000D03*
D14*
X86741000Y-56515000D03*
D15*
X89281000Y-56515000D03*
X91821000Y-56515000D03*
X94361000Y-56515000D03*
X96901000Y-56515000D03*
X99441000Y-56515000D03*
D12*
X101473000Y-83185000D03*
X101473000Y-85725000D03*
X101473000Y-88265000D03*
X101473000Y-90805000D03*
D16*
X87757000Y-59479000D03*
X87757000Y-61679000D03*
X89789000Y-59479000D03*
X89789000Y-61679000D03*
X85725000Y-59479000D03*
X85725000Y-61679000D03*
D12*
X101219000Y-61976000D03*
X98679000Y-61976000D03*
X96139000Y-61976000D03*
X96139000Y-76476000D03*
X101219000Y-76476000D03*
D17*
X92429000Y-69476000D03*
X104929000Y-69476000D03*
D12*
X62814200Y-100533200D03*
X65354200Y-100533200D03*
X67894200Y-100533200D03*
X70434200Y-100533200D03*
X72974200Y-100533200D03*
X75514200Y-100533200D03*
X78054200Y-100533200D03*
X80594200Y-100533200D03*
X83134200Y-100533200D03*
X85674200Y-100533200D03*
X88214200Y-100533200D03*
X90754200Y-100533200D03*
X93294200Y-100533200D03*
X95834200Y-100533200D03*
X98374200Y-100533200D03*
X100914200Y-100533200D03*
D18*
X100711000Y-65786000D03*
X99441000Y-65786000D03*
X98171000Y-65786000D03*
X96901000Y-65786000D03*
X96901000Y-72136000D03*
X98171000Y-72136000D03*
X99441000Y-72136000D03*
X100711000Y-72136000D03*
D19*
X83058000Y-66421000D03*
X83058000Y-65151000D03*
X83058000Y-63881000D03*
X83058000Y-62611000D03*
X76708000Y-62611000D03*
X76708000Y-63881000D03*
X76708000Y-65151000D03*
X76708000Y-66421000D03*
D20*
X59309000Y-100584000D03*
X104648000Y-55372000D03*
X59055000Y-55372000D03*
X104394000Y-100711000D03*
D12*
X89408000Y-85090000D03*
X89408000Y-87630000D03*
X89408000Y-90170000D03*
X89408000Y-92710000D03*
X86868000Y-92710000D03*
X84328000Y-92710000D03*
X81788000Y-92710000D03*
X79248000Y-92710000D03*
X76708000Y-92710000D03*
X74168000Y-92710000D03*
X71628000Y-92710000D03*
X69088000Y-92710000D03*
X66548000Y-92710000D03*
X64008000Y-92710000D03*
X61468000Y-92710000D03*
X58928000Y-91440000D03*
X58928000Y-88900000D03*
X58928000Y-86360000D03*
X58928000Y-83820000D03*
X58928000Y-81280000D03*
X58928000Y-78740000D03*
X61468000Y-77470000D03*
X64008000Y-77470000D03*
X66548000Y-77470000D03*
X69088000Y-77470000D03*
X71628000Y-77470000D03*
X74168000Y-77470000D03*
X76708000Y-77470000D03*
X79248000Y-77470000D03*
X81788000Y-77470000D03*
X84328000Y-77470000D03*
X86868000Y-77470000D03*
X89408000Y-77470000D03*
X70358000Y-90170000D03*
X72898000Y-90170000D03*
D21*
X67287140Y-68580000D03*
X61287660Y-68580000D03*
X64287400Y-73279000D03*
D22*
X73533000Y-68961000D03*
X73533000Y-74041000D03*
D23*
X71501000Y-67691000D03*
X71628000Y-74422000D03*
X75565000Y-78486000D03*
X82042000Y-65151000D03*
X81407000Y-63500000D03*
X79883000Y-64643000D03*
X73533000Y-66675000D03*
X63627000Y-78867000D03*
X62484000Y-81915000D03*
X63182500Y-84899500D03*
X83820000Y-97028000D03*
X96774000Y-67564000D03*
X79502000Y-88519000D03*
X80137000Y-89281000D03*
X92964000Y-76327000D03*
X94996000Y-77851000D03*
X75565000Y-74803000D03*
X80010000Y-74803000D03*
X83947000Y-70993000D03*
X89154000Y-66929000D03*
X92710000Y-66929000D03*
X92837000Y-74930000D03*
X82804000Y-91186000D03*
X82550000Y-81915000D03*
X68580000Y-64643000D03*
X68707000Y-63754000D03*
X89789000Y-65913000D03*
D24*
X95758000Y-73914000D03*
D25*
X67894200Y-100533200D02*
X67894200Y-97078800D01*
X71501000Y-70739000D02*
X71501000Y-67691000D01*
X71628000Y-70866000D02*
X71501000Y-70739000D01*
X71628000Y-74422000D02*
X71628000Y-70866000D01*
X75819000Y-78740000D02*
X75565000Y-78486000D01*
X75819000Y-83820000D02*
X75819000Y-78740000D01*
X70739000Y-88900000D02*
X75819000Y-83820000D01*
X69850000Y-88900000D02*
X70739000Y-88900000D01*
X67818000Y-90932000D02*
X69850000Y-88900000D01*
X67818000Y-93218000D02*
X67818000Y-90932000D01*
X68199000Y-93599000D02*
X67818000Y-93218000D01*
X68199000Y-96774000D02*
X68199000Y-93599000D01*
X67894200Y-97078800D02*
X68199000Y-96774000D01*
X72644000Y-60071000D02*
X72644000Y-60198000D01*
X72644000Y-60198000D02*
X74168000Y-61722000D01*
X74168000Y-61722000D02*
X82296000Y-61722000D01*
X82296000Y-61722000D02*
X84539000Y-59479000D01*
X84539000Y-59479000D02*
X85725000Y-59479000D01*
X83058000Y-65151000D02*
X83058000Y-66421000D01*
X83058000Y-65151000D02*
X82042000Y-65151000D01*
X64008000Y-92710000D02*
X64008000Y-93345000D01*
X64008000Y-93345000D02*
X65659000Y-94996000D01*
X65659000Y-94996000D02*
X65659000Y-97688400D01*
X65659000Y-97688400D02*
X62814200Y-100533200D01*
X81788000Y-63881000D02*
X83058000Y-63881000D01*
X81407000Y-63500000D02*
X81788000Y-63881000D01*
X86741000Y-56515000D02*
X86741000Y-60325000D01*
X86741000Y-60325000D02*
X86360000Y-60706000D01*
X86360000Y-60706000D02*
X85090000Y-60706000D01*
X85090000Y-60706000D02*
X84455000Y-61341000D01*
X84455000Y-61341000D02*
X84455000Y-64008000D01*
X84455000Y-64008000D02*
X83947000Y-64516000D01*
X83947000Y-64516000D02*
X80010000Y-64516000D01*
X80010000Y-64516000D02*
X79883000Y-64643000D01*
X73533000Y-66675000D02*
X70993000Y-66675000D01*
X70993000Y-66675000D02*
X70485000Y-67183000D01*
X70485000Y-67183000D02*
X70485000Y-74295000D01*
X70485000Y-74295000D02*
X68707000Y-76073000D01*
X68707000Y-76073000D02*
X60579000Y-76073000D01*
X60579000Y-76073000D02*
X58928000Y-77724000D01*
X58928000Y-77724000D02*
X58928000Y-78740000D01*
X86741000Y-56515000D02*
X86614000Y-56515000D01*
X62484000Y-83820000D02*
X58928000Y-83820000D01*
X63119000Y-83185000D02*
X62484000Y-83820000D01*
X63119000Y-79375000D02*
X63119000Y-83185000D01*
X63627000Y-78867000D02*
X63119000Y-79375000D01*
X58928000Y-83820000D02*
X58928000Y-84328000D01*
X58928000Y-84328000D02*
X57658000Y-85598000D01*
X57658000Y-85598000D02*
X57658000Y-92075000D01*
X57658000Y-92075000D02*
X59817000Y-94234000D01*
X59817000Y-94234000D02*
X62865000Y-94234000D01*
X62865000Y-94234000D02*
X64389000Y-95758000D01*
X58928000Y-81280000D02*
X60452000Y-81280000D01*
X61087000Y-81915000D02*
X62484000Y-81915000D01*
X60452000Y-81280000D02*
X61087000Y-81915000D01*
X59055000Y-81280000D02*
X58928000Y-81280000D01*
X89789000Y-59479000D02*
X87757000Y-59479000D01*
X94361000Y-56515000D02*
X94361000Y-57531000D01*
X94361000Y-57531000D02*
X92413000Y-59479000D01*
X92413000Y-59479000D02*
X89789000Y-59479000D01*
X58928000Y-86360000D02*
X61722000Y-86360000D01*
X61722000Y-86360000D02*
X63182500Y-84899500D01*
X101473000Y-88265000D02*
X97409000Y-88265000D01*
X97409000Y-88265000D02*
X91059000Y-94615000D01*
X91059000Y-94615000D02*
X91059000Y-96393000D01*
X91059000Y-96393000D02*
X90424000Y-97028000D01*
X90424000Y-97028000D02*
X83820000Y-97028000D01*
X77089000Y-80518000D02*
X77089000Y-79248000D01*
X99314000Y-81026000D02*
X101473000Y-83185000D01*
X99314000Y-79502000D02*
X99314000Y-81026000D01*
X98298000Y-78486000D02*
X99314000Y-79502000D01*
X93345000Y-78486000D02*
X98298000Y-78486000D01*
X90424000Y-75565000D02*
X93345000Y-78486000D01*
X79375000Y-75565000D02*
X90424000Y-75565000D01*
X77978000Y-76962000D02*
X79375000Y-75565000D01*
X77978000Y-78359000D02*
X77978000Y-76962000D01*
X77089000Y-79248000D02*
X77978000Y-78359000D01*
X77089000Y-80518000D02*
X77089000Y-83439000D01*
X77089000Y-83439000D02*
X70358000Y-90170000D01*
X79629000Y-80518000D02*
X79629000Y-79248000D01*
X98806000Y-83058000D02*
X101473000Y-85725000D01*
X98806000Y-79756000D02*
X98806000Y-83058000D01*
X98044000Y-78994000D02*
X98806000Y-79756000D01*
X93091000Y-78994000D02*
X98044000Y-78994000D01*
X90170000Y-76073000D02*
X93091000Y-78994000D01*
X81280000Y-76073000D02*
X90170000Y-76073000D01*
X80518000Y-76835000D02*
X81280000Y-76073000D01*
X80518000Y-78359000D02*
X80518000Y-76835000D01*
X79629000Y-79248000D02*
X80518000Y-78359000D01*
X79629000Y-80518000D02*
X79629000Y-83439000D01*
X79629000Y-83439000D02*
X72898000Y-90170000D01*
X96139000Y-66929000D02*
X96139000Y-61976000D01*
X96774000Y-67564000D02*
X96139000Y-66929000D01*
X76708000Y-92710000D02*
X76708000Y-91313000D01*
X76708000Y-91313000D02*
X79502000Y-88519000D01*
X87757000Y-61679000D02*
X87757000Y-61468000D01*
X87757000Y-61468000D02*
X88646000Y-60579000D01*
X88646000Y-60579000D02*
X94742000Y-60579000D01*
X94742000Y-60579000D02*
X96139000Y-61976000D01*
X79248000Y-92710000D02*
X79248000Y-90170000D01*
X79248000Y-90170000D02*
X80137000Y-89281000D01*
X101219000Y-76476000D02*
X98574000Y-76476000D01*
X94234000Y-75057000D02*
X92964000Y-76327000D01*
X97155000Y-75057000D02*
X94234000Y-75057000D01*
X98574000Y-76476000D02*
X97155000Y-75057000D01*
X89789000Y-61679000D02*
X89873000Y-61679000D01*
X89873000Y-61679000D02*
X97790000Y-69596000D01*
X97790000Y-69596000D02*
X100330000Y-69596000D01*
X100330000Y-69596000D02*
X101600000Y-70866000D01*
X101600000Y-70866000D02*
X101600000Y-76095000D01*
X101600000Y-76095000D02*
X101219000Y-76476000D01*
X85725000Y-61679000D02*
X85725000Y-65405000D01*
X93472000Y-77851000D02*
X94996000Y-77851000D01*
X89281000Y-73660000D02*
X93472000Y-77851000D01*
X89281000Y-68961000D02*
X89281000Y-73660000D01*
X85725000Y-65405000D02*
X89281000Y-68961000D01*
X73152000Y-75946000D02*
X71628000Y-77470000D01*
X74422000Y-75946000D02*
X73152000Y-75946000D01*
X75565000Y-74803000D02*
X74422000Y-75946000D01*
X80137000Y-74930000D02*
X80010000Y-74803000D01*
X80391000Y-74549000D02*
X80137000Y-74930000D01*
X83947000Y-70993000D02*
X80391000Y-74549000D01*
X92710000Y-66929000D02*
X89154000Y-66929000D01*
X76708000Y-65151000D02*
X77470000Y-65151000D01*
X78486000Y-73152000D02*
X74168000Y-77470000D01*
X78486000Y-66167000D02*
X78486000Y-73152000D01*
X77470000Y-65151000D02*
X78486000Y-66167000D01*
X76708000Y-62611000D02*
X77470000Y-62611000D01*
X76708000Y-76454000D02*
X76708000Y-77470000D01*
X78994000Y-74168000D02*
X76708000Y-76454000D01*
X78994000Y-64135000D02*
X78994000Y-74168000D01*
X77470000Y-62611000D02*
X78994000Y-64135000D01*
X96901000Y-72136000D02*
X95885000Y-72136000D01*
X93091000Y-74930000D02*
X92837000Y-74930000D01*
X95885000Y-72136000D02*
X93091000Y-74930000D01*
X99441000Y-72136000D02*
X99441000Y-71501000D01*
X96901000Y-71501000D02*
X96901000Y-72136000D01*
X97536000Y-70866000D02*
X96901000Y-71501000D01*
X98806000Y-70866000D02*
X97536000Y-70866000D01*
X99441000Y-71501000D02*
X98806000Y-70866000D01*
X82804000Y-82169000D02*
X82804000Y-91186000D01*
X82550000Y-81915000D02*
X82804000Y-82169000D01*
X82169000Y-95758000D02*
X82169000Y-97409000D01*
X96901000Y-99060000D02*
X98374200Y-100533200D01*
X83820000Y-99060000D02*
X96901000Y-99060000D01*
X82169000Y-97409000D02*
X83820000Y-99060000D01*
X82169000Y-96266000D02*
X82169000Y-95758000D01*
X81788000Y-77470000D02*
X81788000Y-78486000D01*
X80518000Y-94107000D02*
X82169000Y-95758000D01*
X80518000Y-91948000D02*
X80518000Y-94107000D01*
X80899000Y-91567000D02*
X80518000Y-91948000D01*
X80899000Y-79375000D02*
X80899000Y-91567000D01*
X81788000Y-78486000D02*
X80899000Y-79375000D01*
X84328000Y-77470000D02*
X84328000Y-78486000D01*
X83058000Y-94107000D02*
X84709000Y-95758000D01*
X83058000Y-91948000D02*
X83058000Y-94107000D01*
X83439000Y-91567000D02*
X83058000Y-91948000D01*
X83439000Y-79375000D02*
X83439000Y-91567000D01*
X84328000Y-78486000D02*
X83439000Y-79375000D01*
X86868000Y-77470000D02*
X86868000Y-78359000D01*
X85598000Y-94107000D02*
X87249000Y-95758000D01*
X85598000Y-91694000D02*
X85598000Y-94107000D01*
X85979000Y-91313000D02*
X85598000Y-91694000D01*
X85979000Y-79248000D02*
X85979000Y-91313000D01*
X86868000Y-78359000D02*
X85979000Y-79248000D01*
X89408000Y-77470000D02*
X89408000Y-78359000D01*
X88138000Y-94107000D02*
X89789000Y-95758000D01*
X88138000Y-83058000D02*
X88138000Y-94107000D01*
X88519000Y-82677000D02*
X88138000Y-83058000D01*
X88519000Y-79248000D02*
X88519000Y-82677000D01*
X89408000Y-78359000D02*
X88519000Y-79248000D01*
X76708000Y-66421000D02*
X75819000Y-66421000D01*
X74676000Y-64643000D02*
X68580000Y-64643000D01*
X74930000Y-64897000D02*
X74676000Y-64643000D01*
X74930000Y-65532000D02*
X74930000Y-64897000D01*
X75819000Y-66421000D02*
X74930000Y-65532000D01*
X68834000Y-63881000D02*
X76708000Y-63881000D01*
X68707000Y-63754000D02*
X68834000Y-63881000D01*
X89789000Y-65913000D02*
X90043000Y-66167000D01*
X90043000Y-66167000D02*
X93345000Y-66167000D01*
X93345000Y-66167000D02*
X97536000Y-70358000D01*
X97536000Y-70358000D02*
X99949000Y-70358000D01*
X99949000Y-70358000D02*
X100711000Y-71120000D01*
X100711000Y-71120000D02*
X100711000Y-72136000D01*
D26*
X98171000Y-72136000D02*
X98171000Y-73406000D01*
X97663000Y-73914000D02*
X95758000Y-73914000D01*
X98171000Y-73406000D02*
X97663000Y-73914000D01*
D27*
G36*
X103335952Y-53880347D02*
X104648000Y-55192395D01*
X104662143Y-55178253D01*
X104841748Y-55357858D01*
X104827605Y-55372000D01*
X104841748Y-55386143D01*
X104662143Y-55565748D01*
X104648000Y-55551605D01*
X103335952Y-56863653D01*
X103491962Y-57179214D01*
X103866745Y-57370020D01*
X104271551Y-57484044D01*
X104690824Y-57516902D01*
X105108451Y-57467334D01*
X105508383Y-57337243D01*
X105804038Y-57179214D01*
X105960047Y-56863655D01*
X106074739Y-56978347D01*
X106161800Y-56891286D01*
X106161800Y-68089356D01*
X105982713Y-67869772D01*
X105759401Y-67685033D01*
X105504461Y-67547187D01*
X105227601Y-67461485D01*
X104939367Y-67431190D01*
X104650739Y-67457457D01*
X104372709Y-67539286D01*
X104115869Y-67673559D01*
X103890000Y-67855162D01*
X103703706Y-68077178D01*
X103564084Y-68331150D01*
X103476451Y-68607405D01*
X103444145Y-68895420D01*
X103444000Y-68916154D01*
X103444000Y-70035846D01*
X103472282Y-70324284D01*
X103556049Y-70601736D01*
X103692112Y-70857632D01*
X103875287Y-71082228D01*
X104098599Y-71266967D01*
X104353539Y-71404813D01*
X104630399Y-71490515D01*
X104918633Y-71520810D01*
X105207261Y-71494543D01*
X105485291Y-71412714D01*
X105742131Y-71278441D01*
X105968000Y-71096838D01*
X106154294Y-70874822D01*
X106161800Y-70861169D01*
X106161800Y-99535476D01*
X105885653Y-99398952D01*
X104573605Y-100711000D01*
X104587748Y-100725143D01*
X104408143Y-100904748D01*
X104394000Y-100890605D01*
X103081952Y-102202653D01*
X103137891Y-102315800D01*
X60502322Y-102315800D01*
X60621048Y-102075653D01*
X59309000Y-100763605D01*
X59294858Y-100777748D01*
X59115253Y-100598143D01*
X59129395Y-100584000D01*
X59488605Y-100584000D01*
X60800653Y-101896048D01*
X61116214Y-101740038D01*
X61239048Y-101498765D01*
X62028240Y-101498765D01*
X62095220Y-101738856D01*
X62344248Y-101855956D01*
X62611335Y-101922223D01*
X62886217Y-101935110D01*
X63158333Y-101894122D01*
X63417223Y-101800836D01*
X63533180Y-101738856D01*
X63600160Y-101498765D01*
X62814200Y-100712805D01*
X62028240Y-101498765D01*
X61239048Y-101498765D01*
X61307020Y-101365255D01*
X61421044Y-100960449D01*
X61436360Y-100765015D01*
X61453278Y-100877333D01*
X61546564Y-101136223D01*
X61608544Y-101252180D01*
X61848635Y-101319160D01*
X62634595Y-100533200D01*
X61848635Y-99747240D01*
X61608544Y-99814220D01*
X61491444Y-100063248D01*
X61427680Y-100320247D01*
X61404334Y-100123549D01*
X61274243Y-99723617D01*
X61190870Y-99567635D01*
X62028240Y-99567635D01*
X62814200Y-100353595D01*
X63600160Y-99567635D01*
X63533180Y-99327544D01*
X63284152Y-99210444D01*
X63017065Y-99144177D01*
X62742183Y-99131290D01*
X62470067Y-99172278D01*
X62211177Y-99265564D01*
X62095220Y-99327544D01*
X62028240Y-99567635D01*
X61190870Y-99567635D01*
X61116214Y-99427962D01*
X60800653Y-99271952D01*
X59488605Y-100584000D01*
X59129395Y-100584000D01*
X57817347Y-99271952D01*
X57631800Y-99363684D01*
X57631800Y-99092347D01*
X57996952Y-99092347D01*
X59309000Y-100404395D01*
X60621048Y-99092347D01*
X60465038Y-98776786D01*
X60090255Y-98585980D01*
X59685449Y-98471956D01*
X59266176Y-98439098D01*
X58848549Y-98488666D01*
X58448617Y-98618757D01*
X58152962Y-98776786D01*
X57996952Y-99092347D01*
X57631800Y-99092347D01*
X57631800Y-93123602D01*
X59279599Y-94771401D01*
X59333855Y-94815968D01*
X59387625Y-94861086D01*
X59391126Y-94863011D01*
X59394215Y-94865548D01*
X59456067Y-94898713D01*
X59517604Y-94932543D01*
X59521416Y-94933752D01*
X59524935Y-94935639D01*
X59592031Y-94956152D01*
X59658987Y-94977392D01*
X59662959Y-94977838D01*
X59666781Y-94979006D01*
X59736605Y-94986098D01*
X59806389Y-94993926D01*
X59814204Y-94993981D01*
X59814347Y-94993995D01*
X59814480Y-94993982D01*
X59817000Y-94994000D01*
X60678949Y-94994000D01*
X60618877Y-95081734D01*
X60510950Y-95333546D01*
X60453989Y-95601524D01*
X60450164Y-95875464D01*
X60499620Y-96144928D01*
X60600474Y-96399655D01*
X60748883Y-96629942D01*
X60939196Y-96827016D01*
X61164163Y-96983372D01*
X61415215Y-97093054D01*
X61682789Y-97151884D01*
X61956695Y-97157622D01*
X62226499Y-97110048D01*
X62481923Y-97010975D01*
X62713240Y-96864177D01*
X62911639Y-96675245D01*
X63069561Y-96451375D01*
X63117934Y-96342727D01*
X63140474Y-96399655D01*
X63288883Y-96629942D01*
X63479196Y-96827016D01*
X63704163Y-96983372D01*
X63955215Y-97093054D01*
X64222789Y-97151884D01*
X64496695Y-97157622D01*
X64766499Y-97110048D01*
X65021923Y-97010975D01*
X65253240Y-96864177D01*
X65451639Y-96675245D01*
X65609561Y-96451375D01*
X65657934Y-96342727D01*
X65680474Y-96399655D01*
X65828883Y-96629942D01*
X66019196Y-96827016D01*
X66244163Y-96983372D01*
X66495215Y-97093054D01*
X66762789Y-97151884D01*
X67036695Y-97157622D01*
X67134200Y-97140429D01*
X67134200Y-99360933D01*
X67014599Y-99439197D01*
X66818858Y-99630881D01*
X66664077Y-99856934D01*
X66624551Y-99949156D01*
X66593646Y-99874175D01*
X66442035Y-99645983D01*
X66248990Y-99451585D01*
X66021862Y-99298385D01*
X65769303Y-99192219D01*
X65500933Y-99137131D01*
X65226974Y-99135218D01*
X64957861Y-99186554D01*
X64703844Y-99289184D01*
X64474599Y-99439197D01*
X64278858Y-99630881D01*
X64124077Y-99856934D01*
X64086791Y-99943928D01*
X64081836Y-99930177D01*
X64019856Y-99814220D01*
X63779765Y-99747240D01*
X62993805Y-100533200D01*
X63779765Y-101319160D01*
X64019856Y-101252180D01*
X64083066Y-101117755D01*
X64105674Y-101174855D01*
X64254083Y-101405142D01*
X64444396Y-101602216D01*
X64669363Y-101758572D01*
X64920415Y-101868254D01*
X65187989Y-101927084D01*
X65461895Y-101932822D01*
X65731699Y-101885248D01*
X65987123Y-101786175D01*
X66218440Y-101639377D01*
X66416839Y-101450445D01*
X66574761Y-101226575D01*
X66623134Y-101117927D01*
X66645674Y-101174855D01*
X66794083Y-101405142D01*
X66984396Y-101602216D01*
X67209363Y-101758572D01*
X67460415Y-101868254D01*
X67727989Y-101927084D01*
X68001895Y-101932822D01*
X68271699Y-101885248D01*
X68527123Y-101786175D01*
X68758440Y-101639377D01*
X68956839Y-101450445D01*
X69114761Y-101226575D01*
X69163134Y-101117927D01*
X69185674Y-101174855D01*
X69334083Y-101405142D01*
X69524396Y-101602216D01*
X69749363Y-101758572D01*
X70000415Y-101868254D01*
X70267989Y-101927084D01*
X70541895Y-101932822D01*
X70811699Y-101885248D01*
X71067123Y-101786175D01*
X71298440Y-101639377D01*
X71446097Y-101498765D01*
X72188240Y-101498765D01*
X72255220Y-101738856D01*
X72504248Y-101855956D01*
X72771335Y-101922223D01*
X73046217Y-101935110D01*
X73318333Y-101894122D01*
X73577223Y-101800836D01*
X73693180Y-101738856D01*
X73760160Y-101498765D01*
X72974200Y-100712805D01*
X72188240Y-101498765D01*
X71446097Y-101498765D01*
X71496839Y-101450445D01*
X71654761Y-101226575D01*
X71701386Y-101121853D01*
X71706564Y-101136223D01*
X71768544Y-101252180D01*
X72008635Y-101319160D01*
X72794595Y-100533200D01*
X72008635Y-99747240D01*
X71768544Y-99814220D01*
X71704804Y-99949771D01*
X71673646Y-99874175D01*
X71522035Y-99645983D01*
X71444233Y-99567635D01*
X72188240Y-99567635D01*
X72974200Y-100353595D01*
X73760160Y-99567635D01*
X73693180Y-99327544D01*
X73444152Y-99210444D01*
X73177065Y-99144177D01*
X72902183Y-99131290D01*
X72630067Y-99172278D01*
X72371177Y-99265564D01*
X72255220Y-99327544D01*
X72188240Y-99567635D01*
X71444233Y-99567635D01*
X71328990Y-99451585D01*
X71101862Y-99298385D01*
X70849303Y-99192219D01*
X70580933Y-99137131D01*
X70306974Y-99135218D01*
X70037861Y-99186554D01*
X69783844Y-99289184D01*
X69554599Y-99439197D01*
X69358858Y-99630881D01*
X69204077Y-99856934D01*
X69164551Y-99949156D01*
X69133646Y-99874175D01*
X68982035Y-99645983D01*
X68788990Y-99451585D01*
X68654200Y-99360668D01*
X68654200Y-97393602D01*
X68736401Y-97311401D01*
X68780968Y-97257145D01*
X68826086Y-97203375D01*
X68828011Y-97199874D01*
X68830548Y-97196785D01*
X68863713Y-97134933D01*
X68897543Y-97073396D01*
X68898752Y-97069584D01*
X68900639Y-97066065D01*
X68909081Y-97038451D01*
X68999048Y-97080756D01*
X69266135Y-97147023D01*
X69541017Y-97159910D01*
X69813133Y-97118922D01*
X70072023Y-97025636D01*
X70187980Y-96963656D01*
X70254960Y-96723565D01*
X69469000Y-95937605D01*
X69454858Y-95951748D01*
X69275253Y-95772143D01*
X69289395Y-95758000D01*
X69275253Y-95743858D01*
X69454858Y-95564253D01*
X69469000Y-95578395D01*
X70254960Y-94792435D01*
X70187980Y-94552344D01*
X69938952Y-94435244D01*
X69671865Y-94368977D01*
X69396983Y-94356090D01*
X69124867Y-94397078D01*
X68959000Y-94456845D01*
X68959000Y-94104664D01*
X69195695Y-94109622D01*
X69465499Y-94062048D01*
X69720923Y-93962975D01*
X69952240Y-93816177D01*
X70150639Y-93627245D01*
X70308561Y-93403375D01*
X70356934Y-93294727D01*
X70379474Y-93351655D01*
X70527883Y-93581942D01*
X70718196Y-93779016D01*
X70943163Y-93935372D01*
X71194215Y-94045054D01*
X71461789Y-94103884D01*
X71735695Y-94109622D01*
X72005499Y-94062048D01*
X72260923Y-93962975D01*
X72492240Y-93816177D01*
X72690639Y-93627245D01*
X72848561Y-93403375D01*
X72896934Y-93294727D01*
X72919474Y-93351655D01*
X73067883Y-93581942D01*
X73258196Y-93779016D01*
X73483163Y-93935372D01*
X73734215Y-94045054D01*
X74001789Y-94103884D01*
X74275695Y-94109622D01*
X74545499Y-94062048D01*
X74800923Y-93962975D01*
X75032240Y-93816177D01*
X75230639Y-93627245D01*
X75388561Y-93403375D01*
X75436934Y-93294727D01*
X75459474Y-93351655D01*
X75607883Y-93581942D01*
X75798196Y-93779016D01*
X76023163Y-93935372D01*
X76274215Y-94045054D01*
X76541789Y-94103884D01*
X76815695Y-94109622D01*
X77085499Y-94062048D01*
X77340923Y-93962975D01*
X77572240Y-93816177D01*
X77770639Y-93627245D01*
X77928561Y-93403375D01*
X77976934Y-93294727D01*
X77999474Y-93351655D01*
X78147883Y-93581942D01*
X78338196Y-93779016D01*
X78563163Y-93935372D01*
X78814215Y-94045054D01*
X79081789Y-94103884D01*
X79355695Y-94109622D01*
X79625499Y-94062048D01*
X79758000Y-94010654D01*
X79758000Y-94107000D01*
X79764851Y-94176877D01*
X79770969Y-94246803D01*
X79772084Y-94250641D01*
X79772474Y-94254618D01*
X79792764Y-94321821D01*
X79806236Y-94368192D01*
X79775733Y-94361931D01*
X79501774Y-94360018D01*
X79232661Y-94411354D01*
X78978644Y-94513984D01*
X78749399Y-94663997D01*
X78553658Y-94855681D01*
X78398877Y-95081734D01*
X78359351Y-95173956D01*
X78328446Y-95098975D01*
X78176835Y-94870783D01*
X77983790Y-94676385D01*
X77756662Y-94523185D01*
X77504103Y-94417019D01*
X77235733Y-94361931D01*
X76961774Y-94360018D01*
X76692661Y-94411354D01*
X76438644Y-94513984D01*
X76209399Y-94663997D01*
X76013658Y-94855681D01*
X75858877Y-95081734D01*
X75819351Y-95173956D01*
X75788446Y-95098975D01*
X75636835Y-94870783D01*
X75443790Y-94676385D01*
X75216662Y-94523185D01*
X74964103Y-94417019D01*
X74695733Y-94361931D01*
X74421774Y-94360018D01*
X74152661Y-94411354D01*
X73898644Y-94513984D01*
X73669399Y-94663997D01*
X73473658Y-94855681D01*
X73318877Y-95081734D01*
X73279351Y-95173956D01*
X73248446Y-95098975D01*
X73096835Y-94870783D01*
X72903790Y-94676385D01*
X72676662Y-94523185D01*
X72424103Y-94417019D01*
X72155733Y-94361931D01*
X71881774Y-94360018D01*
X71612661Y-94411354D01*
X71358644Y-94513984D01*
X71129399Y-94663997D01*
X70933658Y-94855681D01*
X70778877Y-95081734D01*
X70741591Y-95168728D01*
X70736636Y-95154977D01*
X70674656Y-95039020D01*
X70434565Y-94972040D01*
X69648605Y-95758000D01*
X70434565Y-96543960D01*
X70674656Y-96476980D01*
X70737866Y-96342555D01*
X70760474Y-96399655D01*
X70908883Y-96629942D01*
X71099196Y-96827016D01*
X71324163Y-96983372D01*
X71575215Y-97093054D01*
X71842789Y-97151884D01*
X72116695Y-97157622D01*
X72386499Y-97110048D01*
X72641923Y-97010975D01*
X72873240Y-96864177D01*
X73071639Y-96675245D01*
X73229561Y-96451375D01*
X73277934Y-96342727D01*
X73300474Y-96399655D01*
X73448883Y-96629942D01*
X73639196Y-96827016D01*
X73864163Y-96983372D01*
X74115215Y-97093054D01*
X74382789Y-97151884D01*
X74656695Y-97157622D01*
X74926499Y-97110048D01*
X75181923Y-97010975D01*
X75413240Y-96864177D01*
X75611639Y-96675245D01*
X75769561Y-96451375D01*
X75817934Y-96342727D01*
X75840474Y-96399655D01*
X75988883Y-96629942D01*
X76179196Y-96827016D01*
X76404163Y-96983372D01*
X76655215Y-97093054D01*
X76922789Y-97151884D01*
X77196695Y-97157622D01*
X77466499Y-97110048D01*
X77721923Y-97010975D01*
X77953240Y-96864177D01*
X78151639Y-96675245D01*
X78309561Y-96451375D01*
X78357934Y-96342727D01*
X78380474Y-96399655D01*
X78528883Y-96629942D01*
X78719196Y-96827016D01*
X78944163Y-96983372D01*
X79195215Y-97093054D01*
X79462789Y-97151884D01*
X79736695Y-97157622D01*
X80006499Y-97110048D01*
X80261923Y-97010975D01*
X80493240Y-96864177D01*
X80691639Y-96675245D01*
X80849561Y-96451375D01*
X80897934Y-96342727D01*
X80920474Y-96399655D01*
X81068883Y-96629942D01*
X81259196Y-96827016D01*
X81409000Y-96931132D01*
X81409000Y-97409000D01*
X81415851Y-97478877D01*
X81421969Y-97548803D01*
X81423084Y-97552641D01*
X81423474Y-97556618D01*
X81443764Y-97623821D01*
X81463351Y-97691240D01*
X81465190Y-97694788D01*
X81466345Y-97698613D01*
X81499299Y-97760591D01*
X81531610Y-97822925D01*
X81534103Y-97826048D01*
X81535980Y-97829578D01*
X81580355Y-97883987D01*
X81624148Y-97938846D01*
X81629631Y-97944406D01*
X81629726Y-97944522D01*
X81629834Y-97944611D01*
X81631599Y-97946401D01*
X82850303Y-99165105D01*
X82737861Y-99186554D01*
X82483844Y-99289184D01*
X82254599Y-99439197D01*
X82058858Y-99630881D01*
X81904077Y-99856934D01*
X81864551Y-99949156D01*
X81833646Y-99874175D01*
X81682035Y-99645983D01*
X81488990Y-99451585D01*
X81261862Y-99298385D01*
X81009303Y-99192219D01*
X80740933Y-99137131D01*
X80466974Y-99135218D01*
X80197861Y-99186554D01*
X79943844Y-99289184D01*
X79714599Y-99439197D01*
X79518858Y-99630881D01*
X79364077Y-99856934D01*
X79324551Y-99949156D01*
X79293646Y-99874175D01*
X79142035Y-99645983D01*
X78948990Y-99451585D01*
X78721862Y-99298385D01*
X78469303Y-99192219D01*
X78200933Y-99137131D01*
X77926974Y-99135218D01*
X77657861Y-99186554D01*
X77403844Y-99289184D01*
X77174599Y-99439197D01*
X76978858Y-99630881D01*
X76824077Y-99856934D01*
X76784551Y-99949156D01*
X76753646Y-99874175D01*
X76602035Y-99645983D01*
X76408990Y-99451585D01*
X76181862Y-99298385D01*
X75929303Y-99192219D01*
X75660933Y-99137131D01*
X75386974Y-99135218D01*
X75117861Y-99186554D01*
X74863844Y-99289184D01*
X74634599Y-99439197D01*
X74438858Y-99630881D01*
X74284077Y-99856934D01*
X74246791Y-99943928D01*
X74241836Y-99930177D01*
X74179856Y-99814220D01*
X73939765Y-99747240D01*
X73153805Y-100533200D01*
X73939765Y-101319160D01*
X74179856Y-101252180D01*
X74243066Y-101117755D01*
X74265674Y-101174855D01*
X74414083Y-101405142D01*
X74604396Y-101602216D01*
X74829363Y-101758572D01*
X75080415Y-101868254D01*
X75347989Y-101927084D01*
X75621895Y-101932822D01*
X75891699Y-101885248D01*
X76147123Y-101786175D01*
X76378440Y-101639377D01*
X76576839Y-101450445D01*
X76734761Y-101226575D01*
X76783134Y-101117927D01*
X76805674Y-101174855D01*
X76954083Y-101405142D01*
X77144396Y-101602216D01*
X77369363Y-101758572D01*
X77620415Y-101868254D01*
X77887989Y-101927084D01*
X78161895Y-101932822D01*
X78431699Y-101885248D01*
X78687123Y-101786175D01*
X78918440Y-101639377D01*
X79116839Y-101450445D01*
X79274761Y-101226575D01*
X79323134Y-101117927D01*
X79345674Y-101174855D01*
X79494083Y-101405142D01*
X79684396Y-101602216D01*
X79909363Y-101758572D01*
X80160415Y-101868254D01*
X80427989Y-101927084D01*
X80701895Y-101932822D01*
X80971699Y-101885248D01*
X81227123Y-101786175D01*
X81458440Y-101639377D01*
X81656839Y-101450445D01*
X81814761Y-101226575D01*
X81863134Y-101117927D01*
X81885674Y-101174855D01*
X82034083Y-101405142D01*
X82224396Y-101602216D01*
X82449363Y-101758572D01*
X82700415Y-101868254D01*
X82967989Y-101927084D01*
X83241895Y-101932822D01*
X83511699Y-101885248D01*
X83767123Y-101786175D01*
X83998440Y-101639377D01*
X84196839Y-101450445D01*
X84354761Y-101226575D01*
X84403134Y-101117927D01*
X84425674Y-101174855D01*
X84574083Y-101405142D01*
X84764396Y-101602216D01*
X84989363Y-101758572D01*
X85240415Y-101868254D01*
X85507989Y-101927084D01*
X85781895Y-101932822D01*
X86051699Y-101885248D01*
X86307123Y-101786175D01*
X86538440Y-101639377D01*
X86736839Y-101450445D01*
X86894761Y-101226575D01*
X86943134Y-101117927D01*
X86965674Y-101174855D01*
X87114083Y-101405142D01*
X87304396Y-101602216D01*
X87529363Y-101758572D01*
X87780415Y-101868254D01*
X88047989Y-101927084D01*
X88321895Y-101932822D01*
X88591699Y-101885248D01*
X88847123Y-101786175D01*
X89078440Y-101639377D01*
X89276839Y-101450445D01*
X89434761Y-101226575D01*
X89483134Y-101117927D01*
X89505674Y-101174855D01*
X89654083Y-101405142D01*
X89844396Y-101602216D01*
X90069363Y-101758572D01*
X90320415Y-101868254D01*
X90587989Y-101927084D01*
X90861895Y-101932822D01*
X91131699Y-101885248D01*
X91387123Y-101786175D01*
X91618440Y-101639377D01*
X91816839Y-101450445D01*
X91974761Y-101226575D01*
X92023134Y-101117927D01*
X92045674Y-101174855D01*
X92194083Y-101405142D01*
X92384396Y-101602216D01*
X92609363Y-101758572D01*
X92860415Y-101868254D01*
X93127989Y-101927084D01*
X93401895Y-101932822D01*
X93671699Y-101885248D01*
X93927123Y-101786175D01*
X94158440Y-101639377D01*
X94356839Y-101450445D01*
X94514761Y-101226575D01*
X94563134Y-101117927D01*
X94585674Y-101174855D01*
X94734083Y-101405142D01*
X94924396Y-101602216D01*
X95149363Y-101758572D01*
X95400415Y-101868254D01*
X95667989Y-101927084D01*
X95941895Y-101932822D01*
X96211699Y-101885248D01*
X96467123Y-101786175D01*
X96698440Y-101639377D01*
X96896839Y-101450445D01*
X97054761Y-101226575D01*
X97103134Y-101117927D01*
X97125674Y-101174855D01*
X97274083Y-101405142D01*
X97464396Y-101602216D01*
X97689363Y-101758572D01*
X97940415Y-101868254D01*
X98207989Y-101927084D01*
X98481895Y-101932822D01*
X98751699Y-101885248D01*
X99007123Y-101786175D01*
X99238440Y-101639377D01*
X99386097Y-101498765D01*
X100128240Y-101498765D01*
X100195220Y-101738856D01*
X100444248Y-101855956D01*
X100711335Y-101922223D01*
X100986217Y-101935110D01*
X101258333Y-101894122D01*
X101517223Y-101800836D01*
X101633180Y-101738856D01*
X101700160Y-101498765D01*
X100914200Y-100712805D01*
X100128240Y-101498765D01*
X99386097Y-101498765D01*
X99436839Y-101450445D01*
X99594761Y-101226575D01*
X99641386Y-101121853D01*
X99646564Y-101136223D01*
X99708544Y-101252180D01*
X99948635Y-101319160D01*
X100734595Y-100533200D01*
X101093805Y-100533200D01*
X101879765Y-101319160D01*
X102119856Y-101252180D01*
X102236956Y-101003152D01*
X102265186Y-100889372D01*
X102298666Y-101171451D01*
X102428757Y-101571383D01*
X102586786Y-101867038D01*
X102902347Y-102023048D01*
X104214395Y-100711000D01*
X102902347Y-99398952D01*
X102586786Y-99554962D01*
X102395980Y-99929745D01*
X102291782Y-100299668D01*
X102275122Y-100189067D01*
X102181836Y-99930177D01*
X102119856Y-99814220D01*
X101879765Y-99747240D01*
X101093805Y-100533200D01*
X100734595Y-100533200D01*
X99948635Y-99747240D01*
X99708544Y-99814220D01*
X99644804Y-99949771D01*
X99613646Y-99874175D01*
X99462035Y-99645983D01*
X99384233Y-99567635D01*
X100128240Y-99567635D01*
X100914200Y-100353595D01*
X101700160Y-99567635D01*
X101633180Y-99327544D01*
X101403086Y-99219347D01*
X103081952Y-99219347D01*
X104394000Y-100531395D01*
X105706048Y-99219347D01*
X105550038Y-98903786D01*
X105175255Y-98712980D01*
X104770449Y-98598956D01*
X104351176Y-98566098D01*
X103933549Y-98615666D01*
X103533617Y-98745757D01*
X103237962Y-98903786D01*
X103081952Y-99219347D01*
X101403086Y-99219347D01*
X101384152Y-99210444D01*
X101117065Y-99144177D01*
X100842183Y-99131290D01*
X100570067Y-99172278D01*
X100311177Y-99265564D01*
X100195220Y-99327544D01*
X100128240Y-99567635D01*
X99384233Y-99567635D01*
X99268990Y-99451585D01*
X99041862Y-99298385D01*
X98789303Y-99192219D01*
X98520933Y-99137131D01*
X98246974Y-99135218D01*
X98082412Y-99166610D01*
X97438401Y-98522599D01*
X97384145Y-98478032D01*
X97330375Y-98432914D01*
X97326874Y-98430989D01*
X97323785Y-98428452D01*
X97261933Y-98395287D01*
X97200396Y-98361457D01*
X97196584Y-98360248D01*
X97193065Y-98358361D01*
X97125969Y-98337848D01*
X97059013Y-98316608D01*
X97055041Y-98316162D01*
X97051219Y-98314994D01*
X96981351Y-98307897D01*
X96911611Y-98300074D01*
X96903806Y-98300020D01*
X96903653Y-98300004D01*
X96903510Y-98300018D01*
X96901000Y-98300000D01*
X84134802Y-98300000D01*
X83797578Y-97962776D01*
X83892079Y-97964755D01*
X84072657Y-97932914D01*
X84243610Y-97866606D01*
X84367473Y-97788000D01*
X90424000Y-97788000D01*
X90493877Y-97781149D01*
X90563803Y-97775031D01*
X90567641Y-97773916D01*
X90571618Y-97773526D01*
X90638821Y-97753236D01*
X90706240Y-97733649D01*
X90709788Y-97731810D01*
X90713613Y-97730655D01*
X90775591Y-97697701D01*
X90837925Y-97665390D01*
X90841048Y-97662897D01*
X90844578Y-97661020D01*
X90898987Y-97616645D01*
X90953846Y-97572852D01*
X90959406Y-97567369D01*
X90959522Y-97567274D01*
X90959611Y-97567166D01*
X90961401Y-97565401D01*
X91584734Y-96942068D01*
X91644163Y-96983372D01*
X91895215Y-97093054D01*
X92162789Y-97151884D01*
X92436695Y-97157622D01*
X92706499Y-97110048D01*
X92961923Y-97010975D01*
X93193240Y-96864177D01*
X93391639Y-96675245D01*
X93549561Y-96451375D01*
X93597934Y-96342727D01*
X93620474Y-96399655D01*
X93768883Y-96629942D01*
X93959196Y-96827016D01*
X94184163Y-96983372D01*
X94435215Y-97093054D01*
X94702789Y-97151884D01*
X94976695Y-97157622D01*
X95246499Y-97110048D01*
X95501923Y-97010975D01*
X95733240Y-96864177D01*
X95931639Y-96675245D01*
X96089561Y-96451375D01*
X96137934Y-96342727D01*
X96160474Y-96399655D01*
X96308883Y-96629942D01*
X96499196Y-96827016D01*
X96724163Y-96983372D01*
X96975215Y-97093054D01*
X97242789Y-97151884D01*
X97516695Y-97157622D01*
X97786499Y-97110048D01*
X98041923Y-97010975D01*
X98273240Y-96864177D01*
X98471639Y-96675245D01*
X98629561Y-96451375D01*
X98740993Y-96201095D01*
X98801690Y-95933938D01*
X98806059Y-95621017D01*
X98752846Y-95352269D01*
X98648446Y-95098975D01*
X98496835Y-94870783D01*
X98303790Y-94676385D01*
X98076662Y-94523185D01*
X97824103Y-94417019D01*
X97555733Y-94361931D01*
X97281774Y-94360018D01*
X97012661Y-94411354D01*
X96758644Y-94513984D01*
X96529399Y-94663997D01*
X96333658Y-94855681D01*
X96178877Y-95081734D01*
X96139351Y-95173956D01*
X96108446Y-95098975D01*
X95956835Y-94870783D01*
X95763790Y-94676385D01*
X95536662Y-94523185D01*
X95284103Y-94417019D01*
X95015733Y-94361931D01*
X94741774Y-94360018D01*
X94472661Y-94411354D01*
X94218644Y-94513984D01*
X93989399Y-94663997D01*
X93793658Y-94855681D01*
X93638877Y-95081734D01*
X93599351Y-95173956D01*
X93568446Y-95098975D01*
X93416835Y-94870783D01*
X93223790Y-94676385D01*
X92996662Y-94523185D01*
X92744103Y-94417019D01*
X92475733Y-94361931D01*
X92387487Y-94361315D01*
X94978237Y-91770565D01*
X100687040Y-91770565D01*
X100754020Y-92010656D01*
X101003048Y-92127756D01*
X101270135Y-92194023D01*
X101545017Y-92206910D01*
X101817133Y-92165922D01*
X102076023Y-92072636D01*
X102191980Y-92010656D01*
X102258960Y-91770565D01*
X101473000Y-90984605D01*
X100687040Y-91770565D01*
X94978237Y-91770565D01*
X95871785Y-90877017D01*
X100071090Y-90877017D01*
X100112078Y-91149133D01*
X100205364Y-91408023D01*
X100267344Y-91523980D01*
X100507435Y-91590960D01*
X101293395Y-90805000D01*
X101652605Y-90805000D01*
X102438565Y-91590960D01*
X102678656Y-91523980D01*
X102795756Y-91274952D01*
X102862023Y-91007865D01*
X102874910Y-90732983D01*
X102833922Y-90460867D01*
X102740636Y-90201977D01*
X102678656Y-90086020D01*
X102438565Y-90019040D01*
X101652605Y-90805000D01*
X101293395Y-90805000D01*
X100507435Y-90019040D01*
X100267344Y-90086020D01*
X100150244Y-90335048D01*
X100083977Y-90602135D01*
X100071090Y-90877017D01*
X95871785Y-90877017D01*
X97723802Y-89025000D01*
X100300742Y-89025000D01*
X100372883Y-89136942D01*
X100563196Y-89334016D01*
X100788163Y-89490372D01*
X100884086Y-89532280D01*
X100869977Y-89537364D01*
X100754020Y-89599344D01*
X100687040Y-89839435D01*
X101473000Y-90625395D01*
X102258960Y-89839435D01*
X102191980Y-89599344D01*
X102058257Y-89536464D01*
X102105923Y-89517975D01*
X102337240Y-89371177D01*
X102535639Y-89182245D01*
X102693561Y-88958375D01*
X102804993Y-88708095D01*
X102865690Y-88440938D01*
X102870059Y-88128017D01*
X102816846Y-87859269D01*
X102712446Y-87605975D01*
X102560835Y-87377783D01*
X102367790Y-87183385D01*
X102140662Y-87030185D01*
X102059393Y-86996023D01*
X102105923Y-86977975D01*
X102337240Y-86831177D01*
X102535639Y-86642245D01*
X102693561Y-86418375D01*
X102804993Y-86168095D01*
X102865690Y-85900938D01*
X102870059Y-85588017D01*
X102816846Y-85319269D01*
X102712446Y-85065975D01*
X102560835Y-84837783D01*
X102367790Y-84643385D01*
X102140662Y-84490185D01*
X102059393Y-84456023D01*
X102105923Y-84437975D01*
X102337240Y-84291177D01*
X102535639Y-84102245D01*
X102693561Y-83878375D01*
X102804993Y-83628095D01*
X102865690Y-83360938D01*
X102870059Y-83048017D01*
X102816846Y-82779269D01*
X102712446Y-82525975D01*
X102560835Y-82297783D01*
X102367790Y-82103385D01*
X102140662Y-81950185D01*
X101888103Y-81844019D01*
X101619733Y-81788931D01*
X101345774Y-81787018D01*
X101181212Y-81818410D01*
X100074000Y-80711198D01*
X100074000Y-79502000D01*
X100067148Y-79432119D01*
X100061031Y-79362197D01*
X100059916Y-79358359D01*
X100059526Y-79354382D01*
X100039236Y-79287179D01*
X100019649Y-79219760D01*
X100017810Y-79216212D01*
X100016655Y-79212387D01*
X99983701Y-79150409D01*
X99951390Y-79088075D01*
X99948897Y-79084952D01*
X99947020Y-79081422D01*
X99902645Y-79027013D01*
X99858852Y-78972154D01*
X99853369Y-78966594D01*
X99853274Y-78966478D01*
X99853166Y-78966389D01*
X99851401Y-78964599D01*
X98835401Y-77948599D01*
X98781145Y-77904032D01*
X98727375Y-77858914D01*
X98723874Y-77856989D01*
X98720785Y-77854452D01*
X98658933Y-77821287D01*
X98597396Y-77787457D01*
X98593584Y-77786248D01*
X98590065Y-77784361D01*
X98522969Y-77763848D01*
X98456013Y-77742608D01*
X98452041Y-77742162D01*
X98448219Y-77740994D01*
X98378351Y-77733897D01*
X98308611Y-77726074D01*
X98300806Y-77726020D01*
X98300653Y-77726004D01*
X98300510Y-77726018D01*
X98298000Y-77726000D01*
X96775018Y-77726000D01*
X96857980Y-77681656D01*
X96924960Y-77441565D01*
X96139000Y-76655605D01*
X96124858Y-76669748D01*
X95945253Y-76490143D01*
X95959395Y-76476000D01*
X95945253Y-76461858D01*
X96124858Y-76282253D01*
X96139000Y-76296395D01*
X96153143Y-76282253D01*
X96332748Y-76461858D01*
X96318605Y-76476000D01*
X97104565Y-77261960D01*
X97344656Y-77194980D01*
X97461756Y-76945952D01*
X97528023Y-76678865D01*
X97535817Y-76512619D01*
X98036599Y-77013401D01*
X98090855Y-77057968D01*
X98144625Y-77103086D01*
X98148126Y-77105011D01*
X98151215Y-77107548D01*
X98213067Y-77140713D01*
X98274604Y-77174543D01*
X98278416Y-77175752D01*
X98281935Y-77177639D01*
X98349031Y-77198152D01*
X98415987Y-77219392D01*
X98419959Y-77219838D01*
X98423781Y-77221006D01*
X98493649Y-77228103D01*
X98563389Y-77235926D01*
X98571194Y-77235980D01*
X98571347Y-77235996D01*
X98571490Y-77235982D01*
X98574000Y-77236000D01*
X100046742Y-77236000D01*
X100118883Y-77347942D01*
X100309196Y-77545016D01*
X100534163Y-77701372D01*
X100785215Y-77811054D01*
X101052789Y-77869884D01*
X101326695Y-77875622D01*
X101596499Y-77828048D01*
X101851923Y-77728975D01*
X102083240Y-77582177D01*
X102281639Y-77393245D01*
X102439561Y-77169375D01*
X102550993Y-76919095D01*
X102611690Y-76651938D01*
X102616059Y-76339017D01*
X102562846Y-76070269D01*
X102458446Y-75816975D01*
X102360000Y-75668802D01*
X102360000Y-70866000D01*
X102353149Y-70796123D01*
X102347031Y-70726197D01*
X102345916Y-70722359D01*
X102345526Y-70718382D01*
X102325236Y-70651179D01*
X102305649Y-70583760D01*
X102303810Y-70580212D01*
X102302655Y-70576387D01*
X102269691Y-70514390D01*
X102237389Y-70452074D01*
X102234897Y-70448953D01*
X102233020Y-70445422D01*
X102188641Y-70391007D01*
X102144852Y-70336154D01*
X102139369Y-70330594D01*
X102139274Y-70330478D01*
X102139166Y-70330389D01*
X102137401Y-70328599D01*
X100867401Y-69058599D01*
X100813145Y-69014032D01*
X100759375Y-68968914D01*
X100755874Y-68966989D01*
X100752785Y-68964452D01*
X100690933Y-68931287D01*
X100629396Y-68897457D01*
X100625584Y-68896248D01*
X100622065Y-68894361D01*
X100554969Y-68873848D01*
X100488013Y-68852608D01*
X100484041Y-68852162D01*
X100480219Y-68850994D01*
X100410351Y-68843897D01*
X100340611Y-68836074D01*
X100332806Y-68836020D01*
X100332653Y-68836004D01*
X100332510Y-68836018D01*
X100330000Y-68836000D01*
X98104802Y-68836000D01*
X97465490Y-68196688D01*
X97485215Y-68177904D01*
X97590911Y-68028070D01*
X97665492Y-67860560D01*
X97706116Y-67681754D01*
X97709040Y-67472319D01*
X97673425Y-67292448D01*
X97603550Y-67122920D01*
X97502079Y-66970193D01*
X97453432Y-66921205D01*
X97455785Y-66920230D01*
X97536000Y-66866632D01*
X97616215Y-66920230D01*
X97731777Y-66968097D01*
X97854458Y-66992500D01*
X97885250Y-66992500D01*
X98044000Y-66833750D01*
X98044000Y-65913000D01*
X98298000Y-65913000D01*
X98298000Y-66833750D01*
X98456750Y-66992500D01*
X98487542Y-66992500D01*
X98610223Y-66968097D01*
X98725785Y-66920230D01*
X98806000Y-66866632D01*
X98886215Y-66920230D01*
X99001777Y-66968097D01*
X99124458Y-66992500D01*
X99155250Y-66992500D01*
X99314000Y-66833750D01*
X99314000Y-65913000D01*
X99568000Y-65913000D01*
X99568000Y-66833750D01*
X99726750Y-66992500D01*
X99757542Y-66992500D01*
X99880223Y-66968097D01*
X99995785Y-66920230D01*
X100076000Y-66866632D01*
X100156215Y-66920230D01*
X100271777Y-66968097D01*
X100394458Y-66992500D01*
X100425250Y-66992500D01*
X100584000Y-66833750D01*
X100584000Y-65913000D01*
X100838000Y-65913000D01*
X100838000Y-66833750D01*
X100996750Y-66992500D01*
X101027542Y-66992500D01*
X101150223Y-66968097D01*
X101265785Y-66920230D01*
X101369789Y-66850737D01*
X101458237Y-66762289D01*
X101527730Y-66658285D01*
X101575597Y-66542723D01*
X101600000Y-66420042D01*
X101600000Y-66071750D01*
X101441250Y-65913000D01*
X100838000Y-65913000D01*
X100584000Y-65913000D01*
X99568000Y-65913000D01*
X99314000Y-65913000D01*
X98298000Y-65913000D01*
X98044000Y-65913000D01*
X97028000Y-65913000D01*
X97028000Y-65933000D01*
X96899000Y-65933000D01*
X96899000Y-64738250D01*
X97028000Y-64738250D01*
X97028000Y-65659000D01*
X98044000Y-65659000D01*
X98044000Y-64738250D01*
X98298000Y-64738250D01*
X98298000Y-65659000D01*
X99314000Y-65659000D01*
X99314000Y-64738250D01*
X99568000Y-64738250D01*
X99568000Y-65659000D01*
X100584000Y-65659000D01*
X100584000Y-64738250D01*
X100838000Y-64738250D01*
X100838000Y-65659000D01*
X101441250Y-65659000D01*
X101600000Y-65500250D01*
X101600000Y-65151958D01*
X101575597Y-65029277D01*
X101527730Y-64913715D01*
X101458237Y-64809711D01*
X101369789Y-64721263D01*
X101265785Y-64651770D01*
X101150223Y-64603903D01*
X101027542Y-64579500D01*
X100996750Y-64579500D01*
X100838000Y-64738250D01*
X100584000Y-64738250D01*
X100425250Y-64579500D01*
X100394458Y-64579500D01*
X100271777Y-64603903D01*
X100156215Y-64651770D01*
X100076000Y-64705368D01*
X99995785Y-64651770D01*
X99880223Y-64603903D01*
X99757542Y-64579500D01*
X99726750Y-64579500D01*
X99568000Y-64738250D01*
X99314000Y-64738250D01*
X99155250Y-64579500D01*
X99124458Y-64579500D01*
X99001777Y-64603903D01*
X98886215Y-64651770D01*
X98806000Y-64705368D01*
X98725785Y-64651770D01*
X98610223Y-64603903D01*
X98487542Y-64579500D01*
X98456750Y-64579500D01*
X98298000Y-64738250D01*
X98044000Y-64738250D01*
X97885250Y-64579500D01*
X97854458Y-64579500D01*
X97731777Y-64603903D01*
X97616215Y-64651770D01*
X97536000Y-64705368D01*
X97455785Y-64651770D01*
X97340223Y-64603903D01*
X97217542Y-64579500D01*
X97186750Y-64579500D01*
X97028000Y-64738250D01*
X96899000Y-64738250D01*
X96899000Y-63148330D01*
X97003240Y-63082177D01*
X97150897Y-62941565D01*
X97893040Y-62941565D01*
X97960020Y-63181656D01*
X98209048Y-63298756D01*
X98476135Y-63365023D01*
X98751017Y-63377910D01*
X99023133Y-63336922D01*
X99282023Y-63243636D01*
X99397980Y-63181656D01*
X99464960Y-62941565D01*
X98679000Y-62155605D01*
X97893040Y-62941565D01*
X97150897Y-62941565D01*
X97201639Y-62893245D01*
X97359561Y-62669375D01*
X97406186Y-62564653D01*
X97411364Y-62579023D01*
X97473344Y-62694980D01*
X97713435Y-62761960D01*
X98499395Y-61976000D01*
X98858605Y-61976000D01*
X99644565Y-62761960D01*
X99884656Y-62694980D01*
X99947866Y-62560555D01*
X99970474Y-62617655D01*
X100118883Y-62847942D01*
X100309196Y-63045016D01*
X100534163Y-63201372D01*
X100785215Y-63311054D01*
X101052789Y-63369884D01*
X101326695Y-63375622D01*
X101596499Y-63328048D01*
X101851923Y-63228975D01*
X102083240Y-63082177D01*
X102281639Y-62893245D01*
X102439561Y-62669375D01*
X102550993Y-62419095D01*
X102611690Y-62151938D01*
X102616059Y-61839017D01*
X102562846Y-61570269D01*
X102458446Y-61316975D01*
X102306835Y-61088783D01*
X102113790Y-60894385D01*
X101886662Y-60741185D01*
X101634103Y-60635019D01*
X101365733Y-60579931D01*
X101091774Y-60578018D01*
X100822661Y-60629354D01*
X100568644Y-60731984D01*
X100339399Y-60881997D01*
X100143658Y-61073681D01*
X99988877Y-61299734D01*
X99951591Y-61386728D01*
X99946636Y-61372977D01*
X99884656Y-61257020D01*
X99644565Y-61190040D01*
X98858605Y-61976000D01*
X98499395Y-61976000D01*
X97713435Y-61190040D01*
X97473344Y-61257020D01*
X97409604Y-61392571D01*
X97378446Y-61316975D01*
X97226835Y-61088783D01*
X97149033Y-61010435D01*
X97893040Y-61010435D01*
X98679000Y-61796395D01*
X99464960Y-61010435D01*
X99397980Y-60770344D01*
X99148952Y-60653244D01*
X98881865Y-60586977D01*
X98606983Y-60574090D01*
X98334867Y-60615078D01*
X98075977Y-60708364D01*
X97960020Y-60770344D01*
X97893040Y-61010435D01*
X97149033Y-61010435D01*
X97033790Y-60894385D01*
X96806662Y-60741185D01*
X96554103Y-60635019D01*
X96285733Y-60579931D01*
X96011774Y-60578018D01*
X95847212Y-60609410D01*
X95279401Y-60041599D01*
X95225145Y-59997032D01*
X95171375Y-59951914D01*
X95167874Y-59949989D01*
X95164785Y-59947452D01*
X95102933Y-59914287D01*
X95041396Y-59880457D01*
X95037584Y-59879248D01*
X95034065Y-59877361D01*
X94966969Y-59856848D01*
X94900013Y-59835608D01*
X94896041Y-59835162D01*
X94892219Y-59833994D01*
X94822351Y-59826897D01*
X94752611Y-59819074D01*
X94744806Y-59819020D01*
X94744653Y-59819004D01*
X94744510Y-59819018D01*
X94742000Y-59819000D01*
X93147802Y-59819000D01*
X94893407Y-58073395D01*
X94922385Y-58064866D01*
X95181578Y-57929363D01*
X95409515Y-57746097D01*
X95597515Y-57522048D01*
X95630299Y-57462413D01*
X95652784Y-57504701D01*
X95837637Y-57731353D01*
X96062994Y-57917784D01*
X96320269Y-58056892D01*
X96599665Y-58143379D01*
X96890538Y-58173951D01*
X97181810Y-58147444D01*
X97462385Y-58064866D01*
X97721578Y-57929363D01*
X97949515Y-57746097D01*
X98137515Y-57522048D01*
X98171556Y-57460128D01*
X98322514Y-57666729D01*
X98538965Y-57865733D01*
X98790081Y-58018686D01*
X99066211Y-58119709D01*
X99081974Y-58122358D01*
X99314000Y-58001217D01*
X99314000Y-56642000D01*
X99568000Y-56642000D01*
X99568000Y-58001217D01*
X99800026Y-58122358D01*
X99815789Y-58119709D01*
X100091919Y-58018686D01*
X100343035Y-57865733D01*
X100559486Y-57666729D01*
X100732954Y-57429321D01*
X100856773Y-57162633D01*
X100926185Y-56876914D01*
X100781925Y-56642000D01*
X99568000Y-56642000D01*
X99314000Y-56642000D01*
X99294000Y-56642000D01*
X99294000Y-56388000D01*
X99314000Y-56388000D01*
X99314000Y-55028783D01*
X99568000Y-55028783D01*
X99568000Y-56388000D01*
X100781925Y-56388000D01*
X100926185Y-56153086D01*
X100856773Y-55867367D01*
X100732954Y-55600679D01*
X100597155Y-55414824D01*
X102503098Y-55414824D01*
X102552666Y-55832451D01*
X102682757Y-56232383D01*
X102840786Y-56528038D01*
X103156347Y-56684048D01*
X104468395Y-55372000D01*
X103156347Y-54059952D01*
X102840786Y-54215962D01*
X102649980Y-54590745D01*
X102535956Y-54995551D01*
X102503098Y-55414824D01*
X100597155Y-55414824D01*
X100559486Y-55363271D01*
X100343035Y-55164267D01*
X100091919Y-55011314D01*
X99815789Y-54910291D01*
X99800026Y-54907642D01*
X99568000Y-55028783D01*
X99314000Y-55028783D01*
X99081974Y-54907642D01*
X99066211Y-54910291D01*
X98790081Y-55011314D01*
X98538965Y-55164267D01*
X98322514Y-55363271D01*
X98172343Y-55568795D01*
X98149216Y-55525299D01*
X97964363Y-55298647D01*
X97739006Y-55112216D01*
X97481731Y-54973108D01*
X97202335Y-54886621D01*
X96911462Y-54856049D01*
X96620190Y-54882556D01*
X96339615Y-54965134D01*
X96080422Y-55100637D01*
X95852485Y-55283903D01*
X95664485Y-55507952D01*
X95631701Y-55567587D01*
X95609216Y-55525299D01*
X95424363Y-55298647D01*
X95199006Y-55112216D01*
X94941731Y-54973108D01*
X94662335Y-54886621D01*
X94371462Y-54856049D01*
X94080190Y-54882556D01*
X93799615Y-54965134D01*
X93540422Y-55100637D01*
X93312485Y-55283903D01*
X93124485Y-55507952D01*
X93091701Y-55567587D01*
X93069216Y-55525299D01*
X92884363Y-55298647D01*
X92659006Y-55112216D01*
X92401731Y-54973108D01*
X92122335Y-54886621D01*
X91831462Y-54856049D01*
X91540190Y-54882556D01*
X91259615Y-54965134D01*
X91000422Y-55100637D01*
X90772485Y-55283903D01*
X90584485Y-55507952D01*
X90551701Y-55567587D01*
X90529216Y-55525299D01*
X90344363Y-55298647D01*
X90119006Y-55112216D01*
X89861731Y-54973108D01*
X89582335Y-54886621D01*
X89291462Y-54856049D01*
X89000190Y-54882556D01*
X88719615Y-54965134D01*
X88460422Y-55100637D01*
X88232485Y-55283903D01*
X88208255Y-55312780D01*
X88181494Y-55226366D01*
X88082700Y-55076441D01*
X87946050Y-54959975D01*
X87782363Y-54886190D01*
X87604600Y-54860928D01*
X85877400Y-54860928D01*
X85776279Y-54868992D01*
X85604766Y-54922106D01*
X85454841Y-55020900D01*
X85338375Y-55157550D01*
X85264590Y-55321237D01*
X85239328Y-55499000D01*
X85239328Y-57531000D01*
X85247392Y-57632121D01*
X85300506Y-57803634D01*
X85399300Y-57953559D01*
X85535950Y-58070025D01*
X85699637Y-58143810D01*
X85877400Y-58169072D01*
X85981000Y-58169072D01*
X85981000Y-58240928D01*
X85275000Y-58240928D01*
X85173879Y-58248992D01*
X85002366Y-58302106D01*
X84852441Y-58400900D01*
X84735975Y-58537550D01*
X84662190Y-58701237D01*
X84659666Y-58719000D01*
X84539000Y-58719000D01*
X84469123Y-58725851D01*
X84399197Y-58731969D01*
X84395359Y-58733084D01*
X84391382Y-58733474D01*
X84324179Y-58753764D01*
X84256760Y-58773351D01*
X84253212Y-58775190D01*
X84249387Y-58776345D01*
X84187409Y-58809299D01*
X84125075Y-58841610D01*
X84121952Y-58844103D01*
X84118422Y-58845980D01*
X84064013Y-58890355D01*
X84009154Y-58934148D01*
X84003594Y-58939631D01*
X84003478Y-58939726D01*
X84003389Y-58939834D01*
X84001599Y-58941599D01*
X81981198Y-60962000D01*
X78794608Y-60962000D01*
X78689567Y-60856959D01*
X78929656Y-60789980D01*
X79046756Y-60540952D01*
X79113023Y-60273865D01*
X79125910Y-59998983D01*
X79084922Y-59726867D01*
X78991636Y-59467977D01*
X78929656Y-59352020D01*
X78689565Y-59285040D01*
X77903605Y-60071000D01*
X77917748Y-60085143D01*
X77738143Y-60264748D01*
X77724000Y-60250605D01*
X77709858Y-60264748D01*
X77530253Y-60085143D01*
X77544395Y-60071000D01*
X76758435Y-59285040D01*
X76518344Y-59352020D01*
X76401244Y-59601048D01*
X76334977Y-59868135D01*
X76322090Y-60143017D01*
X76363078Y-60415133D01*
X76456364Y-60674023D01*
X76518344Y-60789980D01*
X76758433Y-60856959D01*
X76653392Y-60962000D01*
X74482802Y-60962000D01*
X74044072Y-60523270D01*
X74044072Y-59309000D01*
X74036008Y-59207879D01*
X74004284Y-59105435D01*
X76938040Y-59105435D01*
X77724000Y-59891395D01*
X78509960Y-59105435D01*
X78442980Y-58865344D01*
X78193952Y-58748244D01*
X77926865Y-58681977D01*
X77651983Y-58669090D01*
X77379867Y-58710078D01*
X77120977Y-58803364D01*
X77005020Y-58865344D01*
X76938040Y-59105435D01*
X74004284Y-59105435D01*
X73982894Y-59036366D01*
X73884100Y-58886441D01*
X73747450Y-58769975D01*
X73583763Y-58696190D01*
X73406000Y-58670928D01*
X71882000Y-58670928D01*
X71780879Y-58678992D01*
X71609366Y-58732106D01*
X71459441Y-58830900D01*
X71342975Y-58967550D01*
X71269190Y-59131237D01*
X71243928Y-59309000D01*
X71243928Y-60833000D01*
X71251992Y-60934121D01*
X71305106Y-61105634D01*
X71403900Y-61255559D01*
X71540550Y-61372025D01*
X71704237Y-61445810D01*
X71882000Y-61471072D01*
X72842270Y-61471072D01*
X73630599Y-62259401D01*
X73684855Y-62303968D01*
X73738625Y-62349086D01*
X73742126Y-62351011D01*
X73745215Y-62353548D01*
X73807067Y-62386713D01*
X73868604Y-62420543D01*
X73872416Y-62421752D01*
X73875935Y-62423639D01*
X73943043Y-62444156D01*
X74009987Y-62465392D01*
X74013958Y-62465837D01*
X74017780Y-62467006D01*
X74087610Y-62474099D01*
X74157389Y-62481926D01*
X74165204Y-62481981D01*
X74165347Y-62481995D01*
X74165480Y-62481982D01*
X74168000Y-62482000D01*
X75498428Y-62482000D01*
X75498428Y-62865000D01*
X75506492Y-62966121D01*
X75554455Y-63121000D01*
X69396159Y-63121000D01*
X69305875Y-63030084D01*
X69153860Y-62927549D01*
X68984825Y-62856493D01*
X68805207Y-62819623D01*
X68621849Y-62818343D01*
X68441733Y-62852701D01*
X68271722Y-62921390D01*
X68118291Y-63021793D01*
X67987283Y-63150086D01*
X67883689Y-63301381D01*
X67811454Y-63469916D01*
X67773331Y-63649272D01*
X67770771Y-63832617D01*
X67803872Y-64012968D01*
X67831092Y-64081718D01*
X67756689Y-64190381D01*
X67684454Y-64358916D01*
X67646331Y-64538272D01*
X67643771Y-64721617D01*
X67676872Y-64901968D01*
X67744372Y-65072454D01*
X67843701Y-65226583D01*
X67971076Y-65358484D01*
X68121644Y-65463131D01*
X68289671Y-65536540D01*
X68468757Y-65575915D01*
X68652079Y-65579755D01*
X68832657Y-65547914D01*
X69003610Y-65481606D01*
X69127473Y-65403000D01*
X74170000Y-65403000D01*
X74170000Y-65532000D01*
X74176851Y-65601877D01*
X74182969Y-65671803D01*
X74184084Y-65675641D01*
X74184474Y-65679618D01*
X74204764Y-65746821D01*
X74224351Y-65814240D01*
X74226190Y-65817788D01*
X74227345Y-65821613D01*
X74260299Y-65883591D01*
X74292610Y-65945925D01*
X74295103Y-65949048D01*
X74296980Y-65952578D01*
X74341355Y-66006987D01*
X74385148Y-66061846D01*
X74390631Y-66067406D01*
X74390726Y-66067522D01*
X74390834Y-66067611D01*
X74392599Y-66069401D01*
X75281599Y-66958401D01*
X75335855Y-67002968D01*
X75389625Y-67048086D01*
X75393126Y-67050011D01*
X75396215Y-67052548D01*
X75458102Y-67085732D01*
X75519604Y-67119543D01*
X75523412Y-67120751D01*
X75526935Y-67122640D01*
X75594077Y-67143167D01*
X75660987Y-67164392D01*
X75664959Y-67164838D01*
X75668781Y-67166006D01*
X75738649Y-67173103D01*
X75748308Y-67174187D01*
X75795050Y-67214025D01*
X75958737Y-67287810D01*
X76136500Y-67313072D01*
X77279500Y-67313072D01*
X77380621Y-67305008D01*
X77552134Y-67251894D01*
X77702059Y-67153100D01*
X77726000Y-67125010D01*
X77726000Y-72837198D01*
X76317399Y-74245799D01*
X76293079Y-74209193D01*
X76163875Y-74079084D01*
X76011860Y-73976549D01*
X75842825Y-73905493D01*
X75663207Y-73868623D01*
X75479849Y-73867343D01*
X75437786Y-73875367D01*
X75438081Y-73854205D01*
X75365517Y-73487730D01*
X75223153Y-73142330D01*
X75016412Y-72831159D01*
X74753168Y-72566070D01*
X74443448Y-72357162D01*
X74099049Y-72212390D01*
X73733090Y-72137269D01*
X73359510Y-72134661D01*
X72992537Y-72204665D01*
X72646151Y-72344614D01*
X72388000Y-72513543D01*
X72388000Y-70866000D01*
X72381149Y-70796123D01*
X72375031Y-70726197D01*
X72373916Y-70722359D01*
X72373526Y-70718382D01*
X72353236Y-70651179D01*
X72333649Y-70583760D01*
X72331810Y-70580212D01*
X72330655Y-70576387D01*
X72297712Y-70514429D01*
X72265390Y-70452074D01*
X72262895Y-70448949D01*
X72261020Y-70445422D01*
X72261000Y-70445397D01*
X72261000Y-70386278D01*
X72292358Y-70418750D01*
X72599131Y-70631962D01*
X72941474Y-70781529D01*
X73306349Y-70861751D01*
X73679857Y-70869575D01*
X74047771Y-70804702D01*
X74396077Y-70669603D01*
X74711510Y-70469424D01*
X74982053Y-70211789D01*
X75197402Y-69906512D01*
X75349355Y-69565221D01*
X75432123Y-69200915D01*
X75438081Y-68774205D01*
X75365517Y-68407730D01*
X75223153Y-68062330D01*
X75016412Y-67751159D01*
X74753168Y-67486070D01*
X74443448Y-67277162D01*
X74296170Y-67215252D01*
X74349911Y-67139070D01*
X74424492Y-66971560D01*
X74465116Y-66792754D01*
X74468040Y-66583319D01*
X74432425Y-66403448D01*
X74362550Y-66233920D01*
X74261079Y-66081193D01*
X74131875Y-65951084D01*
X73979860Y-65848549D01*
X73810825Y-65777493D01*
X73631207Y-65740623D01*
X73447849Y-65739343D01*
X73267733Y-65773701D01*
X73097722Y-65842390D01*
X72986763Y-65915000D01*
X70993000Y-65915000D01*
X70923073Y-65921856D01*
X70853197Y-65927970D01*
X70849364Y-65929084D01*
X70845382Y-65929474D01*
X70778138Y-65949776D01*
X70710760Y-65969351D01*
X70707212Y-65971190D01*
X70703387Y-65972345D01*
X70641390Y-66005309D01*
X70579074Y-66037611D01*
X70575953Y-66040103D01*
X70572422Y-66041980D01*
X70518007Y-66086359D01*
X70463154Y-66130148D01*
X70457594Y-66135631D01*
X70457478Y-66135726D01*
X70457389Y-66135834D01*
X70455599Y-66137599D01*
X69947599Y-66645599D01*
X69903032Y-66699855D01*
X69857914Y-66753625D01*
X69855989Y-66757126D01*
X69853452Y-66760215D01*
X69820287Y-66822067D01*
X69786457Y-66883604D01*
X69785248Y-66887416D01*
X69783361Y-66890935D01*
X69762848Y-66958031D01*
X69741608Y-67024987D01*
X69741162Y-67028959D01*
X69739994Y-67032781D01*
X69732897Y-67102649D01*
X69725074Y-67172389D01*
X69725020Y-67180194D01*
X69725004Y-67180347D01*
X69725018Y-67180490D01*
X69725000Y-67183000D01*
X69725000Y-73980198D01*
X68392198Y-75313000D01*
X66607167Y-75313000D01*
X66648057Y-75214283D01*
X66672460Y-75091602D01*
X66672460Y-73564750D01*
X66513710Y-73406000D01*
X64414400Y-73406000D01*
X64414400Y-73426000D01*
X64160400Y-73426000D01*
X64160400Y-73406000D01*
X62061090Y-73406000D01*
X61902340Y-73564750D01*
X61902340Y-75091602D01*
X61926743Y-75214283D01*
X61967633Y-75313000D01*
X60579000Y-75313000D01*
X60509115Y-75319852D01*
X60439198Y-75325969D01*
X60435360Y-75327084D01*
X60431382Y-75327474D01*
X60364200Y-75347757D01*
X60296761Y-75367350D01*
X60293210Y-75369191D01*
X60289387Y-75370345D01*
X60227426Y-75403290D01*
X60165075Y-75435610D01*
X60161952Y-75438103D01*
X60158422Y-75439980D01*
X60103989Y-75484375D01*
X60049155Y-75528148D01*
X60043596Y-75533630D01*
X60043478Y-75533726D01*
X60043388Y-75533835D01*
X60041599Y-75535599D01*
X58390599Y-77186599D01*
X58346032Y-77240855D01*
X58300914Y-77294625D01*
X58298989Y-77298126D01*
X58296452Y-77301215D01*
X58263287Y-77363067D01*
X58229457Y-77424604D01*
X58228248Y-77428416D01*
X58226361Y-77431935D01*
X58205848Y-77499031D01*
X58188260Y-77554475D01*
X58048399Y-77645997D01*
X57852658Y-77837681D01*
X57697877Y-78063734D01*
X57631800Y-78217903D01*
X57631800Y-68865750D01*
X58902600Y-68865750D01*
X58902600Y-70392602D01*
X58927003Y-70515283D01*
X58974870Y-70630845D01*
X59044363Y-70734849D01*
X59132811Y-70823297D01*
X59236815Y-70892790D01*
X59352377Y-70940657D01*
X59475058Y-70965060D01*
X61001910Y-70965060D01*
X61160660Y-70806310D01*
X61160660Y-68707000D01*
X61414660Y-68707000D01*
X61414660Y-70806310D01*
X61573410Y-70965060D01*
X62239331Y-70965060D01*
X62236555Y-70966210D01*
X62132551Y-71035703D01*
X62044103Y-71124151D01*
X61974610Y-71228155D01*
X61926743Y-71343717D01*
X61902340Y-71466398D01*
X61902340Y-72993250D01*
X62061090Y-73152000D01*
X64160400Y-73152000D01*
X64160400Y-71052690D01*
X64414400Y-71052690D01*
X64414400Y-73152000D01*
X66513710Y-73152000D01*
X66672460Y-72993250D01*
X66672460Y-71466398D01*
X66648057Y-71343717D01*
X66600190Y-71228155D01*
X66530697Y-71124151D01*
X66442249Y-71035703D01*
X66341121Y-70968132D01*
X69037200Y-70968132D01*
X69138321Y-70960068D01*
X69309834Y-70906954D01*
X69459759Y-70808160D01*
X69576225Y-70671510D01*
X69650010Y-70507823D01*
X69675272Y-70330060D01*
X69675272Y-66829940D01*
X69667208Y-66728819D01*
X69614094Y-66557306D01*
X69515300Y-66407381D01*
X69378650Y-66290915D01*
X69214963Y-66217130D01*
X69037200Y-66191868D01*
X65537080Y-66191868D01*
X65435959Y-66199932D01*
X65264446Y-66253046D01*
X65114521Y-66351840D01*
X64998055Y-66488490D01*
X64924270Y-66652177D01*
X64899008Y-66829940D01*
X64899008Y-70330060D01*
X64907072Y-70431181D01*
X64960186Y-70602694D01*
X65058980Y-70752619D01*
X65195630Y-70869085D01*
X65250769Y-70893940D01*
X64573150Y-70893940D01*
X64414400Y-71052690D01*
X64160400Y-71052690D01*
X64001650Y-70893940D01*
X63335729Y-70893940D01*
X63338505Y-70892790D01*
X63442509Y-70823297D01*
X63530957Y-70734849D01*
X63600450Y-70630845D01*
X63648317Y-70515283D01*
X63672720Y-70392602D01*
X63672720Y-68865750D01*
X63513970Y-68707000D01*
X61414660Y-68707000D01*
X61160660Y-68707000D01*
X59061350Y-68707000D01*
X58902600Y-68865750D01*
X57631800Y-68865750D01*
X57631800Y-66767398D01*
X58902600Y-66767398D01*
X58902600Y-68294250D01*
X59061350Y-68453000D01*
X61160660Y-68453000D01*
X61160660Y-66353690D01*
X61414660Y-66353690D01*
X61414660Y-68453000D01*
X63513970Y-68453000D01*
X63672720Y-68294250D01*
X63672720Y-66767398D01*
X63648317Y-66644717D01*
X63600450Y-66529155D01*
X63530957Y-66425151D01*
X63442509Y-66336703D01*
X63338505Y-66267210D01*
X63222943Y-66219343D01*
X63100262Y-66194940D01*
X61573410Y-66194940D01*
X61414660Y-66353690D01*
X61160660Y-66353690D01*
X61001910Y-66194940D01*
X59475058Y-66194940D01*
X59352377Y-66219343D01*
X59236815Y-66267210D01*
X59132811Y-66336703D01*
X59044363Y-66425151D01*
X58974870Y-66529155D01*
X58927003Y-66644717D01*
X58902600Y-66767398D01*
X57631800Y-66767398D01*
X57631800Y-60685963D01*
X57724060Y-60685963D01*
X57738332Y-60864944D01*
X57801903Y-61032862D01*
X57909737Y-61176422D01*
X59346578Y-62613263D01*
X59423784Y-62679065D01*
X59582619Y-62762785D01*
X59758489Y-62798940D01*
X59937470Y-62784668D01*
X60105388Y-62721097D01*
X60248948Y-62613263D01*
X61470263Y-61391948D01*
X61536065Y-61314742D01*
X61619785Y-61155907D01*
X61655940Y-60980037D01*
X61641668Y-60801056D01*
X61583678Y-60647879D01*
X61594231Y-60648951D01*
X61885409Y-60621427D01*
X62165694Y-60537870D01*
X62424413Y-60401463D01*
X62651708Y-60217402D01*
X62838926Y-59992698D01*
X62978931Y-59735910D01*
X63066393Y-59456818D01*
X63097980Y-59166054D01*
X63072489Y-58874691D01*
X63053503Y-58809341D01*
X63099304Y-58823344D01*
X63390282Y-58852900D01*
X63681460Y-58825376D01*
X63961745Y-58741819D01*
X64220464Y-58605412D01*
X64447759Y-58421351D01*
X64634977Y-58196647D01*
X64774982Y-57939859D01*
X64862444Y-57660767D01*
X64894031Y-57370003D01*
X64868540Y-57078640D01*
X64849554Y-57013289D01*
X64895356Y-57027292D01*
X65186334Y-57056848D01*
X65477512Y-57029324D01*
X65757797Y-56945767D01*
X66016516Y-56809360D01*
X66243811Y-56625299D01*
X66431029Y-56400595D01*
X66571034Y-56143807D01*
X66658496Y-55864715D01*
X66690083Y-55573951D01*
X66664592Y-55282588D01*
X66582994Y-55001725D01*
X66448397Y-54742061D01*
X66265928Y-54513486D01*
X66251235Y-54498587D01*
X66024413Y-54271765D01*
X65798407Y-54086122D01*
X65540648Y-53947912D01*
X65260952Y-53862400D01*
X64969974Y-53832844D01*
X64678796Y-53860369D01*
X64398511Y-53943925D01*
X64139793Y-54080333D01*
X63912497Y-54264393D01*
X63725280Y-54489097D01*
X63585275Y-54745885D01*
X63497813Y-55024977D01*
X63466225Y-55315741D01*
X63491716Y-55607104D01*
X63510702Y-55672455D01*
X63464900Y-55658452D01*
X63173922Y-55628896D01*
X62882744Y-55656421D01*
X62602459Y-55739977D01*
X62343741Y-55876385D01*
X62116445Y-56060445D01*
X61929228Y-56285149D01*
X61789223Y-56541937D01*
X61701761Y-56821029D01*
X61670173Y-57111793D01*
X61695664Y-57403156D01*
X61714650Y-57468506D01*
X61668849Y-57454503D01*
X61377871Y-57424947D01*
X61086693Y-57452472D01*
X60806408Y-57536028D01*
X60547690Y-57672436D01*
X60320394Y-57856496D01*
X60133177Y-58081200D01*
X59993172Y-58337988D01*
X59905710Y-58617080D01*
X59874122Y-58907844D01*
X59877407Y-58945396D01*
X59797381Y-58903215D01*
X59621511Y-58867060D01*
X59442530Y-58881332D01*
X59274612Y-58944903D01*
X59131052Y-59052737D01*
X57909737Y-60274052D01*
X57843935Y-60351258D01*
X57760215Y-60510093D01*
X57724060Y-60685963D01*
X57631800Y-60685963D01*
X57631800Y-56974808D01*
X57742953Y-56863655D01*
X57898962Y-57179214D01*
X58273745Y-57370020D01*
X58678551Y-57484044D01*
X59097824Y-57516902D01*
X59515451Y-57467334D01*
X59915383Y-57337243D01*
X60211038Y-57179214D01*
X60367048Y-56863653D01*
X59055000Y-55551605D01*
X59040858Y-55565748D01*
X58861253Y-55386143D01*
X58875395Y-55372000D01*
X59234605Y-55372000D01*
X60546653Y-56684048D01*
X60862214Y-56528038D01*
X61053020Y-56153255D01*
X61167044Y-55748449D01*
X61199902Y-55329176D01*
X61150334Y-54911549D01*
X61020243Y-54511617D01*
X60862214Y-54215962D01*
X60546653Y-54059952D01*
X59234605Y-55372000D01*
X58875395Y-55372000D01*
X58861253Y-55357858D01*
X59040858Y-55178253D01*
X59055000Y-55192395D01*
X60367048Y-53880347D01*
X60320305Y-53785800D01*
X103382695Y-53785800D01*
X103335952Y-53880347D01*
X103335952Y-53880347D01*
G37*
X103335952Y-53880347D02*
X104648000Y-55192395D01*
X104662143Y-55178253D01*
X104841748Y-55357858D01*
X104827605Y-55372000D01*
X104841748Y-55386143D01*
X104662143Y-55565748D01*
X104648000Y-55551605D01*
X103335952Y-56863653D01*
X103491962Y-57179214D01*
X103866745Y-57370020D01*
X104271551Y-57484044D01*
X104690824Y-57516902D01*
X105108451Y-57467334D01*
X105508383Y-57337243D01*
X105804038Y-57179214D01*
X105960047Y-56863655D01*
X106074739Y-56978347D01*
X106161800Y-56891286D01*
X106161800Y-68089356D01*
X105982713Y-67869772D01*
X105759401Y-67685033D01*
X105504461Y-67547187D01*
X105227601Y-67461485D01*
X104939367Y-67431190D01*
X104650739Y-67457457D01*
X104372709Y-67539286D01*
X104115869Y-67673559D01*
X103890000Y-67855162D01*
X103703706Y-68077178D01*
X103564084Y-68331150D01*
X103476451Y-68607405D01*
X103444145Y-68895420D01*
X103444000Y-68916154D01*
X103444000Y-70035846D01*
X103472282Y-70324284D01*
X103556049Y-70601736D01*
X103692112Y-70857632D01*
X103875287Y-71082228D01*
X104098599Y-71266967D01*
X104353539Y-71404813D01*
X104630399Y-71490515D01*
X104918633Y-71520810D01*
X105207261Y-71494543D01*
X105485291Y-71412714D01*
X105742131Y-71278441D01*
X105968000Y-71096838D01*
X106154294Y-70874822D01*
X106161800Y-70861169D01*
X106161800Y-99535476D01*
X105885653Y-99398952D01*
X104573605Y-100711000D01*
X104587748Y-100725143D01*
X104408143Y-100904748D01*
X104394000Y-100890605D01*
X103081952Y-102202653D01*
X103137891Y-102315800D01*
X60502322Y-102315800D01*
X60621048Y-102075653D01*
X59309000Y-100763605D01*
X59294858Y-100777748D01*
X59115253Y-100598143D01*
X59129395Y-100584000D01*
X59488605Y-100584000D01*
X60800653Y-101896048D01*
X61116214Y-101740038D01*
X61239048Y-101498765D01*
X62028240Y-101498765D01*
X62095220Y-101738856D01*
X62344248Y-101855956D01*
X62611335Y-101922223D01*
X62886217Y-101935110D01*
X63158333Y-101894122D01*
X63417223Y-101800836D01*
X63533180Y-101738856D01*
X63600160Y-101498765D01*
X62814200Y-100712805D01*
X62028240Y-101498765D01*
X61239048Y-101498765D01*
X61307020Y-101365255D01*
X61421044Y-100960449D01*
X61436360Y-100765015D01*
X61453278Y-100877333D01*
X61546564Y-101136223D01*
X61608544Y-101252180D01*
X61848635Y-101319160D01*
X62634595Y-100533200D01*
X61848635Y-99747240D01*
X61608544Y-99814220D01*
X61491444Y-100063248D01*
X61427680Y-100320247D01*
X61404334Y-100123549D01*
X61274243Y-99723617D01*
X61190870Y-99567635D01*
X62028240Y-99567635D01*
X62814200Y-100353595D01*
X63600160Y-99567635D01*
X63533180Y-99327544D01*
X63284152Y-99210444D01*
X63017065Y-99144177D01*
X62742183Y-99131290D01*
X62470067Y-99172278D01*
X62211177Y-99265564D01*
X62095220Y-99327544D01*
X62028240Y-99567635D01*
X61190870Y-99567635D01*
X61116214Y-99427962D01*
X60800653Y-99271952D01*
X59488605Y-100584000D01*
X59129395Y-100584000D01*
X57817347Y-99271952D01*
X57631800Y-99363684D01*
X57631800Y-99092347D01*
X57996952Y-99092347D01*
X59309000Y-100404395D01*
X60621048Y-99092347D01*
X60465038Y-98776786D01*
X60090255Y-98585980D01*
X59685449Y-98471956D01*
X59266176Y-98439098D01*
X58848549Y-98488666D01*
X58448617Y-98618757D01*
X58152962Y-98776786D01*
X57996952Y-99092347D01*
X57631800Y-99092347D01*
X57631800Y-93123602D01*
X59279599Y-94771401D01*
X59333855Y-94815968D01*
X59387625Y-94861086D01*
X59391126Y-94863011D01*
X59394215Y-94865548D01*
X59456067Y-94898713D01*
X59517604Y-94932543D01*
X59521416Y-94933752D01*
X59524935Y-94935639D01*
X59592031Y-94956152D01*
X59658987Y-94977392D01*
X59662959Y-94977838D01*
X59666781Y-94979006D01*
X59736605Y-94986098D01*
X59806389Y-94993926D01*
X59814204Y-94993981D01*
X59814347Y-94993995D01*
X59814480Y-94993982D01*
X59817000Y-94994000D01*
X60678949Y-94994000D01*
X60618877Y-95081734D01*
X60510950Y-95333546D01*
X60453989Y-95601524D01*
X60450164Y-95875464D01*
X60499620Y-96144928D01*
X60600474Y-96399655D01*
X60748883Y-96629942D01*
X60939196Y-96827016D01*
X61164163Y-96983372D01*
X61415215Y-97093054D01*
X61682789Y-97151884D01*
X61956695Y-97157622D01*
X62226499Y-97110048D01*
X62481923Y-97010975D01*
X62713240Y-96864177D01*
X62911639Y-96675245D01*
X63069561Y-96451375D01*
X63117934Y-96342727D01*
X63140474Y-96399655D01*
X63288883Y-96629942D01*
X63479196Y-96827016D01*
X63704163Y-96983372D01*
X63955215Y-97093054D01*
X64222789Y-97151884D01*
X64496695Y-97157622D01*
X64766499Y-97110048D01*
X65021923Y-97010975D01*
X65253240Y-96864177D01*
X65451639Y-96675245D01*
X65609561Y-96451375D01*
X65657934Y-96342727D01*
X65680474Y-96399655D01*
X65828883Y-96629942D01*
X66019196Y-96827016D01*
X66244163Y-96983372D01*
X66495215Y-97093054D01*
X66762789Y-97151884D01*
X67036695Y-97157622D01*
X67134200Y-97140429D01*
X67134200Y-99360933D01*
X67014599Y-99439197D01*
X66818858Y-99630881D01*
X66664077Y-99856934D01*
X66624551Y-99949156D01*
X66593646Y-99874175D01*
X66442035Y-99645983D01*
X66248990Y-99451585D01*
X66021862Y-99298385D01*
X65769303Y-99192219D01*
X65500933Y-99137131D01*
X65226974Y-99135218D01*
X64957861Y-99186554D01*
X64703844Y-99289184D01*
X64474599Y-99439197D01*
X64278858Y-99630881D01*
X64124077Y-99856934D01*
X64086791Y-99943928D01*
X64081836Y-99930177D01*
X64019856Y-99814220D01*
X63779765Y-99747240D01*
X62993805Y-100533200D01*
X63779765Y-101319160D01*
X64019856Y-101252180D01*
X64083066Y-101117755D01*
X64105674Y-101174855D01*
X64254083Y-101405142D01*
X64444396Y-101602216D01*
X64669363Y-101758572D01*
X64920415Y-101868254D01*
X65187989Y-101927084D01*
X65461895Y-101932822D01*
X65731699Y-101885248D01*
X65987123Y-101786175D01*
X66218440Y-101639377D01*
X66416839Y-101450445D01*
X66574761Y-101226575D01*
X66623134Y-101117927D01*
X66645674Y-101174855D01*
X66794083Y-101405142D01*
X66984396Y-101602216D01*
X67209363Y-101758572D01*
X67460415Y-101868254D01*
X67727989Y-101927084D01*
X68001895Y-101932822D01*
X68271699Y-101885248D01*
X68527123Y-101786175D01*
X68758440Y-101639377D01*
X68956839Y-101450445D01*
X69114761Y-101226575D01*
X69163134Y-101117927D01*
X69185674Y-101174855D01*
X69334083Y-101405142D01*
X69524396Y-101602216D01*
X69749363Y-101758572D01*
X70000415Y-101868254D01*
X70267989Y-101927084D01*
X70541895Y-101932822D01*
X70811699Y-101885248D01*
X71067123Y-101786175D01*
X71298440Y-101639377D01*
X71446097Y-101498765D01*
X72188240Y-101498765D01*
X72255220Y-101738856D01*
X72504248Y-101855956D01*
X72771335Y-101922223D01*
X73046217Y-101935110D01*
X73318333Y-101894122D01*
X73577223Y-101800836D01*
X73693180Y-101738856D01*
X73760160Y-101498765D01*
X72974200Y-100712805D01*
X72188240Y-101498765D01*
X71446097Y-101498765D01*
X71496839Y-101450445D01*
X71654761Y-101226575D01*
X71701386Y-101121853D01*
X71706564Y-101136223D01*
X71768544Y-101252180D01*
X72008635Y-101319160D01*
X72794595Y-100533200D01*
X72008635Y-99747240D01*
X71768544Y-99814220D01*
X71704804Y-99949771D01*
X71673646Y-99874175D01*
X71522035Y-99645983D01*
X71444233Y-99567635D01*
X72188240Y-99567635D01*
X72974200Y-100353595D01*
X73760160Y-99567635D01*
X73693180Y-99327544D01*
X73444152Y-99210444D01*
X73177065Y-99144177D01*
X72902183Y-99131290D01*
X72630067Y-99172278D01*
X72371177Y-99265564D01*
X72255220Y-99327544D01*
X72188240Y-99567635D01*
X71444233Y-99567635D01*
X71328990Y-99451585D01*
X71101862Y-99298385D01*
X70849303Y-99192219D01*
X70580933Y-99137131D01*
X70306974Y-99135218D01*
X70037861Y-99186554D01*
X69783844Y-99289184D01*
X69554599Y-99439197D01*
X69358858Y-99630881D01*
X69204077Y-99856934D01*
X69164551Y-99949156D01*
X69133646Y-99874175D01*
X68982035Y-99645983D01*
X68788990Y-99451585D01*
X68654200Y-99360668D01*
X68654200Y-97393602D01*
X68736401Y-97311401D01*
X68780968Y-97257145D01*
X68826086Y-97203375D01*
X68828011Y-97199874D01*
X68830548Y-97196785D01*
X68863713Y-97134933D01*
X68897543Y-97073396D01*
X68898752Y-97069584D01*
X68900639Y-97066065D01*
X68909081Y-97038451D01*
X68999048Y-97080756D01*
X69266135Y-97147023D01*
X69541017Y-97159910D01*
X69813133Y-97118922D01*
X70072023Y-97025636D01*
X70187980Y-96963656D01*
X70254960Y-96723565D01*
X69469000Y-95937605D01*
X69454858Y-95951748D01*
X69275253Y-95772143D01*
X69289395Y-95758000D01*
X69275253Y-95743858D01*
X69454858Y-95564253D01*
X69469000Y-95578395D01*
X70254960Y-94792435D01*
X70187980Y-94552344D01*
X69938952Y-94435244D01*
X69671865Y-94368977D01*
X69396983Y-94356090D01*
X69124867Y-94397078D01*
X68959000Y-94456845D01*
X68959000Y-94104664D01*
X69195695Y-94109622D01*
X69465499Y-94062048D01*
X69720923Y-93962975D01*
X69952240Y-93816177D01*
X70150639Y-93627245D01*
X70308561Y-93403375D01*
X70356934Y-93294727D01*
X70379474Y-93351655D01*
X70527883Y-93581942D01*
X70718196Y-93779016D01*
X70943163Y-93935372D01*
X71194215Y-94045054D01*
X71461789Y-94103884D01*
X71735695Y-94109622D01*
X72005499Y-94062048D01*
X72260923Y-93962975D01*
X72492240Y-93816177D01*
X72690639Y-93627245D01*
X72848561Y-93403375D01*
X72896934Y-93294727D01*
X72919474Y-93351655D01*
X73067883Y-93581942D01*
X73258196Y-93779016D01*
X73483163Y-93935372D01*
X73734215Y-94045054D01*
X74001789Y-94103884D01*
X74275695Y-94109622D01*
X74545499Y-94062048D01*
X74800923Y-93962975D01*
X75032240Y-93816177D01*
X75230639Y-93627245D01*
X75388561Y-93403375D01*
X75436934Y-93294727D01*
X75459474Y-93351655D01*
X75607883Y-93581942D01*
X75798196Y-93779016D01*
X76023163Y-93935372D01*
X76274215Y-94045054D01*
X76541789Y-94103884D01*
X76815695Y-94109622D01*
X77085499Y-94062048D01*
X77340923Y-93962975D01*
X77572240Y-93816177D01*
X77770639Y-93627245D01*
X77928561Y-93403375D01*
X77976934Y-93294727D01*
X77999474Y-93351655D01*
X78147883Y-93581942D01*
X78338196Y-93779016D01*
X78563163Y-93935372D01*
X78814215Y-94045054D01*
X79081789Y-94103884D01*
X79355695Y-94109622D01*
X79625499Y-94062048D01*
X79758000Y-94010654D01*
X79758000Y-94107000D01*
X79764851Y-94176877D01*
X79770969Y-94246803D01*
X79772084Y-94250641D01*
X79772474Y-94254618D01*
X79792764Y-94321821D01*
X79806236Y-94368192D01*
X79775733Y-94361931D01*
X79501774Y-94360018D01*
X79232661Y-94411354D01*
X78978644Y-94513984D01*
X78749399Y-94663997D01*
X78553658Y-94855681D01*
X78398877Y-95081734D01*
X78359351Y-95173956D01*
X78328446Y-95098975D01*
X78176835Y-94870783D01*
X77983790Y-94676385D01*
X77756662Y-94523185D01*
X77504103Y-94417019D01*
X77235733Y-94361931D01*
X76961774Y-94360018D01*
X76692661Y-94411354D01*
X76438644Y-94513984D01*
X76209399Y-94663997D01*
X76013658Y-94855681D01*
X75858877Y-95081734D01*
X75819351Y-95173956D01*
X75788446Y-95098975D01*
X75636835Y-94870783D01*
X75443790Y-94676385D01*
X75216662Y-94523185D01*
X74964103Y-94417019D01*
X74695733Y-94361931D01*
X74421774Y-94360018D01*
X74152661Y-94411354D01*
X73898644Y-94513984D01*
X73669399Y-94663997D01*
X73473658Y-94855681D01*
X73318877Y-95081734D01*
X73279351Y-95173956D01*
X73248446Y-95098975D01*
X73096835Y-94870783D01*
X72903790Y-94676385D01*
X72676662Y-94523185D01*
X72424103Y-94417019D01*
X72155733Y-94361931D01*
X71881774Y-94360018D01*
X71612661Y-94411354D01*
X71358644Y-94513984D01*
X71129399Y-94663997D01*
X70933658Y-94855681D01*
X70778877Y-95081734D01*
X70741591Y-95168728D01*
X70736636Y-95154977D01*
X70674656Y-95039020D01*
X70434565Y-94972040D01*
X69648605Y-95758000D01*
X70434565Y-96543960D01*
X70674656Y-96476980D01*
X70737866Y-96342555D01*
X70760474Y-96399655D01*
X70908883Y-96629942D01*
X71099196Y-96827016D01*
X71324163Y-96983372D01*
X71575215Y-97093054D01*
X71842789Y-97151884D01*
X72116695Y-97157622D01*
X72386499Y-97110048D01*
X72641923Y-97010975D01*
X72873240Y-96864177D01*
X73071639Y-96675245D01*
X73229561Y-96451375D01*
X73277934Y-96342727D01*
X73300474Y-96399655D01*
X73448883Y-96629942D01*
X73639196Y-96827016D01*
X73864163Y-96983372D01*
X74115215Y-97093054D01*
X74382789Y-97151884D01*
X74656695Y-97157622D01*
X74926499Y-97110048D01*
X75181923Y-97010975D01*
X75413240Y-96864177D01*
X75611639Y-96675245D01*
X75769561Y-96451375D01*
X75817934Y-96342727D01*
X75840474Y-96399655D01*
X75988883Y-96629942D01*
X76179196Y-96827016D01*
X76404163Y-96983372D01*
X76655215Y-97093054D01*
X76922789Y-97151884D01*
X77196695Y-97157622D01*
X77466499Y-97110048D01*
X77721923Y-97010975D01*
X77953240Y-96864177D01*
X78151639Y-96675245D01*
X78309561Y-96451375D01*
X78357934Y-96342727D01*
X78380474Y-96399655D01*
X78528883Y-96629942D01*
X78719196Y-96827016D01*
X78944163Y-96983372D01*
X79195215Y-97093054D01*
X79462789Y-97151884D01*
X79736695Y-97157622D01*
X80006499Y-97110048D01*
X80261923Y-97010975D01*
X80493240Y-96864177D01*
X80691639Y-96675245D01*
X80849561Y-96451375D01*
X80897934Y-96342727D01*
X80920474Y-96399655D01*
X81068883Y-96629942D01*
X81259196Y-96827016D01*
X81409000Y-96931132D01*
X81409000Y-97409000D01*
X81415851Y-97478877D01*
X81421969Y-97548803D01*
X81423084Y-97552641D01*
X81423474Y-97556618D01*
X81443764Y-97623821D01*
X81463351Y-97691240D01*
X81465190Y-97694788D01*
X81466345Y-97698613D01*
X81499299Y-97760591D01*
X81531610Y-97822925D01*
X81534103Y-97826048D01*
X81535980Y-97829578D01*
X81580355Y-97883987D01*
X81624148Y-97938846D01*
X81629631Y-97944406D01*
X81629726Y-97944522D01*
X81629834Y-97944611D01*
X81631599Y-97946401D01*
X82850303Y-99165105D01*
X82737861Y-99186554D01*
X82483844Y-99289184D01*
X82254599Y-99439197D01*
X82058858Y-99630881D01*
X81904077Y-99856934D01*
X81864551Y-99949156D01*
X81833646Y-99874175D01*
X81682035Y-99645983D01*
X81488990Y-99451585D01*
X81261862Y-99298385D01*
X81009303Y-99192219D01*
X80740933Y-99137131D01*
X80466974Y-99135218D01*
X80197861Y-99186554D01*
X79943844Y-99289184D01*
X79714599Y-99439197D01*
X79518858Y-99630881D01*
X79364077Y-99856934D01*
X79324551Y-99949156D01*
X79293646Y-99874175D01*
X79142035Y-99645983D01*
X78948990Y-99451585D01*
X78721862Y-99298385D01*
X78469303Y-99192219D01*
X78200933Y-99137131D01*
X77926974Y-99135218D01*
X77657861Y-99186554D01*
X77403844Y-99289184D01*
X77174599Y-99439197D01*
X76978858Y-99630881D01*
X76824077Y-99856934D01*
X76784551Y-99949156D01*
X76753646Y-99874175D01*
X76602035Y-99645983D01*
X76408990Y-99451585D01*
X76181862Y-99298385D01*
X75929303Y-99192219D01*
X75660933Y-99137131D01*
X75386974Y-99135218D01*
X75117861Y-99186554D01*
X74863844Y-99289184D01*
X74634599Y-99439197D01*
X74438858Y-99630881D01*
X74284077Y-99856934D01*
X74246791Y-99943928D01*
X74241836Y-99930177D01*
X74179856Y-99814220D01*
X73939765Y-99747240D01*
X73153805Y-100533200D01*
X73939765Y-101319160D01*
X74179856Y-101252180D01*
X74243066Y-101117755D01*
X74265674Y-101174855D01*
X74414083Y-101405142D01*
X74604396Y-101602216D01*
X74829363Y-101758572D01*
X75080415Y-101868254D01*
X75347989Y-101927084D01*
X75621895Y-101932822D01*
X75891699Y-101885248D01*
X76147123Y-101786175D01*
X76378440Y-101639377D01*
X76576839Y-101450445D01*
X76734761Y-101226575D01*
X76783134Y-101117927D01*
X76805674Y-101174855D01*
X76954083Y-101405142D01*
X77144396Y-101602216D01*
X77369363Y-101758572D01*
X77620415Y-101868254D01*
X77887989Y-101927084D01*
X78161895Y-101932822D01*
X78431699Y-101885248D01*
X78687123Y-101786175D01*
X78918440Y-101639377D01*
X79116839Y-101450445D01*
X79274761Y-101226575D01*
X79323134Y-101117927D01*
X79345674Y-101174855D01*
X79494083Y-101405142D01*
X79684396Y-101602216D01*
X79909363Y-101758572D01*
X80160415Y-101868254D01*
X80427989Y-101927084D01*
X80701895Y-101932822D01*
X80971699Y-101885248D01*
X81227123Y-101786175D01*
X81458440Y-101639377D01*
X81656839Y-101450445D01*
X81814761Y-101226575D01*
X81863134Y-101117927D01*
X81885674Y-101174855D01*
X82034083Y-101405142D01*
X82224396Y-101602216D01*
X82449363Y-101758572D01*
X82700415Y-101868254D01*
X82967989Y-101927084D01*
X83241895Y-101932822D01*
X83511699Y-101885248D01*
X83767123Y-101786175D01*
X83998440Y-101639377D01*
X84196839Y-101450445D01*
X84354761Y-101226575D01*
X84403134Y-101117927D01*
X84425674Y-101174855D01*
X84574083Y-101405142D01*
X84764396Y-101602216D01*
X84989363Y-101758572D01*
X85240415Y-101868254D01*
X85507989Y-101927084D01*
X85781895Y-101932822D01*
X86051699Y-101885248D01*
X86307123Y-101786175D01*
X86538440Y-101639377D01*
X86736839Y-101450445D01*
X86894761Y-101226575D01*
X86943134Y-101117927D01*
X86965674Y-101174855D01*
X87114083Y-101405142D01*
X87304396Y-101602216D01*
X87529363Y-101758572D01*
X87780415Y-101868254D01*
X88047989Y-101927084D01*
X88321895Y-101932822D01*
X88591699Y-101885248D01*
X88847123Y-101786175D01*
X89078440Y-101639377D01*
X89276839Y-101450445D01*
X89434761Y-101226575D01*
X89483134Y-101117927D01*
X89505674Y-101174855D01*
X89654083Y-101405142D01*
X89844396Y-101602216D01*
X90069363Y-101758572D01*
X90320415Y-101868254D01*
X90587989Y-101927084D01*
X90861895Y-101932822D01*
X91131699Y-101885248D01*
X91387123Y-101786175D01*
X91618440Y-101639377D01*
X91816839Y-101450445D01*
X91974761Y-101226575D01*
X92023134Y-101117927D01*
X92045674Y-101174855D01*
X92194083Y-101405142D01*
X92384396Y-101602216D01*
X92609363Y-101758572D01*
X92860415Y-101868254D01*
X93127989Y-101927084D01*
X93401895Y-101932822D01*
X93671699Y-101885248D01*
X93927123Y-101786175D01*
X94158440Y-101639377D01*
X94356839Y-101450445D01*
X94514761Y-101226575D01*
X94563134Y-101117927D01*
X94585674Y-101174855D01*
X94734083Y-101405142D01*
X94924396Y-101602216D01*
X95149363Y-101758572D01*
X95400415Y-101868254D01*
X95667989Y-101927084D01*
X95941895Y-101932822D01*
X96211699Y-101885248D01*
X96467123Y-101786175D01*
X96698440Y-101639377D01*
X96896839Y-101450445D01*
X97054761Y-101226575D01*
X97103134Y-101117927D01*
X97125674Y-101174855D01*
X97274083Y-101405142D01*
X97464396Y-101602216D01*
X97689363Y-101758572D01*
X97940415Y-101868254D01*
X98207989Y-101927084D01*
X98481895Y-101932822D01*
X98751699Y-101885248D01*
X99007123Y-101786175D01*
X99238440Y-101639377D01*
X99386097Y-101498765D01*
X100128240Y-101498765D01*
X100195220Y-101738856D01*
X100444248Y-101855956D01*
X100711335Y-101922223D01*
X100986217Y-101935110D01*
X101258333Y-101894122D01*
X101517223Y-101800836D01*
X101633180Y-101738856D01*
X101700160Y-101498765D01*
X100914200Y-100712805D01*
X100128240Y-101498765D01*
X99386097Y-101498765D01*
X99436839Y-101450445D01*
X99594761Y-101226575D01*
X99641386Y-101121853D01*
X99646564Y-101136223D01*
X99708544Y-101252180D01*
X99948635Y-101319160D01*
X100734595Y-100533200D01*
X101093805Y-100533200D01*
X101879765Y-101319160D01*
X102119856Y-101252180D01*
X102236956Y-101003152D01*
X102265186Y-100889372D01*
X102298666Y-101171451D01*
X102428757Y-101571383D01*
X102586786Y-101867038D01*
X102902347Y-102023048D01*
X104214395Y-100711000D01*
X102902347Y-99398952D01*
X102586786Y-99554962D01*
X102395980Y-99929745D01*
X102291782Y-100299668D01*
X102275122Y-100189067D01*
X102181836Y-99930177D01*
X102119856Y-99814220D01*
X101879765Y-99747240D01*
X101093805Y-100533200D01*
X100734595Y-100533200D01*
X99948635Y-99747240D01*
X99708544Y-99814220D01*
X99644804Y-99949771D01*
X99613646Y-99874175D01*
X99462035Y-99645983D01*
X99384233Y-99567635D01*
X100128240Y-99567635D01*
X100914200Y-100353595D01*
X101700160Y-99567635D01*
X101633180Y-99327544D01*
X101403086Y-99219347D01*
X103081952Y-99219347D01*
X104394000Y-100531395D01*
X105706048Y-99219347D01*
X105550038Y-98903786D01*
X105175255Y-98712980D01*
X104770449Y-98598956D01*
X104351176Y-98566098D01*
X103933549Y-98615666D01*
X103533617Y-98745757D01*
X103237962Y-98903786D01*
X103081952Y-99219347D01*
X101403086Y-99219347D01*
X101384152Y-99210444D01*
X101117065Y-99144177D01*
X100842183Y-99131290D01*
X100570067Y-99172278D01*
X100311177Y-99265564D01*
X100195220Y-99327544D01*
X100128240Y-99567635D01*
X99384233Y-99567635D01*
X99268990Y-99451585D01*
X99041862Y-99298385D01*
X98789303Y-99192219D01*
X98520933Y-99137131D01*
X98246974Y-99135218D01*
X98082412Y-99166610D01*
X97438401Y-98522599D01*
X97384145Y-98478032D01*
X97330375Y-98432914D01*
X97326874Y-98430989D01*
X97323785Y-98428452D01*
X97261933Y-98395287D01*
X97200396Y-98361457D01*
X97196584Y-98360248D01*
X97193065Y-98358361D01*
X97125969Y-98337848D01*
X97059013Y-98316608D01*
X97055041Y-98316162D01*
X97051219Y-98314994D01*
X96981351Y-98307897D01*
X96911611Y-98300074D01*
X96903806Y-98300020D01*
X96903653Y-98300004D01*
X96903510Y-98300018D01*
X96901000Y-98300000D01*
X84134802Y-98300000D01*
X83797578Y-97962776D01*
X83892079Y-97964755D01*
X84072657Y-97932914D01*
X84243610Y-97866606D01*
X84367473Y-97788000D01*
X90424000Y-97788000D01*
X90493877Y-97781149D01*
X90563803Y-97775031D01*
X90567641Y-97773916D01*
X90571618Y-97773526D01*
X90638821Y-97753236D01*
X90706240Y-97733649D01*
X90709788Y-97731810D01*
X90713613Y-97730655D01*
X90775591Y-97697701D01*
X90837925Y-97665390D01*
X90841048Y-97662897D01*
X90844578Y-97661020D01*
X90898987Y-97616645D01*
X90953846Y-97572852D01*
X90959406Y-97567369D01*
X90959522Y-97567274D01*
X90959611Y-97567166D01*
X90961401Y-97565401D01*
X91584734Y-96942068D01*
X91644163Y-96983372D01*
X91895215Y-97093054D01*
X92162789Y-97151884D01*
X92436695Y-97157622D01*
X92706499Y-97110048D01*
X92961923Y-97010975D01*
X93193240Y-96864177D01*
X93391639Y-96675245D01*
X93549561Y-96451375D01*
X93597934Y-96342727D01*
X93620474Y-96399655D01*
X93768883Y-96629942D01*
X93959196Y-96827016D01*
X94184163Y-96983372D01*
X94435215Y-97093054D01*
X94702789Y-97151884D01*
X94976695Y-97157622D01*
X95246499Y-97110048D01*
X95501923Y-97010975D01*
X95733240Y-96864177D01*
X95931639Y-96675245D01*
X96089561Y-96451375D01*
X96137934Y-96342727D01*
X96160474Y-96399655D01*
X96308883Y-96629942D01*
X96499196Y-96827016D01*
X96724163Y-96983372D01*
X96975215Y-97093054D01*
X97242789Y-97151884D01*
X97516695Y-97157622D01*
X97786499Y-97110048D01*
X98041923Y-97010975D01*
X98273240Y-96864177D01*
X98471639Y-96675245D01*
X98629561Y-96451375D01*
X98740993Y-96201095D01*
X98801690Y-95933938D01*
X98806059Y-95621017D01*
X98752846Y-95352269D01*
X98648446Y-95098975D01*
X98496835Y-94870783D01*
X98303790Y-94676385D01*
X98076662Y-94523185D01*
X97824103Y-94417019D01*
X97555733Y-94361931D01*
X97281774Y-94360018D01*
X97012661Y-94411354D01*
X96758644Y-94513984D01*
X96529399Y-94663997D01*
X96333658Y-94855681D01*
X96178877Y-95081734D01*
X96139351Y-95173956D01*
X96108446Y-95098975D01*
X95956835Y-94870783D01*
X95763790Y-94676385D01*
X95536662Y-94523185D01*
X95284103Y-94417019D01*
X95015733Y-94361931D01*
X94741774Y-94360018D01*
X94472661Y-94411354D01*
X94218644Y-94513984D01*
X93989399Y-94663997D01*
X93793658Y-94855681D01*
X93638877Y-95081734D01*
X93599351Y-95173956D01*
X93568446Y-95098975D01*
X93416835Y-94870783D01*
X93223790Y-94676385D01*
X92996662Y-94523185D01*
X92744103Y-94417019D01*
X92475733Y-94361931D01*
X92387487Y-94361315D01*
X94978237Y-91770565D01*
X100687040Y-91770565D01*
X100754020Y-92010656D01*
X101003048Y-92127756D01*
X101270135Y-92194023D01*
X101545017Y-92206910D01*
X101817133Y-92165922D01*
X102076023Y-92072636D01*
X102191980Y-92010656D01*
X102258960Y-91770565D01*
X101473000Y-90984605D01*
X100687040Y-91770565D01*
X94978237Y-91770565D01*
X95871785Y-90877017D01*
X100071090Y-90877017D01*
X100112078Y-91149133D01*
X100205364Y-91408023D01*
X100267344Y-91523980D01*
X100507435Y-91590960D01*
X101293395Y-90805000D01*
X101652605Y-90805000D01*
X102438565Y-91590960D01*
X102678656Y-91523980D01*
X102795756Y-91274952D01*
X102862023Y-91007865D01*
X102874910Y-90732983D01*
X102833922Y-90460867D01*
X102740636Y-90201977D01*
X102678656Y-90086020D01*
X102438565Y-90019040D01*
X101652605Y-90805000D01*
X101293395Y-90805000D01*
X100507435Y-90019040D01*
X100267344Y-90086020D01*
X100150244Y-90335048D01*
X100083977Y-90602135D01*
X100071090Y-90877017D01*
X95871785Y-90877017D01*
X97723802Y-89025000D01*
X100300742Y-89025000D01*
X100372883Y-89136942D01*
X100563196Y-89334016D01*
X100788163Y-89490372D01*
X100884086Y-89532280D01*
X100869977Y-89537364D01*
X100754020Y-89599344D01*
X100687040Y-89839435D01*
X101473000Y-90625395D01*
X102258960Y-89839435D01*
X102191980Y-89599344D01*
X102058257Y-89536464D01*
X102105923Y-89517975D01*
X102337240Y-89371177D01*
X102535639Y-89182245D01*
X102693561Y-88958375D01*
X102804993Y-88708095D01*
X102865690Y-88440938D01*
X102870059Y-88128017D01*
X102816846Y-87859269D01*
X102712446Y-87605975D01*
X102560835Y-87377783D01*
X102367790Y-87183385D01*
X102140662Y-87030185D01*
X102059393Y-86996023D01*
X102105923Y-86977975D01*
X102337240Y-86831177D01*
X102535639Y-86642245D01*
X102693561Y-86418375D01*
X102804993Y-86168095D01*
X102865690Y-85900938D01*
X102870059Y-85588017D01*
X102816846Y-85319269D01*
X102712446Y-85065975D01*
X102560835Y-84837783D01*
X102367790Y-84643385D01*
X102140662Y-84490185D01*
X102059393Y-84456023D01*
X102105923Y-84437975D01*
X102337240Y-84291177D01*
X102535639Y-84102245D01*
X102693561Y-83878375D01*
X102804993Y-83628095D01*
X102865690Y-83360938D01*
X102870059Y-83048017D01*
X102816846Y-82779269D01*
X102712446Y-82525975D01*
X102560835Y-82297783D01*
X102367790Y-82103385D01*
X102140662Y-81950185D01*
X101888103Y-81844019D01*
X101619733Y-81788931D01*
X101345774Y-81787018D01*
X101181212Y-81818410D01*
X100074000Y-80711198D01*
X100074000Y-79502000D01*
X100067148Y-79432119D01*
X100061031Y-79362197D01*
X100059916Y-79358359D01*
X100059526Y-79354382D01*
X100039236Y-79287179D01*
X100019649Y-79219760D01*
X100017810Y-79216212D01*
X100016655Y-79212387D01*
X99983701Y-79150409D01*
X99951390Y-79088075D01*
X99948897Y-79084952D01*
X99947020Y-79081422D01*
X99902645Y-79027013D01*
X99858852Y-78972154D01*
X99853369Y-78966594D01*
X99853274Y-78966478D01*
X99853166Y-78966389D01*
X99851401Y-78964599D01*
X98835401Y-77948599D01*
X98781145Y-77904032D01*
X98727375Y-77858914D01*
X98723874Y-77856989D01*
X98720785Y-77854452D01*
X98658933Y-77821287D01*
X98597396Y-77787457D01*
X98593584Y-77786248D01*
X98590065Y-77784361D01*
X98522969Y-77763848D01*
X98456013Y-77742608D01*
X98452041Y-77742162D01*
X98448219Y-77740994D01*
X98378351Y-77733897D01*
X98308611Y-77726074D01*
X98300806Y-77726020D01*
X98300653Y-77726004D01*
X98300510Y-77726018D01*
X98298000Y-77726000D01*
X96775018Y-77726000D01*
X96857980Y-77681656D01*
X96924960Y-77441565D01*
X96139000Y-76655605D01*
X96124858Y-76669748D01*
X95945253Y-76490143D01*
X95959395Y-76476000D01*
X95945253Y-76461858D01*
X96124858Y-76282253D01*
X96139000Y-76296395D01*
X96153143Y-76282253D01*
X96332748Y-76461858D01*
X96318605Y-76476000D01*
X97104565Y-77261960D01*
X97344656Y-77194980D01*
X97461756Y-76945952D01*
X97528023Y-76678865D01*
X97535817Y-76512619D01*
X98036599Y-77013401D01*
X98090855Y-77057968D01*
X98144625Y-77103086D01*
X98148126Y-77105011D01*
X98151215Y-77107548D01*
X98213067Y-77140713D01*
X98274604Y-77174543D01*
X98278416Y-77175752D01*
X98281935Y-77177639D01*
X98349031Y-77198152D01*
X98415987Y-77219392D01*
X98419959Y-77219838D01*
X98423781Y-77221006D01*
X98493649Y-77228103D01*
X98563389Y-77235926D01*
X98571194Y-77235980D01*
X98571347Y-77235996D01*
X98571490Y-77235982D01*
X98574000Y-77236000D01*
X100046742Y-77236000D01*
X100118883Y-77347942D01*
X100309196Y-77545016D01*
X100534163Y-77701372D01*
X100785215Y-77811054D01*
X101052789Y-77869884D01*
X101326695Y-77875622D01*
X101596499Y-77828048D01*
X101851923Y-77728975D01*
X102083240Y-77582177D01*
X102281639Y-77393245D01*
X102439561Y-77169375D01*
X102550993Y-76919095D01*
X102611690Y-76651938D01*
X102616059Y-76339017D01*
X102562846Y-76070269D01*
X102458446Y-75816975D01*
X102360000Y-75668802D01*
X102360000Y-70866000D01*
X102353149Y-70796123D01*
X102347031Y-70726197D01*
X102345916Y-70722359D01*
X102345526Y-70718382D01*
X102325236Y-70651179D01*
X102305649Y-70583760D01*
X102303810Y-70580212D01*
X102302655Y-70576387D01*
X102269691Y-70514390D01*
X102237389Y-70452074D01*
X102234897Y-70448953D01*
X102233020Y-70445422D01*
X102188641Y-70391007D01*
X102144852Y-70336154D01*
X102139369Y-70330594D01*
X102139274Y-70330478D01*
X102139166Y-70330389D01*
X102137401Y-70328599D01*
X100867401Y-69058599D01*
X100813145Y-69014032D01*
X100759375Y-68968914D01*
X100755874Y-68966989D01*
X100752785Y-68964452D01*
X100690933Y-68931287D01*
X100629396Y-68897457D01*
X100625584Y-68896248D01*
X100622065Y-68894361D01*
X100554969Y-68873848D01*
X100488013Y-68852608D01*
X100484041Y-68852162D01*
X100480219Y-68850994D01*
X100410351Y-68843897D01*
X100340611Y-68836074D01*
X100332806Y-68836020D01*
X100332653Y-68836004D01*
X100332510Y-68836018D01*
X100330000Y-68836000D01*
X98104802Y-68836000D01*
X97465490Y-68196688D01*
X97485215Y-68177904D01*
X97590911Y-68028070D01*
X97665492Y-67860560D01*
X97706116Y-67681754D01*
X97709040Y-67472319D01*
X97673425Y-67292448D01*
X97603550Y-67122920D01*
X97502079Y-66970193D01*
X97453432Y-66921205D01*
X97455785Y-66920230D01*
X97536000Y-66866632D01*
X97616215Y-66920230D01*
X97731777Y-66968097D01*
X97854458Y-66992500D01*
X97885250Y-66992500D01*
X98044000Y-66833750D01*
X98044000Y-65913000D01*
X98298000Y-65913000D01*
X98298000Y-66833750D01*
X98456750Y-66992500D01*
X98487542Y-66992500D01*
X98610223Y-66968097D01*
X98725785Y-66920230D01*
X98806000Y-66866632D01*
X98886215Y-66920230D01*
X99001777Y-66968097D01*
X99124458Y-66992500D01*
X99155250Y-66992500D01*
X99314000Y-66833750D01*
X99314000Y-65913000D01*
X99568000Y-65913000D01*
X99568000Y-66833750D01*
X99726750Y-66992500D01*
X99757542Y-66992500D01*
X99880223Y-66968097D01*
X99995785Y-66920230D01*
X100076000Y-66866632D01*
X100156215Y-66920230D01*
X100271777Y-66968097D01*
X100394458Y-66992500D01*
X100425250Y-66992500D01*
X100584000Y-66833750D01*
X100584000Y-65913000D01*
X100838000Y-65913000D01*
X100838000Y-66833750D01*
X100996750Y-66992500D01*
X101027542Y-66992500D01*
X101150223Y-66968097D01*
X101265785Y-66920230D01*
X101369789Y-66850737D01*
X101458237Y-66762289D01*
X101527730Y-66658285D01*
X101575597Y-66542723D01*
X101600000Y-66420042D01*
X101600000Y-66071750D01*
X101441250Y-65913000D01*
X100838000Y-65913000D01*
X100584000Y-65913000D01*
X99568000Y-65913000D01*
X99314000Y-65913000D01*
X98298000Y-65913000D01*
X98044000Y-65913000D01*
X97028000Y-65913000D01*
X97028000Y-65933000D01*
X96899000Y-65933000D01*
X96899000Y-64738250D01*
X97028000Y-64738250D01*
X97028000Y-65659000D01*
X98044000Y-65659000D01*
X98044000Y-64738250D01*
X98298000Y-64738250D01*
X98298000Y-65659000D01*
X99314000Y-65659000D01*
X99314000Y-64738250D01*
X99568000Y-64738250D01*
X99568000Y-65659000D01*
X100584000Y-65659000D01*
X100584000Y-64738250D01*
X100838000Y-64738250D01*
X100838000Y-65659000D01*
X101441250Y-65659000D01*
X101600000Y-65500250D01*
X101600000Y-65151958D01*
X101575597Y-65029277D01*
X101527730Y-64913715D01*
X101458237Y-64809711D01*
X101369789Y-64721263D01*
X101265785Y-64651770D01*
X101150223Y-64603903D01*
X101027542Y-64579500D01*
X100996750Y-64579500D01*
X100838000Y-64738250D01*
X100584000Y-64738250D01*
X100425250Y-64579500D01*
X100394458Y-64579500D01*
X100271777Y-64603903D01*
X100156215Y-64651770D01*
X100076000Y-64705368D01*
X99995785Y-64651770D01*
X99880223Y-64603903D01*
X99757542Y-64579500D01*
X99726750Y-64579500D01*
X99568000Y-64738250D01*
X99314000Y-64738250D01*
X99155250Y-64579500D01*
X99124458Y-64579500D01*
X99001777Y-64603903D01*
X98886215Y-64651770D01*
X98806000Y-64705368D01*
X98725785Y-64651770D01*
X98610223Y-64603903D01*
X98487542Y-64579500D01*
X98456750Y-64579500D01*
X98298000Y-64738250D01*
X98044000Y-64738250D01*
X97885250Y-64579500D01*
X97854458Y-64579500D01*
X97731777Y-64603903D01*
X97616215Y-64651770D01*
X97536000Y-64705368D01*
X97455785Y-64651770D01*
X97340223Y-64603903D01*
X97217542Y-64579500D01*
X97186750Y-64579500D01*
X97028000Y-64738250D01*
X96899000Y-64738250D01*
X96899000Y-63148330D01*
X97003240Y-63082177D01*
X97150897Y-62941565D01*
X97893040Y-62941565D01*
X97960020Y-63181656D01*
X98209048Y-63298756D01*
X98476135Y-63365023D01*
X98751017Y-63377910D01*
X99023133Y-63336922D01*
X99282023Y-63243636D01*
X99397980Y-63181656D01*
X99464960Y-62941565D01*
X98679000Y-62155605D01*
X97893040Y-62941565D01*
X97150897Y-62941565D01*
X97201639Y-62893245D01*
X97359561Y-62669375D01*
X97406186Y-62564653D01*
X97411364Y-62579023D01*
X97473344Y-62694980D01*
X97713435Y-62761960D01*
X98499395Y-61976000D01*
X98858605Y-61976000D01*
X99644565Y-62761960D01*
X99884656Y-62694980D01*
X99947866Y-62560555D01*
X99970474Y-62617655D01*
X100118883Y-62847942D01*
X100309196Y-63045016D01*
X100534163Y-63201372D01*
X100785215Y-63311054D01*
X101052789Y-63369884D01*
X101326695Y-63375622D01*
X101596499Y-63328048D01*
X101851923Y-63228975D01*
X102083240Y-63082177D01*
X102281639Y-62893245D01*
X102439561Y-62669375D01*
X102550993Y-62419095D01*
X102611690Y-62151938D01*
X102616059Y-61839017D01*
X102562846Y-61570269D01*
X102458446Y-61316975D01*
X102306835Y-61088783D01*
X102113790Y-60894385D01*
X101886662Y-60741185D01*
X101634103Y-60635019D01*
X101365733Y-60579931D01*
X101091774Y-60578018D01*
X100822661Y-60629354D01*
X100568644Y-60731984D01*
X100339399Y-60881997D01*
X100143658Y-61073681D01*
X99988877Y-61299734D01*
X99951591Y-61386728D01*
X99946636Y-61372977D01*
X99884656Y-61257020D01*
X99644565Y-61190040D01*
X98858605Y-61976000D01*
X98499395Y-61976000D01*
X97713435Y-61190040D01*
X97473344Y-61257020D01*
X97409604Y-61392571D01*
X97378446Y-61316975D01*
X97226835Y-61088783D01*
X97149033Y-61010435D01*
X97893040Y-61010435D01*
X98679000Y-61796395D01*
X99464960Y-61010435D01*
X99397980Y-60770344D01*
X99148952Y-60653244D01*
X98881865Y-60586977D01*
X98606983Y-60574090D01*
X98334867Y-60615078D01*
X98075977Y-60708364D01*
X97960020Y-60770344D01*
X97893040Y-61010435D01*
X97149033Y-61010435D01*
X97033790Y-60894385D01*
X96806662Y-60741185D01*
X96554103Y-60635019D01*
X96285733Y-60579931D01*
X96011774Y-60578018D01*
X95847212Y-60609410D01*
X95279401Y-60041599D01*
X95225145Y-59997032D01*
X95171375Y-59951914D01*
X95167874Y-59949989D01*
X95164785Y-59947452D01*
X95102933Y-59914287D01*
X95041396Y-59880457D01*
X95037584Y-59879248D01*
X95034065Y-59877361D01*
X94966969Y-59856848D01*
X94900013Y-59835608D01*
X94896041Y-59835162D01*
X94892219Y-59833994D01*
X94822351Y-59826897D01*
X94752611Y-59819074D01*
X94744806Y-59819020D01*
X94744653Y-59819004D01*
X94744510Y-59819018D01*
X94742000Y-59819000D01*
X93147802Y-59819000D01*
X94893407Y-58073395D01*
X94922385Y-58064866D01*
X95181578Y-57929363D01*
X95409515Y-57746097D01*
X95597515Y-57522048D01*
X95630299Y-57462413D01*
X95652784Y-57504701D01*
X95837637Y-57731353D01*
X96062994Y-57917784D01*
X96320269Y-58056892D01*
X96599665Y-58143379D01*
X96890538Y-58173951D01*
X97181810Y-58147444D01*
X97462385Y-58064866D01*
X97721578Y-57929363D01*
X97949515Y-57746097D01*
X98137515Y-57522048D01*
X98171556Y-57460128D01*
X98322514Y-57666729D01*
X98538965Y-57865733D01*
X98790081Y-58018686D01*
X99066211Y-58119709D01*
X99081974Y-58122358D01*
X99314000Y-58001217D01*
X99314000Y-56642000D01*
X99568000Y-56642000D01*
X99568000Y-58001217D01*
X99800026Y-58122358D01*
X99815789Y-58119709D01*
X100091919Y-58018686D01*
X100343035Y-57865733D01*
X100559486Y-57666729D01*
X100732954Y-57429321D01*
X100856773Y-57162633D01*
X100926185Y-56876914D01*
X100781925Y-56642000D01*
X99568000Y-56642000D01*
X99314000Y-56642000D01*
X99294000Y-56642000D01*
X99294000Y-56388000D01*
X99314000Y-56388000D01*
X99314000Y-55028783D01*
X99568000Y-55028783D01*
X99568000Y-56388000D01*
X100781925Y-56388000D01*
X100926185Y-56153086D01*
X100856773Y-55867367D01*
X100732954Y-55600679D01*
X100597155Y-55414824D01*
X102503098Y-55414824D01*
X102552666Y-55832451D01*
X102682757Y-56232383D01*
X102840786Y-56528038D01*
X103156347Y-56684048D01*
X104468395Y-55372000D01*
X103156347Y-54059952D01*
X102840786Y-54215962D01*
X102649980Y-54590745D01*
X102535956Y-54995551D01*
X102503098Y-55414824D01*
X100597155Y-55414824D01*
X100559486Y-55363271D01*
X100343035Y-55164267D01*
X100091919Y-55011314D01*
X99815789Y-54910291D01*
X99800026Y-54907642D01*
X99568000Y-55028783D01*
X99314000Y-55028783D01*
X99081974Y-54907642D01*
X99066211Y-54910291D01*
X98790081Y-55011314D01*
X98538965Y-55164267D01*
X98322514Y-55363271D01*
X98172343Y-55568795D01*
X98149216Y-55525299D01*
X97964363Y-55298647D01*
X97739006Y-55112216D01*
X97481731Y-54973108D01*
X97202335Y-54886621D01*
X96911462Y-54856049D01*
X96620190Y-54882556D01*
X96339615Y-54965134D01*
X96080422Y-55100637D01*
X95852485Y-55283903D01*
X95664485Y-55507952D01*
X95631701Y-55567587D01*
X95609216Y-55525299D01*
X95424363Y-55298647D01*
X95199006Y-55112216D01*
X94941731Y-54973108D01*
X94662335Y-54886621D01*
X94371462Y-54856049D01*
X94080190Y-54882556D01*
X93799615Y-54965134D01*
X93540422Y-55100637D01*
X93312485Y-55283903D01*
X93124485Y-55507952D01*
X93091701Y-55567587D01*
X93069216Y-55525299D01*
X92884363Y-55298647D01*
X92659006Y-55112216D01*
X92401731Y-54973108D01*
X92122335Y-54886621D01*
X91831462Y-54856049D01*
X91540190Y-54882556D01*
X91259615Y-54965134D01*
X91000422Y-55100637D01*
X90772485Y-55283903D01*
X90584485Y-55507952D01*
X90551701Y-55567587D01*
X90529216Y-55525299D01*
X90344363Y-55298647D01*
X90119006Y-55112216D01*
X89861731Y-54973108D01*
X89582335Y-54886621D01*
X89291462Y-54856049D01*
X89000190Y-54882556D01*
X88719615Y-54965134D01*
X88460422Y-55100637D01*
X88232485Y-55283903D01*
X88208255Y-55312780D01*
X88181494Y-55226366D01*
X88082700Y-55076441D01*
X87946050Y-54959975D01*
X87782363Y-54886190D01*
X87604600Y-54860928D01*
X85877400Y-54860928D01*
X85776279Y-54868992D01*
X85604766Y-54922106D01*
X85454841Y-55020900D01*
X85338375Y-55157550D01*
X85264590Y-55321237D01*
X85239328Y-55499000D01*
X85239328Y-57531000D01*
X85247392Y-57632121D01*
X85300506Y-57803634D01*
X85399300Y-57953559D01*
X85535950Y-58070025D01*
X85699637Y-58143810D01*
X85877400Y-58169072D01*
X85981000Y-58169072D01*
X85981000Y-58240928D01*
X85275000Y-58240928D01*
X85173879Y-58248992D01*
X85002366Y-58302106D01*
X84852441Y-58400900D01*
X84735975Y-58537550D01*
X84662190Y-58701237D01*
X84659666Y-58719000D01*
X84539000Y-58719000D01*
X84469123Y-58725851D01*
X84399197Y-58731969D01*
X84395359Y-58733084D01*
X84391382Y-58733474D01*
X84324179Y-58753764D01*
X84256760Y-58773351D01*
X84253212Y-58775190D01*
X84249387Y-58776345D01*
X84187409Y-58809299D01*
X84125075Y-58841610D01*
X84121952Y-58844103D01*
X84118422Y-58845980D01*
X84064013Y-58890355D01*
X84009154Y-58934148D01*
X84003594Y-58939631D01*
X84003478Y-58939726D01*
X84003389Y-58939834D01*
X84001599Y-58941599D01*
X81981198Y-60962000D01*
X78794608Y-60962000D01*
X78689567Y-60856959D01*
X78929656Y-60789980D01*
X79046756Y-60540952D01*
X79113023Y-60273865D01*
X79125910Y-59998983D01*
X79084922Y-59726867D01*
X78991636Y-59467977D01*
X78929656Y-59352020D01*
X78689565Y-59285040D01*
X77903605Y-60071000D01*
X77917748Y-60085143D01*
X77738143Y-60264748D01*
X77724000Y-60250605D01*
X77709858Y-60264748D01*
X77530253Y-60085143D01*
X77544395Y-60071000D01*
X76758435Y-59285040D01*
X76518344Y-59352020D01*
X76401244Y-59601048D01*
X76334977Y-59868135D01*
X76322090Y-60143017D01*
X76363078Y-60415133D01*
X76456364Y-60674023D01*
X76518344Y-60789980D01*
X76758433Y-60856959D01*
X76653392Y-60962000D01*
X74482802Y-60962000D01*
X74044072Y-60523270D01*
X74044072Y-59309000D01*
X74036008Y-59207879D01*
X74004284Y-59105435D01*
X76938040Y-59105435D01*
X77724000Y-59891395D01*
X78509960Y-59105435D01*
X78442980Y-58865344D01*
X78193952Y-58748244D01*
X77926865Y-58681977D01*
X77651983Y-58669090D01*
X77379867Y-58710078D01*
X77120977Y-58803364D01*
X77005020Y-58865344D01*
X76938040Y-59105435D01*
X74004284Y-59105435D01*
X73982894Y-59036366D01*
X73884100Y-58886441D01*
X73747450Y-58769975D01*
X73583763Y-58696190D01*
X73406000Y-58670928D01*
X71882000Y-58670928D01*
X71780879Y-58678992D01*
X71609366Y-58732106D01*
X71459441Y-58830900D01*
X71342975Y-58967550D01*
X71269190Y-59131237D01*
X71243928Y-59309000D01*
X71243928Y-60833000D01*
X71251992Y-60934121D01*
X71305106Y-61105634D01*
X71403900Y-61255559D01*
X71540550Y-61372025D01*
X71704237Y-61445810D01*
X71882000Y-61471072D01*
X72842270Y-61471072D01*
X73630599Y-62259401D01*
X73684855Y-62303968D01*
X73738625Y-62349086D01*
X73742126Y-62351011D01*
X73745215Y-62353548D01*
X73807067Y-62386713D01*
X73868604Y-62420543D01*
X73872416Y-62421752D01*
X73875935Y-62423639D01*
X73943043Y-62444156D01*
X74009987Y-62465392D01*
X74013958Y-62465837D01*
X74017780Y-62467006D01*
X74087610Y-62474099D01*
X74157389Y-62481926D01*
X74165204Y-62481981D01*
X74165347Y-62481995D01*
X74165480Y-62481982D01*
X74168000Y-62482000D01*
X75498428Y-62482000D01*
X75498428Y-62865000D01*
X75506492Y-62966121D01*
X75554455Y-63121000D01*
X69396159Y-63121000D01*
X69305875Y-63030084D01*
X69153860Y-62927549D01*
X68984825Y-62856493D01*
X68805207Y-62819623D01*
X68621849Y-62818343D01*
X68441733Y-62852701D01*
X68271722Y-62921390D01*
X68118291Y-63021793D01*
X67987283Y-63150086D01*
X67883689Y-63301381D01*
X67811454Y-63469916D01*
X67773331Y-63649272D01*
X67770771Y-63832617D01*
X67803872Y-64012968D01*
X67831092Y-64081718D01*
X67756689Y-64190381D01*
X67684454Y-64358916D01*
X67646331Y-64538272D01*
X67643771Y-64721617D01*
X67676872Y-64901968D01*
X67744372Y-65072454D01*
X67843701Y-65226583D01*
X67971076Y-65358484D01*
X68121644Y-65463131D01*
X68289671Y-65536540D01*
X68468757Y-65575915D01*
X68652079Y-65579755D01*
X68832657Y-65547914D01*
X69003610Y-65481606D01*
X69127473Y-65403000D01*
X74170000Y-65403000D01*
X74170000Y-65532000D01*
X74176851Y-65601877D01*
X74182969Y-65671803D01*
X74184084Y-65675641D01*
X74184474Y-65679618D01*
X74204764Y-65746821D01*
X74224351Y-65814240D01*
X74226190Y-65817788D01*
X74227345Y-65821613D01*
X74260299Y-65883591D01*
X74292610Y-65945925D01*
X74295103Y-65949048D01*
X74296980Y-65952578D01*
X74341355Y-66006987D01*
X74385148Y-66061846D01*
X74390631Y-66067406D01*
X74390726Y-66067522D01*
X74390834Y-66067611D01*
X74392599Y-66069401D01*
X75281599Y-66958401D01*
X75335855Y-67002968D01*
X75389625Y-67048086D01*
X75393126Y-67050011D01*
X75396215Y-67052548D01*
X75458102Y-67085732D01*
X75519604Y-67119543D01*
X75523412Y-67120751D01*
X75526935Y-67122640D01*
X75594077Y-67143167D01*
X75660987Y-67164392D01*
X75664959Y-67164838D01*
X75668781Y-67166006D01*
X75738649Y-67173103D01*
X75748308Y-67174187D01*
X75795050Y-67214025D01*
X75958737Y-67287810D01*
X76136500Y-67313072D01*
X77279500Y-67313072D01*
X77380621Y-67305008D01*
X77552134Y-67251894D01*
X77702059Y-67153100D01*
X77726000Y-67125010D01*
X77726000Y-72837198D01*
X76317399Y-74245799D01*
X76293079Y-74209193D01*
X76163875Y-74079084D01*
X76011860Y-73976549D01*
X75842825Y-73905493D01*
X75663207Y-73868623D01*
X75479849Y-73867343D01*
X75437786Y-73875367D01*
X75438081Y-73854205D01*
X75365517Y-73487730D01*
X75223153Y-73142330D01*
X75016412Y-72831159D01*
X74753168Y-72566070D01*
X74443448Y-72357162D01*
X74099049Y-72212390D01*
X73733090Y-72137269D01*
X73359510Y-72134661D01*
X72992537Y-72204665D01*
X72646151Y-72344614D01*
X72388000Y-72513543D01*
X72388000Y-70866000D01*
X72381149Y-70796123D01*
X72375031Y-70726197D01*
X72373916Y-70722359D01*
X72373526Y-70718382D01*
X72353236Y-70651179D01*
X72333649Y-70583760D01*
X72331810Y-70580212D01*
X72330655Y-70576387D01*
X72297712Y-70514429D01*
X72265390Y-70452074D01*
X72262895Y-70448949D01*
X72261020Y-70445422D01*
X72261000Y-70445397D01*
X72261000Y-70386278D01*
X72292358Y-70418750D01*
X72599131Y-70631962D01*
X72941474Y-70781529D01*
X73306349Y-70861751D01*
X73679857Y-70869575D01*
X74047771Y-70804702D01*
X74396077Y-70669603D01*
X74711510Y-70469424D01*
X74982053Y-70211789D01*
X75197402Y-69906512D01*
X75349355Y-69565221D01*
X75432123Y-69200915D01*
X75438081Y-68774205D01*
X75365517Y-68407730D01*
X75223153Y-68062330D01*
X75016412Y-67751159D01*
X74753168Y-67486070D01*
X74443448Y-67277162D01*
X74296170Y-67215252D01*
X74349911Y-67139070D01*
X74424492Y-66971560D01*
X74465116Y-66792754D01*
X74468040Y-66583319D01*
X74432425Y-66403448D01*
X74362550Y-66233920D01*
X74261079Y-66081193D01*
X74131875Y-65951084D01*
X73979860Y-65848549D01*
X73810825Y-65777493D01*
X73631207Y-65740623D01*
X73447849Y-65739343D01*
X73267733Y-65773701D01*
X73097722Y-65842390D01*
X72986763Y-65915000D01*
X70993000Y-65915000D01*
X70923073Y-65921856D01*
X70853197Y-65927970D01*
X70849364Y-65929084D01*
X70845382Y-65929474D01*
X70778138Y-65949776D01*
X70710760Y-65969351D01*
X70707212Y-65971190D01*
X70703387Y-65972345D01*
X70641390Y-66005309D01*
X70579074Y-66037611D01*
X70575953Y-66040103D01*
X70572422Y-66041980D01*
X70518007Y-66086359D01*
X70463154Y-66130148D01*
X70457594Y-66135631D01*
X70457478Y-66135726D01*
X70457389Y-66135834D01*
X70455599Y-66137599D01*
X69947599Y-66645599D01*
X69903032Y-66699855D01*
X69857914Y-66753625D01*
X69855989Y-66757126D01*
X69853452Y-66760215D01*
X69820287Y-66822067D01*
X69786457Y-66883604D01*
X69785248Y-66887416D01*
X69783361Y-66890935D01*
X69762848Y-66958031D01*
X69741608Y-67024987D01*
X69741162Y-67028959D01*
X69739994Y-67032781D01*
X69732897Y-67102649D01*
X69725074Y-67172389D01*
X69725020Y-67180194D01*
X69725004Y-67180347D01*
X69725018Y-67180490D01*
X69725000Y-67183000D01*
X69725000Y-73980198D01*
X68392198Y-75313000D01*
X66607167Y-75313000D01*
X66648057Y-75214283D01*
X66672460Y-75091602D01*
X66672460Y-73564750D01*
X66513710Y-73406000D01*
X64414400Y-73406000D01*
X64414400Y-73426000D01*
X64160400Y-73426000D01*
X64160400Y-73406000D01*
X62061090Y-73406000D01*
X61902340Y-73564750D01*
X61902340Y-75091602D01*
X61926743Y-75214283D01*
X61967633Y-75313000D01*
X60579000Y-75313000D01*
X60509115Y-75319852D01*
X60439198Y-75325969D01*
X60435360Y-75327084D01*
X60431382Y-75327474D01*
X60364200Y-75347757D01*
X60296761Y-75367350D01*
X60293210Y-75369191D01*
X60289387Y-75370345D01*
X60227426Y-75403290D01*
X60165075Y-75435610D01*
X60161952Y-75438103D01*
X60158422Y-75439980D01*
X60103989Y-75484375D01*
X60049155Y-75528148D01*
X60043596Y-75533630D01*
X60043478Y-75533726D01*
X60043388Y-75533835D01*
X60041599Y-75535599D01*
X58390599Y-77186599D01*
X58346032Y-77240855D01*
X58300914Y-77294625D01*
X58298989Y-77298126D01*
X58296452Y-77301215D01*
X58263287Y-77363067D01*
X58229457Y-77424604D01*
X58228248Y-77428416D01*
X58226361Y-77431935D01*
X58205848Y-77499031D01*
X58188260Y-77554475D01*
X58048399Y-77645997D01*
X57852658Y-77837681D01*
X57697877Y-78063734D01*
X57631800Y-78217903D01*
X57631800Y-68865750D01*
X58902600Y-68865750D01*
X58902600Y-70392602D01*
X58927003Y-70515283D01*
X58974870Y-70630845D01*
X59044363Y-70734849D01*
X59132811Y-70823297D01*
X59236815Y-70892790D01*
X59352377Y-70940657D01*
X59475058Y-70965060D01*
X61001910Y-70965060D01*
X61160660Y-70806310D01*
X61160660Y-68707000D01*
X61414660Y-68707000D01*
X61414660Y-70806310D01*
X61573410Y-70965060D01*
X62239331Y-70965060D01*
X62236555Y-70966210D01*
X62132551Y-71035703D01*
X62044103Y-71124151D01*
X61974610Y-71228155D01*
X61926743Y-71343717D01*
X61902340Y-71466398D01*
X61902340Y-72993250D01*
X62061090Y-73152000D01*
X64160400Y-73152000D01*
X64160400Y-71052690D01*
X64414400Y-71052690D01*
X64414400Y-73152000D01*
X66513710Y-73152000D01*
X66672460Y-72993250D01*
X66672460Y-71466398D01*
X66648057Y-71343717D01*
X66600190Y-71228155D01*
X66530697Y-71124151D01*
X66442249Y-71035703D01*
X66341121Y-70968132D01*
X69037200Y-70968132D01*
X69138321Y-70960068D01*
X69309834Y-70906954D01*
X69459759Y-70808160D01*
X69576225Y-70671510D01*
X69650010Y-70507823D01*
X69675272Y-70330060D01*
X69675272Y-66829940D01*
X69667208Y-66728819D01*
X69614094Y-66557306D01*
X69515300Y-66407381D01*
X69378650Y-66290915D01*
X69214963Y-66217130D01*
X69037200Y-66191868D01*
X65537080Y-66191868D01*
X65435959Y-66199932D01*
X65264446Y-66253046D01*
X65114521Y-66351840D01*
X64998055Y-66488490D01*
X64924270Y-66652177D01*
X64899008Y-66829940D01*
X64899008Y-70330060D01*
X64907072Y-70431181D01*
X64960186Y-70602694D01*
X65058980Y-70752619D01*
X65195630Y-70869085D01*
X65250769Y-70893940D01*
X64573150Y-70893940D01*
X64414400Y-71052690D01*
X64160400Y-71052690D01*
X64001650Y-70893940D01*
X63335729Y-70893940D01*
X63338505Y-70892790D01*
X63442509Y-70823297D01*
X63530957Y-70734849D01*
X63600450Y-70630845D01*
X63648317Y-70515283D01*
X63672720Y-70392602D01*
X63672720Y-68865750D01*
X63513970Y-68707000D01*
X61414660Y-68707000D01*
X61160660Y-68707000D01*
X59061350Y-68707000D01*
X58902600Y-68865750D01*
X57631800Y-68865750D01*
X57631800Y-66767398D01*
X58902600Y-66767398D01*
X58902600Y-68294250D01*
X59061350Y-68453000D01*
X61160660Y-68453000D01*
X61160660Y-66353690D01*
X61414660Y-66353690D01*
X61414660Y-68453000D01*
X63513970Y-68453000D01*
X63672720Y-68294250D01*
X63672720Y-66767398D01*
X63648317Y-66644717D01*
X63600450Y-66529155D01*
X63530957Y-66425151D01*
X63442509Y-66336703D01*
X63338505Y-66267210D01*
X63222943Y-66219343D01*
X63100262Y-66194940D01*
X61573410Y-66194940D01*
X61414660Y-66353690D01*
X61160660Y-66353690D01*
X61001910Y-66194940D01*
X59475058Y-66194940D01*
X59352377Y-66219343D01*
X59236815Y-66267210D01*
X59132811Y-66336703D01*
X59044363Y-66425151D01*
X58974870Y-66529155D01*
X58927003Y-66644717D01*
X58902600Y-66767398D01*
X57631800Y-66767398D01*
X57631800Y-60685963D01*
X57724060Y-60685963D01*
X57738332Y-60864944D01*
X57801903Y-61032862D01*
X57909737Y-61176422D01*
X59346578Y-62613263D01*
X59423784Y-62679065D01*
X59582619Y-62762785D01*
X59758489Y-62798940D01*
X59937470Y-62784668D01*
X60105388Y-62721097D01*
X60248948Y-62613263D01*
X61470263Y-61391948D01*
X61536065Y-61314742D01*
X61619785Y-61155907D01*
X61655940Y-60980037D01*
X61641668Y-60801056D01*
X61583678Y-60647879D01*
X61594231Y-60648951D01*
X61885409Y-60621427D01*
X62165694Y-60537870D01*
X62424413Y-60401463D01*
X62651708Y-60217402D01*
X62838926Y-59992698D01*
X62978931Y-59735910D01*
X63066393Y-59456818D01*
X63097980Y-59166054D01*
X63072489Y-58874691D01*
X63053503Y-58809341D01*
X63099304Y-58823344D01*
X63390282Y-58852900D01*
X63681460Y-58825376D01*
X63961745Y-58741819D01*
X64220464Y-58605412D01*
X64447759Y-58421351D01*
X64634977Y-58196647D01*
X64774982Y-57939859D01*
X64862444Y-57660767D01*
X64894031Y-57370003D01*
X64868540Y-57078640D01*
X64849554Y-57013289D01*
X64895356Y-57027292D01*
X65186334Y-57056848D01*
X65477512Y-57029324D01*
X65757797Y-56945767D01*
X66016516Y-56809360D01*
X66243811Y-56625299D01*
X66431029Y-56400595D01*
X66571034Y-56143807D01*
X66658496Y-55864715D01*
X66690083Y-55573951D01*
X66664592Y-55282588D01*
X66582994Y-55001725D01*
X66448397Y-54742061D01*
X66265928Y-54513486D01*
X66251235Y-54498587D01*
X66024413Y-54271765D01*
X65798407Y-54086122D01*
X65540648Y-53947912D01*
X65260952Y-53862400D01*
X64969974Y-53832844D01*
X64678796Y-53860369D01*
X64398511Y-53943925D01*
X64139793Y-54080333D01*
X63912497Y-54264393D01*
X63725280Y-54489097D01*
X63585275Y-54745885D01*
X63497813Y-55024977D01*
X63466225Y-55315741D01*
X63491716Y-55607104D01*
X63510702Y-55672455D01*
X63464900Y-55658452D01*
X63173922Y-55628896D01*
X62882744Y-55656421D01*
X62602459Y-55739977D01*
X62343741Y-55876385D01*
X62116445Y-56060445D01*
X61929228Y-56285149D01*
X61789223Y-56541937D01*
X61701761Y-56821029D01*
X61670173Y-57111793D01*
X61695664Y-57403156D01*
X61714650Y-57468506D01*
X61668849Y-57454503D01*
X61377871Y-57424947D01*
X61086693Y-57452472D01*
X60806408Y-57536028D01*
X60547690Y-57672436D01*
X60320394Y-57856496D01*
X60133177Y-58081200D01*
X59993172Y-58337988D01*
X59905710Y-58617080D01*
X59874122Y-58907844D01*
X59877407Y-58945396D01*
X59797381Y-58903215D01*
X59621511Y-58867060D01*
X59442530Y-58881332D01*
X59274612Y-58944903D01*
X59131052Y-59052737D01*
X57909737Y-60274052D01*
X57843935Y-60351258D01*
X57760215Y-60510093D01*
X57724060Y-60685963D01*
X57631800Y-60685963D01*
X57631800Y-56974808D01*
X57742953Y-56863655D01*
X57898962Y-57179214D01*
X58273745Y-57370020D01*
X58678551Y-57484044D01*
X59097824Y-57516902D01*
X59515451Y-57467334D01*
X59915383Y-57337243D01*
X60211038Y-57179214D01*
X60367048Y-56863653D01*
X59055000Y-55551605D01*
X59040858Y-55565748D01*
X58861253Y-55386143D01*
X58875395Y-55372000D01*
X59234605Y-55372000D01*
X60546653Y-56684048D01*
X60862214Y-56528038D01*
X61053020Y-56153255D01*
X61167044Y-55748449D01*
X61199902Y-55329176D01*
X61150334Y-54911549D01*
X61020243Y-54511617D01*
X60862214Y-54215962D01*
X60546653Y-54059952D01*
X59234605Y-55372000D01*
X58875395Y-55372000D01*
X58861253Y-55357858D01*
X59040858Y-55178253D01*
X59055000Y-55192395D01*
X60367048Y-53880347D01*
X60320305Y-53785800D01*
X103382695Y-53785800D01*
X103335952Y-53880347D01*
G36*
X70891701Y-75005583D02*
X71019076Y-75137484D01*
X71169644Y-75242131D01*
X71337671Y-75315540D01*
X71516757Y-75354915D01*
X71700079Y-75358755D01*
X71880657Y-75326914D01*
X72051610Y-75260606D01*
X72058291Y-75256366D01*
X72292358Y-75498750D01*
X72429283Y-75593915D01*
X71919542Y-76103656D01*
X71774733Y-76073931D01*
X71500774Y-76072018D01*
X71231661Y-76123354D01*
X70977644Y-76225984D01*
X70748399Y-76375997D01*
X70552658Y-76567681D01*
X70397877Y-76793734D01*
X70360591Y-76880728D01*
X70355636Y-76866977D01*
X70293656Y-76751020D01*
X70053565Y-76684040D01*
X69267605Y-77470000D01*
X70053565Y-78255960D01*
X70293656Y-78188980D01*
X70356866Y-78054555D01*
X70379474Y-78111655D01*
X70527883Y-78341942D01*
X70718196Y-78539016D01*
X70943163Y-78695372D01*
X71194215Y-78805054D01*
X71461789Y-78863884D01*
X71735695Y-78869622D01*
X72005499Y-78822048D01*
X72260923Y-78722975D01*
X72492240Y-78576177D01*
X72690639Y-78387245D01*
X72848561Y-78163375D01*
X72896934Y-78054727D01*
X72919474Y-78111655D01*
X73067883Y-78341942D01*
X73258196Y-78539016D01*
X73483163Y-78695372D01*
X73734215Y-78805054D01*
X74001789Y-78863884D01*
X74275695Y-78869622D01*
X74545499Y-78822048D01*
X74672835Y-78772657D01*
X74729372Y-78915454D01*
X74828701Y-79069583D01*
X74924625Y-79168915D01*
X74695733Y-79121931D01*
X74421774Y-79120018D01*
X74152661Y-79171354D01*
X73898644Y-79273984D01*
X73669399Y-79423997D01*
X73473658Y-79615681D01*
X73318877Y-79841734D01*
X73279351Y-79933956D01*
X73248446Y-79858975D01*
X73096835Y-79630783D01*
X72903790Y-79436385D01*
X72676662Y-79283185D01*
X72424103Y-79177019D01*
X72155733Y-79121931D01*
X71881774Y-79120018D01*
X71612661Y-79171354D01*
X71358644Y-79273984D01*
X71129399Y-79423997D01*
X70933658Y-79615681D01*
X70778877Y-79841734D01*
X70739351Y-79933956D01*
X70708446Y-79858975D01*
X70556835Y-79630783D01*
X70363790Y-79436385D01*
X70136662Y-79283185D01*
X69884103Y-79177019D01*
X69615733Y-79121931D01*
X69341774Y-79120018D01*
X69072661Y-79171354D01*
X68818644Y-79273984D01*
X68589399Y-79423997D01*
X68393658Y-79615681D01*
X68238877Y-79841734D01*
X68199351Y-79933956D01*
X68168446Y-79858975D01*
X68016835Y-79630783D01*
X67823790Y-79436385D01*
X67596662Y-79283185D01*
X67344103Y-79177019D01*
X67075733Y-79121931D01*
X66801774Y-79120018D01*
X66532661Y-79171354D01*
X66278644Y-79273984D01*
X66049399Y-79423997D01*
X65853658Y-79615681D01*
X65698877Y-79841734D01*
X65661591Y-79928728D01*
X65656636Y-79914977D01*
X65594656Y-79799020D01*
X65354565Y-79732040D01*
X64568605Y-80518000D01*
X65354565Y-81303960D01*
X65594656Y-81236980D01*
X65657866Y-81102555D01*
X65680474Y-81159655D01*
X65828883Y-81389942D01*
X66019196Y-81587016D01*
X66244163Y-81743372D01*
X66495215Y-81853054D01*
X66762789Y-81911884D01*
X67036695Y-81917622D01*
X67306499Y-81870048D01*
X67561923Y-81770975D01*
X67793240Y-81624177D01*
X67991639Y-81435245D01*
X68149561Y-81211375D01*
X68197934Y-81102727D01*
X68220474Y-81159655D01*
X68368883Y-81389942D01*
X68559196Y-81587016D01*
X68784163Y-81743372D01*
X69035215Y-81853054D01*
X69302789Y-81911884D01*
X69576695Y-81917622D01*
X69846499Y-81870048D01*
X70101923Y-81770975D01*
X70333240Y-81624177D01*
X70531639Y-81435245D01*
X70689561Y-81211375D01*
X70737934Y-81102727D01*
X70760474Y-81159655D01*
X70908883Y-81389942D01*
X71099196Y-81587016D01*
X71324163Y-81743372D01*
X71575215Y-81853054D01*
X71842789Y-81911884D01*
X72116695Y-81917622D01*
X72386499Y-81870048D01*
X72641923Y-81770975D01*
X72873240Y-81624177D01*
X73071639Y-81435245D01*
X73229561Y-81211375D01*
X73277934Y-81102727D01*
X73300474Y-81159655D01*
X73448883Y-81389942D01*
X73639196Y-81587016D01*
X73864163Y-81743372D01*
X74115215Y-81853054D01*
X74382789Y-81911884D01*
X74656695Y-81917622D01*
X74926499Y-81870048D01*
X75059000Y-81818654D01*
X75059000Y-83505198D01*
X70424198Y-88140000D01*
X69850000Y-88140000D01*
X69780119Y-88146852D01*
X69710197Y-88152969D01*
X69706359Y-88154084D01*
X69702382Y-88154474D01*
X69635179Y-88174764D01*
X69567760Y-88194351D01*
X69564212Y-88196190D01*
X69560387Y-88197345D01*
X69498409Y-88230299D01*
X69436075Y-88262610D01*
X69432952Y-88265103D01*
X69429422Y-88266980D01*
X69375013Y-88311355D01*
X69320154Y-88355148D01*
X69314594Y-88360631D01*
X69314478Y-88360726D01*
X69314389Y-88360834D01*
X69312599Y-88362599D01*
X67280599Y-90394599D01*
X67236032Y-90448855D01*
X67190914Y-90502625D01*
X67188989Y-90506126D01*
X67186452Y-90509215D01*
X67153287Y-90571067D01*
X67119457Y-90632604D01*
X67118248Y-90636416D01*
X67116361Y-90639935D01*
X67095848Y-90707031D01*
X67074608Y-90773987D01*
X67074162Y-90777959D01*
X67072994Y-90781781D01*
X67065897Y-90851649D01*
X67058074Y-90921389D01*
X67058020Y-90929194D01*
X67058004Y-90929347D01*
X67058018Y-90929490D01*
X67058000Y-90932000D01*
X67058000Y-91408910D01*
X66963103Y-91369019D01*
X66694733Y-91313931D01*
X66420774Y-91312018D01*
X66151661Y-91363354D01*
X65897644Y-91465984D01*
X65668399Y-91615997D01*
X65472658Y-91807681D01*
X65317877Y-92033734D01*
X65280591Y-92120728D01*
X65275636Y-92106977D01*
X65213656Y-91991020D01*
X64973565Y-91924040D01*
X64187605Y-92710000D01*
X64973565Y-93495960D01*
X65213656Y-93428980D01*
X65276866Y-93294555D01*
X65299474Y-93351655D01*
X65447883Y-93581942D01*
X65638196Y-93779016D01*
X65863163Y-93935372D01*
X66114215Y-94045054D01*
X66381789Y-94103884D01*
X66655695Y-94109622D01*
X66925499Y-94062048D01*
X67180923Y-93962975D01*
X67368887Y-93843689D01*
X67439000Y-93913802D01*
X67439000Y-94456910D01*
X67344103Y-94417019D01*
X67075733Y-94361931D01*
X66801774Y-94360018D01*
X66532661Y-94411354D01*
X66278644Y-94513984D01*
X66049399Y-94663997D01*
X65853658Y-94855681D01*
X65698877Y-95081734D01*
X65659351Y-95173956D01*
X65628446Y-95098975D01*
X65476835Y-94870783D01*
X65283790Y-94676385D01*
X65056662Y-94523185D01*
X64804103Y-94417019D01*
X64535733Y-94361931D01*
X64261774Y-94360018D01*
X64097212Y-94391410D01*
X63804723Y-94098921D01*
X63805135Y-94099023D01*
X64080017Y-94111910D01*
X64352133Y-94070922D01*
X64611023Y-93977636D01*
X64726980Y-93915656D01*
X64793960Y-93675565D01*
X64008000Y-92889605D01*
X63993858Y-92903748D01*
X63814253Y-92724143D01*
X63828395Y-92710000D01*
X63042435Y-91924040D01*
X62802344Y-91991020D01*
X62738604Y-92126571D01*
X62707446Y-92050975D01*
X62555835Y-91822783D01*
X62478033Y-91744435D01*
X63222040Y-91744435D01*
X64008000Y-92530395D01*
X64793960Y-91744435D01*
X64726980Y-91504344D01*
X64477952Y-91387244D01*
X64210865Y-91320977D01*
X63935983Y-91308090D01*
X63663867Y-91349078D01*
X63404977Y-91442364D01*
X63289020Y-91504344D01*
X63222040Y-91744435D01*
X62478033Y-91744435D01*
X62362790Y-91628385D01*
X62135662Y-91475185D01*
X61883103Y-91369019D01*
X61614733Y-91313931D01*
X61340774Y-91312018D01*
X61071661Y-91363354D01*
X60817644Y-91465984D01*
X60588399Y-91615997D01*
X60392658Y-91807681D01*
X60237877Y-92033734D01*
X60129950Y-92285546D01*
X60072989Y-92553524D01*
X60069164Y-92827464D01*
X60118620Y-93096928D01*
X60219474Y-93351655D01*
X60298320Y-93474000D01*
X60131802Y-93474000D01*
X59409508Y-92751706D01*
X59560923Y-92692975D01*
X59792240Y-92546177D01*
X59990639Y-92357245D01*
X60148561Y-92133375D01*
X60259993Y-91883095D01*
X60320690Y-91615938D01*
X60325059Y-91303017D01*
X60271846Y-91034269D01*
X60167446Y-90780975D01*
X60015835Y-90552783D01*
X59822790Y-90358385D01*
X59595662Y-90205185D01*
X59517731Y-90172426D01*
X59531023Y-90167636D01*
X59646980Y-90105656D01*
X59713960Y-89865565D01*
X58928000Y-89079605D01*
X58913858Y-89093748D01*
X58734253Y-88914143D01*
X58748395Y-88900000D01*
X59107605Y-88900000D01*
X59893565Y-89685960D01*
X60133656Y-89618980D01*
X60250756Y-89369952D01*
X60317023Y-89102865D01*
X60329910Y-88827983D01*
X60288922Y-88555867D01*
X60195636Y-88296977D01*
X60133656Y-88181020D01*
X59893565Y-88114040D01*
X59107605Y-88900000D01*
X58748395Y-88900000D01*
X58734253Y-88885858D01*
X58913858Y-88706253D01*
X58928000Y-88720395D01*
X59713960Y-87934435D01*
X59646980Y-87694344D01*
X59513257Y-87631464D01*
X59560923Y-87612975D01*
X59792240Y-87466177D01*
X59990639Y-87277245D01*
X60101563Y-87120000D01*
X61722000Y-87120000D01*
X61791877Y-87113149D01*
X61861803Y-87107031D01*
X61865641Y-87105916D01*
X61869618Y-87105526D01*
X61936821Y-87085236D01*
X62004240Y-87065649D01*
X62007788Y-87063810D01*
X62011613Y-87062655D01*
X62073591Y-87029701D01*
X62135925Y-86997390D01*
X62139048Y-86994897D01*
X62142578Y-86993020D01*
X62196987Y-86948645D01*
X62251846Y-86904852D01*
X62257406Y-86899369D01*
X62257522Y-86899274D01*
X62257611Y-86899166D01*
X62259401Y-86897401D01*
X63334669Y-85822133D01*
X63435157Y-85804414D01*
X63606110Y-85738106D01*
X63760929Y-85639855D01*
X63893715Y-85513404D01*
X63999411Y-85363570D01*
X64073992Y-85196060D01*
X64114616Y-85017254D01*
X64117540Y-84807819D01*
X64081925Y-84627948D01*
X64012050Y-84458420D01*
X63910579Y-84305693D01*
X63781375Y-84175584D01*
X63629360Y-84073049D01*
X63460325Y-84001993D01*
X63391033Y-83987769D01*
X63656401Y-83722401D01*
X63700968Y-83668145D01*
X63746086Y-83614375D01*
X63748011Y-83610874D01*
X63750548Y-83607785D01*
X63783732Y-83545898D01*
X63817543Y-83484396D01*
X63818751Y-83480588D01*
X63820640Y-83477065D01*
X63841180Y-83409882D01*
X63862392Y-83343013D01*
X63862837Y-83339046D01*
X63864007Y-83335219D01*
X63871109Y-83265301D01*
X63878926Y-83195611D01*
X63878980Y-83187806D01*
X63878996Y-83187653D01*
X63878982Y-83187510D01*
X63879000Y-83185000D01*
X63879000Y-81821924D01*
X63919048Y-81840756D01*
X64186135Y-81907023D01*
X64461017Y-81919910D01*
X64733133Y-81878922D01*
X64992023Y-81785636D01*
X65107980Y-81723656D01*
X65174960Y-81483565D01*
X64389000Y-80697605D01*
X64374858Y-80711748D01*
X64195253Y-80532143D01*
X64209395Y-80518000D01*
X64195253Y-80503858D01*
X64374858Y-80324253D01*
X64389000Y-80338395D01*
X65174960Y-79552435D01*
X65107980Y-79312344D01*
X64858952Y-79195244D01*
X64591865Y-79128977D01*
X64527040Y-79125938D01*
X64559116Y-78984754D01*
X64562040Y-78775319D01*
X64558041Y-78755123D01*
X64640923Y-78722975D01*
X64872240Y-78576177D01*
X65070639Y-78387245D01*
X65228561Y-78163375D01*
X65276934Y-78054727D01*
X65299474Y-78111655D01*
X65447883Y-78341942D01*
X65638196Y-78539016D01*
X65863163Y-78695372D01*
X66114215Y-78805054D01*
X66381789Y-78863884D01*
X66655695Y-78869622D01*
X66925499Y-78822048D01*
X67180923Y-78722975D01*
X67412240Y-78576177D01*
X67559897Y-78435565D01*
X68302040Y-78435565D01*
X68369020Y-78675656D01*
X68618048Y-78792756D01*
X68885135Y-78859023D01*
X69160017Y-78871910D01*
X69432133Y-78830922D01*
X69691023Y-78737636D01*
X69806980Y-78675656D01*
X69873960Y-78435565D01*
X69088000Y-77649605D01*
X68302040Y-78435565D01*
X67559897Y-78435565D01*
X67610639Y-78387245D01*
X67768561Y-78163375D01*
X67815186Y-78058653D01*
X67820364Y-78073023D01*
X67882344Y-78188980D01*
X68122435Y-78255960D01*
X68908395Y-77470000D01*
X68894253Y-77455858D01*
X69073858Y-77276253D01*
X69088000Y-77290395D01*
X69873960Y-76504435D01*
X69806980Y-76264344D01*
X69659709Y-76195093D01*
X70875053Y-74979749D01*
X70891701Y-75005583D01*
X70891701Y-75005583D01*
G37*
X70891701Y-75005583D02*
X71019076Y-75137484D01*
X71169644Y-75242131D01*
X71337671Y-75315540D01*
X71516757Y-75354915D01*
X71700079Y-75358755D01*
X71880657Y-75326914D01*
X72051610Y-75260606D01*
X72058291Y-75256366D01*
X72292358Y-75498750D01*
X72429283Y-75593915D01*
X71919542Y-76103656D01*
X71774733Y-76073931D01*
X71500774Y-76072018D01*
X71231661Y-76123354D01*
X70977644Y-76225984D01*
X70748399Y-76375997D01*
X70552658Y-76567681D01*
X70397877Y-76793734D01*
X70360591Y-76880728D01*
X70355636Y-76866977D01*
X70293656Y-76751020D01*
X70053565Y-76684040D01*
X69267605Y-77470000D01*
X70053565Y-78255960D01*
X70293656Y-78188980D01*
X70356866Y-78054555D01*
X70379474Y-78111655D01*
X70527883Y-78341942D01*
X70718196Y-78539016D01*
X70943163Y-78695372D01*
X71194215Y-78805054D01*
X71461789Y-78863884D01*
X71735695Y-78869622D01*
X72005499Y-78822048D01*
X72260923Y-78722975D01*
X72492240Y-78576177D01*
X72690639Y-78387245D01*
X72848561Y-78163375D01*
X72896934Y-78054727D01*
X72919474Y-78111655D01*
X73067883Y-78341942D01*
X73258196Y-78539016D01*
X73483163Y-78695372D01*
X73734215Y-78805054D01*
X74001789Y-78863884D01*
X74275695Y-78869622D01*
X74545499Y-78822048D01*
X74672835Y-78772657D01*
X74729372Y-78915454D01*
X74828701Y-79069583D01*
X74924625Y-79168915D01*
X74695733Y-79121931D01*
X74421774Y-79120018D01*
X74152661Y-79171354D01*
X73898644Y-79273984D01*
X73669399Y-79423997D01*
X73473658Y-79615681D01*
X73318877Y-79841734D01*
X73279351Y-79933956D01*
X73248446Y-79858975D01*
X73096835Y-79630783D01*
X72903790Y-79436385D01*
X72676662Y-79283185D01*
X72424103Y-79177019D01*
X72155733Y-79121931D01*
X71881774Y-79120018D01*
X71612661Y-79171354D01*
X71358644Y-79273984D01*
X71129399Y-79423997D01*
X70933658Y-79615681D01*
X70778877Y-79841734D01*
X70739351Y-79933956D01*
X70708446Y-79858975D01*
X70556835Y-79630783D01*
X70363790Y-79436385D01*
X70136662Y-79283185D01*
X69884103Y-79177019D01*
X69615733Y-79121931D01*
X69341774Y-79120018D01*
X69072661Y-79171354D01*
X68818644Y-79273984D01*
X68589399Y-79423997D01*
X68393658Y-79615681D01*
X68238877Y-79841734D01*
X68199351Y-79933956D01*
X68168446Y-79858975D01*
X68016835Y-79630783D01*
X67823790Y-79436385D01*
X67596662Y-79283185D01*
X67344103Y-79177019D01*
X67075733Y-79121931D01*
X66801774Y-79120018D01*
X66532661Y-79171354D01*
X66278644Y-79273984D01*
X66049399Y-79423997D01*
X65853658Y-79615681D01*
X65698877Y-79841734D01*
X65661591Y-79928728D01*
X65656636Y-79914977D01*
X65594656Y-79799020D01*
X65354565Y-79732040D01*
X64568605Y-80518000D01*
X65354565Y-81303960D01*
X65594656Y-81236980D01*
X65657866Y-81102555D01*
X65680474Y-81159655D01*
X65828883Y-81389942D01*
X66019196Y-81587016D01*
X66244163Y-81743372D01*
X66495215Y-81853054D01*
X66762789Y-81911884D01*
X67036695Y-81917622D01*
X67306499Y-81870048D01*
X67561923Y-81770975D01*
X67793240Y-81624177D01*
X67991639Y-81435245D01*
X68149561Y-81211375D01*
X68197934Y-81102727D01*
X68220474Y-81159655D01*
X68368883Y-81389942D01*
X68559196Y-81587016D01*
X68784163Y-81743372D01*
X69035215Y-81853054D01*
X69302789Y-81911884D01*
X69576695Y-81917622D01*
X69846499Y-81870048D01*
X70101923Y-81770975D01*
X70333240Y-81624177D01*
X70531639Y-81435245D01*
X70689561Y-81211375D01*
X70737934Y-81102727D01*
X70760474Y-81159655D01*
X70908883Y-81389942D01*
X71099196Y-81587016D01*
X71324163Y-81743372D01*
X71575215Y-81853054D01*
X71842789Y-81911884D01*
X72116695Y-81917622D01*
X72386499Y-81870048D01*
X72641923Y-81770975D01*
X72873240Y-81624177D01*
X73071639Y-81435245D01*
X73229561Y-81211375D01*
X73277934Y-81102727D01*
X73300474Y-81159655D01*
X73448883Y-81389942D01*
X73639196Y-81587016D01*
X73864163Y-81743372D01*
X74115215Y-81853054D01*
X74382789Y-81911884D01*
X74656695Y-81917622D01*
X74926499Y-81870048D01*
X75059000Y-81818654D01*
X75059000Y-83505198D01*
X70424198Y-88140000D01*
X69850000Y-88140000D01*
X69780119Y-88146852D01*
X69710197Y-88152969D01*
X69706359Y-88154084D01*
X69702382Y-88154474D01*
X69635179Y-88174764D01*
X69567760Y-88194351D01*
X69564212Y-88196190D01*
X69560387Y-88197345D01*
X69498409Y-88230299D01*
X69436075Y-88262610D01*
X69432952Y-88265103D01*
X69429422Y-88266980D01*
X69375013Y-88311355D01*
X69320154Y-88355148D01*
X69314594Y-88360631D01*
X69314478Y-88360726D01*
X69314389Y-88360834D01*
X69312599Y-88362599D01*
X67280599Y-90394599D01*
X67236032Y-90448855D01*
X67190914Y-90502625D01*
X67188989Y-90506126D01*
X67186452Y-90509215D01*
X67153287Y-90571067D01*
X67119457Y-90632604D01*
X67118248Y-90636416D01*
X67116361Y-90639935D01*
X67095848Y-90707031D01*
X67074608Y-90773987D01*
X67074162Y-90777959D01*
X67072994Y-90781781D01*
X67065897Y-90851649D01*
X67058074Y-90921389D01*
X67058020Y-90929194D01*
X67058004Y-90929347D01*
X67058018Y-90929490D01*
X67058000Y-90932000D01*
X67058000Y-91408910D01*
X66963103Y-91369019D01*
X66694733Y-91313931D01*
X66420774Y-91312018D01*
X66151661Y-91363354D01*
X65897644Y-91465984D01*
X65668399Y-91615997D01*
X65472658Y-91807681D01*
X65317877Y-92033734D01*
X65280591Y-92120728D01*
X65275636Y-92106977D01*
X65213656Y-91991020D01*
X64973565Y-91924040D01*
X64187605Y-92710000D01*
X64973565Y-93495960D01*
X65213656Y-93428980D01*
X65276866Y-93294555D01*
X65299474Y-93351655D01*
X65447883Y-93581942D01*
X65638196Y-93779016D01*
X65863163Y-93935372D01*
X66114215Y-94045054D01*
X66381789Y-94103884D01*
X66655695Y-94109622D01*
X66925499Y-94062048D01*
X67180923Y-93962975D01*
X67368887Y-93843689D01*
X67439000Y-93913802D01*
X67439000Y-94456910D01*
X67344103Y-94417019D01*
X67075733Y-94361931D01*
X66801774Y-94360018D01*
X66532661Y-94411354D01*
X66278644Y-94513984D01*
X66049399Y-94663997D01*
X65853658Y-94855681D01*
X65698877Y-95081734D01*
X65659351Y-95173956D01*
X65628446Y-95098975D01*
X65476835Y-94870783D01*
X65283790Y-94676385D01*
X65056662Y-94523185D01*
X64804103Y-94417019D01*
X64535733Y-94361931D01*
X64261774Y-94360018D01*
X64097212Y-94391410D01*
X63804723Y-94098921D01*
X63805135Y-94099023D01*
X64080017Y-94111910D01*
X64352133Y-94070922D01*
X64611023Y-93977636D01*
X64726980Y-93915656D01*
X64793960Y-93675565D01*
X64008000Y-92889605D01*
X63993858Y-92903748D01*
X63814253Y-92724143D01*
X63828395Y-92710000D01*
X63042435Y-91924040D01*
X62802344Y-91991020D01*
X62738604Y-92126571D01*
X62707446Y-92050975D01*
X62555835Y-91822783D01*
X62478033Y-91744435D01*
X63222040Y-91744435D01*
X64008000Y-92530395D01*
X64793960Y-91744435D01*
X64726980Y-91504344D01*
X64477952Y-91387244D01*
X64210865Y-91320977D01*
X63935983Y-91308090D01*
X63663867Y-91349078D01*
X63404977Y-91442364D01*
X63289020Y-91504344D01*
X63222040Y-91744435D01*
X62478033Y-91744435D01*
X62362790Y-91628385D01*
X62135662Y-91475185D01*
X61883103Y-91369019D01*
X61614733Y-91313931D01*
X61340774Y-91312018D01*
X61071661Y-91363354D01*
X60817644Y-91465984D01*
X60588399Y-91615997D01*
X60392658Y-91807681D01*
X60237877Y-92033734D01*
X60129950Y-92285546D01*
X60072989Y-92553524D01*
X60069164Y-92827464D01*
X60118620Y-93096928D01*
X60219474Y-93351655D01*
X60298320Y-93474000D01*
X60131802Y-93474000D01*
X59409508Y-92751706D01*
X59560923Y-92692975D01*
X59792240Y-92546177D01*
X59990639Y-92357245D01*
X60148561Y-92133375D01*
X60259993Y-91883095D01*
X60320690Y-91615938D01*
X60325059Y-91303017D01*
X60271846Y-91034269D01*
X60167446Y-90780975D01*
X60015835Y-90552783D01*
X59822790Y-90358385D01*
X59595662Y-90205185D01*
X59517731Y-90172426D01*
X59531023Y-90167636D01*
X59646980Y-90105656D01*
X59713960Y-89865565D01*
X58928000Y-89079605D01*
X58913858Y-89093748D01*
X58734253Y-88914143D01*
X58748395Y-88900000D01*
X59107605Y-88900000D01*
X59893565Y-89685960D01*
X60133656Y-89618980D01*
X60250756Y-89369952D01*
X60317023Y-89102865D01*
X60329910Y-88827983D01*
X60288922Y-88555867D01*
X60195636Y-88296977D01*
X60133656Y-88181020D01*
X59893565Y-88114040D01*
X59107605Y-88900000D01*
X58748395Y-88900000D01*
X58734253Y-88885858D01*
X58913858Y-88706253D01*
X58928000Y-88720395D01*
X59713960Y-87934435D01*
X59646980Y-87694344D01*
X59513257Y-87631464D01*
X59560923Y-87612975D01*
X59792240Y-87466177D01*
X59990639Y-87277245D01*
X60101563Y-87120000D01*
X61722000Y-87120000D01*
X61791877Y-87113149D01*
X61861803Y-87107031D01*
X61865641Y-87105916D01*
X61869618Y-87105526D01*
X61936821Y-87085236D01*
X62004240Y-87065649D01*
X62007788Y-87063810D01*
X62011613Y-87062655D01*
X62073591Y-87029701D01*
X62135925Y-86997390D01*
X62139048Y-86994897D01*
X62142578Y-86993020D01*
X62196987Y-86948645D01*
X62251846Y-86904852D01*
X62257406Y-86899369D01*
X62257522Y-86899274D01*
X62257611Y-86899166D01*
X62259401Y-86897401D01*
X63334669Y-85822133D01*
X63435157Y-85804414D01*
X63606110Y-85738106D01*
X63760929Y-85639855D01*
X63893715Y-85513404D01*
X63999411Y-85363570D01*
X64073992Y-85196060D01*
X64114616Y-85017254D01*
X64117540Y-84807819D01*
X64081925Y-84627948D01*
X64012050Y-84458420D01*
X63910579Y-84305693D01*
X63781375Y-84175584D01*
X63629360Y-84073049D01*
X63460325Y-84001993D01*
X63391033Y-83987769D01*
X63656401Y-83722401D01*
X63700968Y-83668145D01*
X63746086Y-83614375D01*
X63748011Y-83610874D01*
X63750548Y-83607785D01*
X63783732Y-83545898D01*
X63817543Y-83484396D01*
X63818751Y-83480588D01*
X63820640Y-83477065D01*
X63841180Y-83409882D01*
X63862392Y-83343013D01*
X63862837Y-83339046D01*
X63864007Y-83335219D01*
X63871109Y-83265301D01*
X63878926Y-83195611D01*
X63878980Y-83187806D01*
X63878996Y-83187653D01*
X63878982Y-83187510D01*
X63879000Y-83185000D01*
X63879000Y-81821924D01*
X63919048Y-81840756D01*
X64186135Y-81907023D01*
X64461017Y-81919910D01*
X64733133Y-81878922D01*
X64992023Y-81785636D01*
X65107980Y-81723656D01*
X65174960Y-81483565D01*
X64389000Y-80697605D01*
X64374858Y-80711748D01*
X64195253Y-80532143D01*
X64209395Y-80518000D01*
X64195253Y-80503858D01*
X64374858Y-80324253D01*
X64389000Y-80338395D01*
X65174960Y-79552435D01*
X65107980Y-79312344D01*
X64858952Y-79195244D01*
X64591865Y-79128977D01*
X64527040Y-79125938D01*
X64559116Y-78984754D01*
X64562040Y-78775319D01*
X64558041Y-78755123D01*
X64640923Y-78722975D01*
X64872240Y-78576177D01*
X65070639Y-78387245D01*
X65228561Y-78163375D01*
X65276934Y-78054727D01*
X65299474Y-78111655D01*
X65447883Y-78341942D01*
X65638196Y-78539016D01*
X65863163Y-78695372D01*
X66114215Y-78805054D01*
X66381789Y-78863884D01*
X66655695Y-78869622D01*
X66925499Y-78822048D01*
X67180923Y-78722975D01*
X67412240Y-78576177D01*
X67559897Y-78435565D01*
X68302040Y-78435565D01*
X68369020Y-78675656D01*
X68618048Y-78792756D01*
X68885135Y-78859023D01*
X69160017Y-78871910D01*
X69432133Y-78830922D01*
X69691023Y-78737636D01*
X69806980Y-78675656D01*
X69873960Y-78435565D01*
X69088000Y-77649605D01*
X68302040Y-78435565D01*
X67559897Y-78435565D01*
X67610639Y-78387245D01*
X67768561Y-78163375D01*
X67815186Y-78058653D01*
X67820364Y-78073023D01*
X67882344Y-78188980D01*
X68122435Y-78255960D01*
X68908395Y-77470000D01*
X68894253Y-77455858D01*
X69073858Y-77276253D01*
X69088000Y-77290395D01*
X69873960Y-76504435D01*
X69806980Y-76264344D01*
X69659709Y-76195093D01*
X70875053Y-74979749D01*
X70891701Y-75005583D01*
G36*
X96160474Y-81159655D02*
X96308883Y-81389942D01*
X96499196Y-81587016D01*
X96724163Y-81743372D01*
X96975215Y-81853054D01*
X97242789Y-81911884D01*
X97516695Y-81917622D01*
X97786499Y-81870048D01*
X98041923Y-81770975D01*
X98046000Y-81768388D01*
X98046000Y-83058000D01*
X98052851Y-83127877D01*
X98058969Y-83197803D01*
X98060084Y-83201641D01*
X98060474Y-83205618D01*
X98080764Y-83272821D01*
X98100351Y-83340240D01*
X98102190Y-83343788D01*
X98103345Y-83347613D01*
X98136299Y-83409591D01*
X98168610Y-83471925D01*
X98171103Y-83475048D01*
X98172980Y-83478578D01*
X98217355Y-83532987D01*
X98261148Y-83587846D01*
X98266631Y-83593406D01*
X98266726Y-83593522D01*
X98266834Y-83593611D01*
X98268599Y-83595401D01*
X100106691Y-85433493D01*
X100077989Y-85568524D01*
X100074164Y-85842464D01*
X100123620Y-86111928D01*
X100224474Y-86366655D01*
X100372883Y-86596942D01*
X100563196Y-86794016D01*
X100788163Y-86950372D01*
X100888700Y-86994296D01*
X100822644Y-87020984D01*
X100593399Y-87170997D01*
X100397658Y-87362681D01*
X100300211Y-87505000D01*
X97409000Y-87505000D01*
X97339123Y-87511851D01*
X97269197Y-87517969D01*
X97265359Y-87519084D01*
X97261382Y-87519474D01*
X97194179Y-87539764D01*
X97126760Y-87559351D01*
X97123212Y-87561190D01*
X97119387Y-87562345D01*
X97057429Y-87595288D01*
X96995074Y-87627610D01*
X96991949Y-87630105D01*
X96988422Y-87631980D01*
X96934035Y-87676337D01*
X96879154Y-87720148D01*
X96873594Y-87725631D01*
X96873478Y-87725726D01*
X96873389Y-87725834D01*
X96871599Y-87727599D01*
X90521599Y-94077599D01*
X90477032Y-94131855D01*
X90431914Y-94185625D01*
X90429989Y-94189126D01*
X90427452Y-94192215D01*
X90394287Y-94254067D01*
X90360457Y-94315604D01*
X90359248Y-94319416D01*
X90357361Y-94322935D01*
X90336848Y-94390031D01*
X90315608Y-94456987D01*
X90315162Y-94460959D01*
X90314419Y-94463391D01*
X90204103Y-94417019D01*
X89935733Y-94361931D01*
X89661774Y-94360018D01*
X89497212Y-94391410D01*
X89200638Y-94094836D01*
X89241789Y-94103884D01*
X89515695Y-94109622D01*
X89785499Y-94062048D01*
X90040923Y-93962975D01*
X90272240Y-93816177D01*
X90470639Y-93627245D01*
X90628561Y-93403375D01*
X90739993Y-93153095D01*
X90800690Y-92885938D01*
X90805059Y-92573017D01*
X90751846Y-92304269D01*
X90647446Y-92050975D01*
X90495835Y-91822783D01*
X90302790Y-91628385D01*
X90075662Y-91475185D01*
X89994393Y-91441023D01*
X90040923Y-91422975D01*
X90272240Y-91276177D01*
X90470639Y-91087245D01*
X90628561Y-90863375D01*
X90739993Y-90613095D01*
X90800690Y-90345938D01*
X90805059Y-90033017D01*
X90751846Y-89764269D01*
X90647446Y-89510975D01*
X90495835Y-89282783D01*
X90302790Y-89088385D01*
X90075662Y-88935185D01*
X89994393Y-88901023D01*
X90040923Y-88882975D01*
X90272240Y-88736177D01*
X90470639Y-88547245D01*
X90628561Y-88323375D01*
X90739993Y-88073095D01*
X90800690Y-87805938D01*
X90805059Y-87493017D01*
X90751846Y-87224269D01*
X90647446Y-86970975D01*
X90495835Y-86742783D01*
X90302790Y-86548385D01*
X90075662Y-86395185D01*
X89997731Y-86362426D01*
X90011023Y-86357636D01*
X90126980Y-86295656D01*
X90193960Y-86055565D01*
X89408000Y-85269605D01*
X89393858Y-85283748D01*
X89214253Y-85104143D01*
X89228395Y-85090000D01*
X89587605Y-85090000D01*
X90373565Y-85875960D01*
X90613656Y-85808980D01*
X90730756Y-85559952D01*
X90797023Y-85292865D01*
X90809910Y-85017983D01*
X90768922Y-84745867D01*
X90675636Y-84486977D01*
X90613656Y-84371020D01*
X90373565Y-84304040D01*
X89587605Y-85090000D01*
X89228395Y-85090000D01*
X89214253Y-85075858D01*
X89393858Y-84896253D01*
X89408000Y-84910395D01*
X90193960Y-84124435D01*
X90126980Y-83884344D01*
X89877952Y-83767244D01*
X89610865Y-83700977D01*
X89335983Y-83688090D01*
X89063867Y-83729078D01*
X88898000Y-83788845D01*
X88898000Y-83372802D01*
X89056401Y-83214401D01*
X89100968Y-83160145D01*
X89146086Y-83106375D01*
X89148011Y-83102874D01*
X89150548Y-83099785D01*
X89183713Y-83037933D01*
X89217543Y-82976396D01*
X89218752Y-82972584D01*
X89220639Y-82969065D01*
X89241152Y-82901969D01*
X89262392Y-82835013D01*
X89262838Y-82831041D01*
X89264006Y-82827219D01*
X89271098Y-82757395D01*
X89278926Y-82687611D01*
X89278981Y-82679796D01*
X89278995Y-82679653D01*
X89278982Y-82679520D01*
X89279000Y-82677000D01*
X89279000Y-81819756D01*
X89355215Y-81853054D01*
X89622789Y-81911884D01*
X89896695Y-81917622D01*
X90166499Y-81870048D01*
X90421923Y-81770975D01*
X90653240Y-81624177D01*
X90851639Y-81435245D01*
X91009561Y-81211375D01*
X91057934Y-81102727D01*
X91080474Y-81159655D01*
X91228883Y-81389942D01*
X91419196Y-81587016D01*
X91644163Y-81743372D01*
X91895215Y-81853054D01*
X92162789Y-81911884D01*
X92436695Y-81917622D01*
X92706499Y-81870048D01*
X92961923Y-81770975D01*
X93193240Y-81624177D01*
X93391639Y-81435245D01*
X93549561Y-81211375D01*
X93597934Y-81102727D01*
X93620474Y-81159655D01*
X93768883Y-81389942D01*
X93959196Y-81587016D01*
X94184163Y-81743372D01*
X94435215Y-81853054D01*
X94702789Y-81911884D01*
X94976695Y-81917622D01*
X95246499Y-81870048D01*
X95501923Y-81770975D01*
X95733240Y-81624177D01*
X95931639Y-81435245D01*
X96089561Y-81211375D01*
X96137934Y-81102727D01*
X96160474Y-81159655D01*
X96160474Y-81159655D01*
G37*
X96160474Y-81159655D02*
X96308883Y-81389942D01*
X96499196Y-81587016D01*
X96724163Y-81743372D01*
X96975215Y-81853054D01*
X97242789Y-81911884D01*
X97516695Y-81917622D01*
X97786499Y-81870048D01*
X98041923Y-81770975D01*
X98046000Y-81768388D01*
X98046000Y-83058000D01*
X98052851Y-83127877D01*
X98058969Y-83197803D01*
X98060084Y-83201641D01*
X98060474Y-83205618D01*
X98080764Y-83272821D01*
X98100351Y-83340240D01*
X98102190Y-83343788D01*
X98103345Y-83347613D01*
X98136299Y-83409591D01*
X98168610Y-83471925D01*
X98171103Y-83475048D01*
X98172980Y-83478578D01*
X98217355Y-83532987D01*
X98261148Y-83587846D01*
X98266631Y-83593406D01*
X98266726Y-83593522D01*
X98266834Y-83593611D01*
X98268599Y-83595401D01*
X100106691Y-85433493D01*
X100077989Y-85568524D01*
X100074164Y-85842464D01*
X100123620Y-86111928D01*
X100224474Y-86366655D01*
X100372883Y-86596942D01*
X100563196Y-86794016D01*
X100788163Y-86950372D01*
X100888700Y-86994296D01*
X100822644Y-87020984D01*
X100593399Y-87170997D01*
X100397658Y-87362681D01*
X100300211Y-87505000D01*
X97409000Y-87505000D01*
X97339123Y-87511851D01*
X97269197Y-87517969D01*
X97265359Y-87519084D01*
X97261382Y-87519474D01*
X97194179Y-87539764D01*
X97126760Y-87559351D01*
X97123212Y-87561190D01*
X97119387Y-87562345D01*
X97057429Y-87595288D01*
X96995074Y-87627610D01*
X96991949Y-87630105D01*
X96988422Y-87631980D01*
X96934035Y-87676337D01*
X96879154Y-87720148D01*
X96873594Y-87725631D01*
X96873478Y-87725726D01*
X96873389Y-87725834D01*
X96871599Y-87727599D01*
X90521599Y-94077599D01*
X90477032Y-94131855D01*
X90431914Y-94185625D01*
X90429989Y-94189126D01*
X90427452Y-94192215D01*
X90394287Y-94254067D01*
X90360457Y-94315604D01*
X90359248Y-94319416D01*
X90357361Y-94322935D01*
X90336848Y-94390031D01*
X90315608Y-94456987D01*
X90315162Y-94460959D01*
X90314419Y-94463391D01*
X90204103Y-94417019D01*
X89935733Y-94361931D01*
X89661774Y-94360018D01*
X89497212Y-94391410D01*
X89200638Y-94094836D01*
X89241789Y-94103884D01*
X89515695Y-94109622D01*
X89785499Y-94062048D01*
X90040923Y-93962975D01*
X90272240Y-93816177D01*
X90470639Y-93627245D01*
X90628561Y-93403375D01*
X90739993Y-93153095D01*
X90800690Y-92885938D01*
X90805059Y-92573017D01*
X90751846Y-92304269D01*
X90647446Y-92050975D01*
X90495835Y-91822783D01*
X90302790Y-91628385D01*
X90075662Y-91475185D01*
X89994393Y-91441023D01*
X90040923Y-91422975D01*
X90272240Y-91276177D01*
X90470639Y-91087245D01*
X90628561Y-90863375D01*
X90739993Y-90613095D01*
X90800690Y-90345938D01*
X90805059Y-90033017D01*
X90751846Y-89764269D01*
X90647446Y-89510975D01*
X90495835Y-89282783D01*
X90302790Y-89088385D01*
X90075662Y-88935185D01*
X89994393Y-88901023D01*
X90040923Y-88882975D01*
X90272240Y-88736177D01*
X90470639Y-88547245D01*
X90628561Y-88323375D01*
X90739993Y-88073095D01*
X90800690Y-87805938D01*
X90805059Y-87493017D01*
X90751846Y-87224269D01*
X90647446Y-86970975D01*
X90495835Y-86742783D01*
X90302790Y-86548385D01*
X90075662Y-86395185D01*
X89997731Y-86362426D01*
X90011023Y-86357636D01*
X90126980Y-86295656D01*
X90193960Y-86055565D01*
X89408000Y-85269605D01*
X89393858Y-85283748D01*
X89214253Y-85104143D01*
X89228395Y-85090000D01*
X89587605Y-85090000D01*
X90373565Y-85875960D01*
X90613656Y-85808980D01*
X90730756Y-85559952D01*
X90797023Y-85292865D01*
X90809910Y-85017983D01*
X90768922Y-84745867D01*
X90675636Y-84486977D01*
X90613656Y-84371020D01*
X90373565Y-84304040D01*
X89587605Y-85090000D01*
X89228395Y-85090000D01*
X89214253Y-85075858D01*
X89393858Y-84896253D01*
X89408000Y-84910395D01*
X90193960Y-84124435D01*
X90126980Y-83884344D01*
X89877952Y-83767244D01*
X89610865Y-83700977D01*
X89335983Y-83688090D01*
X89063867Y-83729078D01*
X88898000Y-83788845D01*
X88898000Y-83372802D01*
X89056401Y-83214401D01*
X89100968Y-83160145D01*
X89146086Y-83106375D01*
X89148011Y-83102874D01*
X89150548Y-83099785D01*
X89183713Y-83037933D01*
X89217543Y-82976396D01*
X89218752Y-82972584D01*
X89220639Y-82969065D01*
X89241152Y-82901969D01*
X89262392Y-82835013D01*
X89262838Y-82831041D01*
X89264006Y-82827219D01*
X89271098Y-82757395D01*
X89278926Y-82687611D01*
X89278981Y-82679796D01*
X89278995Y-82679653D01*
X89278982Y-82679520D01*
X89279000Y-82677000D01*
X89279000Y-81819756D01*
X89355215Y-81853054D01*
X89622789Y-81911884D01*
X89896695Y-81917622D01*
X90166499Y-81870048D01*
X90421923Y-81770975D01*
X90653240Y-81624177D01*
X90851639Y-81435245D01*
X91009561Y-81211375D01*
X91057934Y-81102727D01*
X91080474Y-81159655D01*
X91228883Y-81389942D01*
X91419196Y-81587016D01*
X91644163Y-81743372D01*
X91895215Y-81853054D01*
X92162789Y-81911884D01*
X92436695Y-81917622D01*
X92706499Y-81870048D01*
X92961923Y-81770975D01*
X93193240Y-81624177D01*
X93391639Y-81435245D01*
X93549561Y-81211375D01*
X93597934Y-81102727D01*
X93620474Y-81159655D01*
X93768883Y-81389942D01*
X93959196Y-81587016D01*
X94184163Y-81743372D01*
X94435215Y-81853054D01*
X94702789Y-81911884D01*
X94976695Y-81917622D01*
X95246499Y-81870048D01*
X95501923Y-81770975D01*
X95733240Y-81624177D01*
X95931639Y-81435245D01*
X96089561Y-81211375D01*
X96137934Y-81102727D01*
X96160474Y-81159655D01*
G36*
X84965000Y-65405000D02*
X84971851Y-65474877D01*
X84977969Y-65544803D01*
X84979084Y-65548641D01*
X84979474Y-65552618D01*
X84999764Y-65619821D01*
X85019351Y-65687240D01*
X85021190Y-65690788D01*
X85022345Y-65694613D01*
X85055299Y-65756591D01*
X85087610Y-65818925D01*
X85090103Y-65822048D01*
X85091980Y-65825578D01*
X85136355Y-65879987D01*
X85180148Y-65934846D01*
X85185631Y-65940406D01*
X85185726Y-65940522D01*
X85185834Y-65940611D01*
X85187599Y-65942401D01*
X87057920Y-67812722D01*
X86956952Y-67765244D01*
X86689865Y-67698977D01*
X86414983Y-67686090D01*
X86142867Y-67727078D01*
X85883977Y-67820364D01*
X85768020Y-67882344D01*
X85701040Y-68122435D01*
X86487000Y-68908395D01*
X86501143Y-68894253D01*
X86680748Y-69073858D01*
X86666605Y-69088000D01*
X87452565Y-69873960D01*
X87692656Y-69806980D01*
X87809756Y-69557952D01*
X87876023Y-69290865D01*
X87888910Y-69015983D01*
X87847922Y-68743867D01*
X87768415Y-68523217D01*
X88521000Y-69275802D01*
X88521000Y-73660000D01*
X88527851Y-73729877D01*
X88533969Y-73799803D01*
X88535084Y-73803641D01*
X88535474Y-73807618D01*
X88555764Y-73874821D01*
X88575351Y-73942240D01*
X88577190Y-73945788D01*
X88578345Y-73949613D01*
X88611299Y-74011591D01*
X88643610Y-74073925D01*
X88646103Y-74077048D01*
X88647980Y-74080578D01*
X88692355Y-74134987D01*
X88736148Y-74189846D01*
X88741631Y-74195406D01*
X88741726Y-74195522D01*
X88741834Y-74195611D01*
X88743599Y-74197401D01*
X89351198Y-74805000D01*
X81209802Y-74805000D01*
X84099169Y-71915633D01*
X84199657Y-71897914D01*
X84370610Y-71831606D01*
X84525429Y-71733355D01*
X84658215Y-71606904D01*
X84763911Y-71457070D01*
X84838492Y-71289560D01*
X84879116Y-71110754D01*
X84882040Y-70901319D01*
X84846425Y-70721448D01*
X84776550Y-70551920D01*
X84675079Y-70399193D01*
X84545875Y-70269084D01*
X84393860Y-70166549D01*
X84224825Y-70095493D01*
X84045207Y-70058623D01*
X83861849Y-70057343D01*
X83681733Y-70091701D01*
X83511722Y-70160390D01*
X83358291Y-70260793D01*
X83227283Y-70389086D01*
X83123689Y-70540381D01*
X83051454Y-70708916D01*
X83023158Y-70842040D01*
X79997349Y-73867849D01*
X79924849Y-73867343D01*
X79754000Y-73899933D01*
X79754000Y-68326000D01*
X80006928Y-68326000D01*
X80006928Y-69850000D01*
X80014992Y-69951121D01*
X80068106Y-70122634D01*
X80166900Y-70272559D01*
X80303550Y-70389025D01*
X80467237Y-70462810D01*
X80645000Y-70488072D01*
X82169000Y-70488072D01*
X82270121Y-70480008D01*
X82441634Y-70426894D01*
X82591559Y-70328100D01*
X82708025Y-70191450D01*
X82770179Y-70053565D01*
X85701040Y-70053565D01*
X85768020Y-70293656D01*
X86017048Y-70410756D01*
X86284135Y-70477023D01*
X86559017Y-70489910D01*
X86831133Y-70448922D01*
X87090023Y-70355636D01*
X87205980Y-70293656D01*
X87272960Y-70053565D01*
X86487000Y-69267605D01*
X85701040Y-70053565D01*
X82770179Y-70053565D01*
X82781810Y-70027763D01*
X82807072Y-69850000D01*
X82807072Y-69160017D01*
X85085090Y-69160017D01*
X85126078Y-69432133D01*
X85219364Y-69691023D01*
X85281344Y-69806980D01*
X85521435Y-69873960D01*
X86307395Y-69088000D01*
X85521435Y-68302040D01*
X85281344Y-68369020D01*
X85164244Y-68618048D01*
X85097977Y-68885135D01*
X85085090Y-69160017D01*
X82807072Y-69160017D01*
X82807072Y-68326000D01*
X82799008Y-68224879D01*
X82745894Y-68053366D01*
X82647100Y-67903441D01*
X82510450Y-67786975D01*
X82346763Y-67713190D01*
X82169000Y-67687928D01*
X80645000Y-67687928D01*
X80543879Y-67695992D01*
X80372366Y-67749106D01*
X80222441Y-67847900D01*
X80105975Y-67984550D01*
X80032190Y-68148237D01*
X80006928Y-68326000D01*
X79754000Y-68326000D01*
X79754000Y-66706750D01*
X81851500Y-66706750D01*
X81851500Y-66737542D01*
X81875903Y-66860223D01*
X81923770Y-66975785D01*
X81993263Y-67079789D01*
X82081711Y-67168237D01*
X82185715Y-67237730D01*
X82301277Y-67285597D01*
X82423958Y-67310000D01*
X82772250Y-67310000D01*
X82931000Y-67151250D01*
X82931000Y-66548000D01*
X83185000Y-66548000D01*
X83185000Y-67151250D01*
X83343750Y-67310000D01*
X83692042Y-67310000D01*
X83814723Y-67285597D01*
X83930285Y-67237730D01*
X84034289Y-67168237D01*
X84122737Y-67079789D01*
X84192230Y-66975785D01*
X84240097Y-66860223D01*
X84264500Y-66737542D01*
X84264500Y-66706750D01*
X84105750Y-66548000D01*
X83185000Y-66548000D01*
X82931000Y-66548000D01*
X82010250Y-66548000D01*
X81851500Y-66706750D01*
X79754000Y-66706750D01*
X79754000Y-65572011D01*
X79771757Y-65575915D01*
X79955079Y-65579755D01*
X80135657Y-65547914D01*
X80306610Y-65481606D01*
X80461429Y-65383355D01*
X80574162Y-65276000D01*
X81851500Y-65276000D01*
X81851500Y-65278002D01*
X82010248Y-65278002D01*
X81851500Y-65436750D01*
X81851500Y-65467542D01*
X81875903Y-65590223D01*
X81923770Y-65705785D01*
X81977368Y-65786000D01*
X81923770Y-65866215D01*
X81875903Y-65981777D01*
X81851500Y-66104458D01*
X81851500Y-66135250D01*
X82010250Y-66294000D01*
X82931000Y-66294000D01*
X82931000Y-65278000D01*
X82911000Y-65278000D01*
X82911000Y-65276000D01*
X83205000Y-65276000D01*
X83205000Y-65278000D01*
X83185000Y-65278000D01*
X83185000Y-66294000D01*
X84105750Y-66294000D01*
X84264500Y-66135250D01*
X84264500Y-66104458D01*
X84240097Y-65981777D01*
X84192230Y-65866215D01*
X84138632Y-65786000D01*
X84192230Y-65705785D01*
X84240097Y-65590223D01*
X84264500Y-65467542D01*
X84264500Y-65436750D01*
X84105752Y-65278002D01*
X84264500Y-65278002D01*
X84264500Y-65203827D01*
X84298591Y-65185701D01*
X84360925Y-65153390D01*
X84364048Y-65150897D01*
X84367578Y-65149020D01*
X84421987Y-65104645D01*
X84476846Y-65060852D01*
X84482406Y-65055369D01*
X84482522Y-65055274D01*
X84482611Y-65055166D01*
X84484401Y-65053401D01*
X84965000Y-64572802D01*
X84965000Y-65405000D01*
X84965000Y-65405000D01*
G37*
X84965000Y-65405000D02*
X84971851Y-65474877D01*
X84977969Y-65544803D01*
X84979084Y-65548641D01*
X84979474Y-65552618D01*
X84999764Y-65619821D01*
X85019351Y-65687240D01*
X85021190Y-65690788D01*
X85022345Y-65694613D01*
X85055299Y-65756591D01*
X85087610Y-65818925D01*
X85090103Y-65822048D01*
X85091980Y-65825578D01*
X85136355Y-65879987D01*
X85180148Y-65934846D01*
X85185631Y-65940406D01*
X85185726Y-65940522D01*
X85185834Y-65940611D01*
X85187599Y-65942401D01*
X87057920Y-67812722D01*
X86956952Y-67765244D01*
X86689865Y-67698977D01*
X86414983Y-67686090D01*
X86142867Y-67727078D01*
X85883977Y-67820364D01*
X85768020Y-67882344D01*
X85701040Y-68122435D01*
X86487000Y-68908395D01*
X86501143Y-68894253D01*
X86680748Y-69073858D01*
X86666605Y-69088000D01*
X87452565Y-69873960D01*
X87692656Y-69806980D01*
X87809756Y-69557952D01*
X87876023Y-69290865D01*
X87888910Y-69015983D01*
X87847922Y-68743867D01*
X87768415Y-68523217D01*
X88521000Y-69275802D01*
X88521000Y-73660000D01*
X88527851Y-73729877D01*
X88533969Y-73799803D01*
X88535084Y-73803641D01*
X88535474Y-73807618D01*
X88555764Y-73874821D01*
X88575351Y-73942240D01*
X88577190Y-73945788D01*
X88578345Y-73949613D01*
X88611299Y-74011591D01*
X88643610Y-74073925D01*
X88646103Y-74077048D01*
X88647980Y-74080578D01*
X88692355Y-74134987D01*
X88736148Y-74189846D01*
X88741631Y-74195406D01*
X88741726Y-74195522D01*
X88741834Y-74195611D01*
X88743599Y-74197401D01*
X89351198Y-74805000D01*
X81209802Y-74805000D01*
X84099169Y-71915633D01*
X84199657Y-71897914D01*
X84370610Y-71831606D01*
X84525429Y-71733355D01*
X84658215Y-71606904D01*
X84763911Y-71457070D01*
X84838492Y-71289560D01*
X84879116Y-71110754D01*
X84882040Y-70901319D01*
X84846425Y-70721448D01*
X84776550Y-70551920D01*
X84675079Y-70399193D01*
X84545875Y-70269084D01*
X84393860Y-70166549D01*
X84224825Y-70095493D01*
X84045207Y-70058623D01*
X83861849Y-70057343D01*
X83681733Y-70091701D01*
X83511722Y-70160390D01*
X83358291Y-70260793D01*
X83227283Y-70389086D01*
X83123689Y-70540381D01*
X83051454Y-70708916D01*
X83023158Y-70842040D01*
X79997349Y-73867849D01*
X79924849Y-73867343D01*
X79754000Y-73899933D01*
X79754000Y-68326000D01*
X80006928Y-68326000D01*
X80006928Y-69850000D01*
X80014992Y-69951121D01*
X80068106Y-70122634D01*
X80166900Y-70272559D01*
X80303550Y-70389025D01*
X80467237Y-70462810D01*
X80645000Y-70488072D01*
X82169000Y-70488072D01*
X82270121Y-70480008D01*
X82441634Y-70426894D01*
X82591559Y-70328100D01*
X82708025Y-70191450D01*
X82770179Y-70053565D01*
X85701040Y-70053565D01*
X85768020Y-70293656D01*
X86017048Y-70410756D01*
X86284135Y-70477023D01*
X86559017Y-70489910D01*
X86831133Y-70448922D01*
X87090023Y-70355636D01*
X87205980Y-70293656D01*
X87272960Y-70053565D01*
X86487000Y-69267605D01*
X85701040Y-70053565D01*
X82770179Y-70053565D01*
X82781810Y-70027763D01*
X82807072Y-69850000D01*
X82807072Y-69160017D01*
X85085090Y-69160017D01*
X85126078Y-69432133D01*
X85219364Y-69691023D01*
X85281344Y-69806980D01*
X85521435Y-69873960D01*
X86307395Y-69088000D01*
X85521435Y-68302040D01*
X85281344Y-68369020D01*
X85164244Y-68618048D01*
X85097977Y-68885135D01*
X85085090Y-69160017D01*
X82807072Y-69160017D01*
X82807072Y-68326000D01*
X82799008Y-68224879D01*
X82745894Y-68053366D01*
X82647100Y-67903441D01*
X82510450Y-67786975D01*
X82346763Y-67713190D01*
X82169000Y-67687928D01*
X80645000Y-67687928D01*
X80543879Y-67695992D01*
X80372366Y-67749106D01*
X80222441Y-67847900D01*
X80105975Y-67984550D01*
X80032190Y-68148237D01*
X80006928Y-68326000D01*
X79754000Y-68326000D01*
X79754000Y-66706750D01*
X81851500Y-66706750D01*
X81851500Y-66737542D01*
X81875903Y-66860223D01*
X81923770Y-66975785D01*
X81993263Y-67079789D01*
X82081711Y-67168237D01*
X82185715Y-67237730D01*
X82301277Y-67285597D01*
X82423958Y-67310000D01*
X82772250Y-67310000D01*
X82931000Y-67151250D01*
X82931000Y-66548000D01*
X83185000Y-66548000D01*
X83185000Y-67151250D01*
X83343750Y-67310000D01*
X83692042Y-67310000D01*
X83814723Y-67285597D01*
X83930285Y-67237730D01*
X84034289Y-67168237D01*
X84122737Y-67079789D01*
X84192230Y-66975785D01*
X84240097Y-66860223D01*
X84264500Y-66737542D01*
X84264500Y-66706750D01*
X84105750Y-66548000D01*
X83185000Y-66548000D01*
X82931000Y-66548000D01*
X82010250Y-66548000D01*
X81851500Y-66706750D01*
X79754000Y-66706750D01*
X79754000Y-65572011D01*
X79771757Y-65575915D01*
X79955079Y-65579755D01*
X80135657Y-65547914D01*
X80306610Y-65481606D01*
X80461429Y-65383355D01*
X80574162Y-65276000D01*
X81851500Y-65276000D01*
X81851500Y-65278002D01*
X82010248Y-65278002D01*
X81851500Y-65436750D01*
X81851500Y-65467542D01*
X81875903Y-65590223D01*
X81923770Y-65705785D01*
X81977368Y-65786000D01*
X81923770Y-65866215D01*
X81875903Y-65981777D01*
X81851500Y-66104458D01*
X81851500Y-66135250D01*
X82010250Y-66294000D01*
X82931000Y-66294000D01*
X82931000Y-65278000D01*
X82911000Y-65278000D01*
X82911000Y-65276000D01*
X83205000Y-65276000D01*
X83205000Y-65278000D01*
X83185000Y-65278000D01*
X83185000Y-66294000D01*
X84105750Y-66294000D01*
X84264500Y-66135250D01*
X84264500Y-66104458D01*
X84240097Y-65981777D01*
X84192230Y-65866215D01*
X84138632Y-65786000D01*
X84192230Y-65705785D01*
X84240097Y-65590223D01*
X84264500Y-65467542D01*
X84264500Y-65436750D01*
X84105752Y-65278002D01*
X84264500Y-65278002D01*
X84264500Y-65203827D01*
X84298591Y-65185701D01*
X84360925Y-65153390D01*
X84364048Y-65150897D01*
X84367578Y-65149020D01*
X84421987Y-65104645D01*
X84476846Y-65060852D01*
X84482406Y-65055369D01*
X84482522Y-65055274D01*
X84482611Y-65055166D01*
X84484401Y-65053401D01*
X84965000Y-64572802D01*
X84965000Y-65405000D01*
G36*
X83185000Y-62484000D02*
X83205000Y-62484000D01*
X83205000Y-62738000D01*
X83185000Y-62738000D01*
X83185000Y-63754000D01*
X83205000Y-63754000D01*
X83205000Y-63756000D01*
X82911000Y-63756000D01*
X82911000Y-63754000D01*
X82931000Y-63754000D01*
X82931000Y-62738000D01*
X82010250Y-62738000D01*
X81851500Y-62896750D01*
X81851500Y-62927542D01*
X81875903Y-63050223D01*
X81923770Y-63165785D01*
X81977368Y-63246000D01*
X81923770Y-63326215D01*
X81875903Y-63441777D01*
X81851500Y-63564458D01*
X81851500Y-63595250D01*
X82010248Y-63753998D01*
X81851500Y-63753998D01*
X81851500Y-63756000D01*
X80185820Y-63756000D01*
X80160825Y-63745493D01*
X79981207Y-63708623D01*
X79797849Y-63707343D01*
X79639890Y-63737474D01*
X79631389Y-63721074D01*
X79628897Y-63717953D01*
X79627020Y-63714422D01*
X79582641Y-63660007D01*
X79538852Y-63605154D01*
X79533369Y-63599594D01*
X79533274Y-63599478D01*
X79533166Y-63599389D01*
X79531401Y-63597599D01*
X78415802Y-62482000D01*
X82008250Y-62482000D01*
X82010250Y-62484000D01*
X82931000Y-62484000D01*
X82931000Y-62464000D01*
X83185000Y-62464000D01*
X83185000Y-62484000D01*
X83185000Y-62484000D01*
G37*
X83185000Y-62484000D02*
X83205000Y-62484000D01*
X83205000Y-62738000D01*
X83185000Y-62738000D01*
X83185000Y-63754000D01*
X83205000Y-63754000D01*
X83205000Y-63756000D01*
X82911000Y-63756000D01*
X82911000Y-63754000D01*
X82931000Y-63754000D01*
X82931000Y-62738000D01*
X82010250Y-62738000D01*
X81851500Y-62896750D01*
X81851500Y-62927542D01*
X81875903Y-63050223D01*
X81923770Y-63165785D01*
X81977368Y-63246000D01*
X81923770Y-63326215D01*
X81875903Y-63441777D01*
X81851500Y-63564458D01*
X81851500Y-63595250D01*
X82010248Y-63753998D01*
X81851500Y-63753998D01*
X81851500Y-63756000D01*
X80185820Y-63756000D01*
X80160825Y-63745493D01*
X79981207Y-63708623D01*
X79797849Y-63707343D01*
X79639890Y-63737474D01*
X79631389Y-63721074D01*
X79628897Y-63717953D01*
X79627020Y-63714422D01*
X79582641Y-63660007D01*
X79538852Y-63605154D01*
X79533369Y-63599594D01*
X79533274Y-63599478D01*
X79533166Y-63599389D01*
X79531401Y-63597599D01*
X78415802Y-62482000D01*
X82008250Y-62482000D01*
X82010250Y-62484000D01*
X82931000Y-62484000D01*
X82931000Y-62464000D01*
X83185000Y-62464000D01*
X83185000Y-62484000D01*
M02*
