M48
;DRILL file {KiCad 4.0.1-stable} date 1/31/2016 9:18:03 PM
;FORMAT={-:-/ absolute / inch / decimal}
FMAT,2
INCH,TZ
T1C0.016
T2C0.030
T3C0.031
T4C0.039
T5C0.040
T6C0.059
T7C0.080
T8C0.098
%
G90
G05
M72
T1
X2.46Y-3.225
X2.4875Y-3.3425
X2.505Y-3.105
X2.7Y-2.545
X2.705Y-2.51
X2.815Y-2.665
X2.82Y-2.93
X2.895Y-2.625
X2.975Y-2.945
X2.975Y-3.09
X3.13Y-3.485
X3.145Y-2.545
X3.15Y-2.945
X3.155Y-3.515
X3.205Y-2.5
X3.23Y-2.565
X3.25Y-3.225
X3.26Y-3.59
X3.3Y-3.82
X3.305Y-2.795
X3.51Y-2.635
X3.535Y-2.595
X3.65Y-2.635
X3.655Y-2.95
X3.66Y-3.005
X3.74Y-3.065
X3.81Y-2.66
T2
X2.32Y-3.1
X2.32Y-3.2
X2.32Y-3.3
X2.32Y-3.4
X2.32Y-3.5
X2.32Y-3.6
X2.42Y-3.05
X2.42Y-3.65
X2.435Y-3.17
X2.435Y-3.77
X2.473Y-3.958
X2.52Y-3.05
X2.52Y-3.65
X2.535Y-3.17
X2.535Y-3.77
X2.573Y-3.958
X2.62Y-3.05
X2.62Y-3.65
X2.635Y-3.17
X2.635Y-3.77
X2.673Y-3.958
X2.72Y-3.05
X2.72Y-3.65
X2.735Y-3.17
X2.735Y-3.77
X2.77Y-3.55
X2.773Y-3.958
X2.82Y-3.05
X2.82Y-3.65
X2.835Y-3.17
X2.835Y-3.77
X2.86Y-2.365
X2.87Y-3.55
X2.873Y-3.958
X2.92Y-3.05
X2.92Y-3.65
X2.935Y-3.17
X2.935Y-3.77
X2.973Y-3.958
X3.02Y-3.05
X3.02Y-3.65
X3.035Y-3.17
X3.035Y-3.77
X3.06Y-2.365
X3.073Y-3.958
X3.12Y-3.05
X3.12Y-3.65
X3.135Y-3.17
X3.135Y-3.77
X3.173Y-3.958
X3.205Y-2.72
X3.22Y-3.05
X3.22Y-3.65
X3.235Y-3.17
X3.235Y-3.77
X3.273Y-3.958
X3.32Y-3.05
X3.32Y-3.65
X3.335Y-3.17
X3.335Y-3.77
X3.373Y-3.958
X3.405Y-2.72
X3.42Y-3.05
X3.42Y-3.65
X3.435Y-3.17
X3.435Y-3.77
X3.473Y-3.958
X3.52Y-3.05
X3.52Y-3.35
X3.52Y-3.45
X3.52Y-3.55
X3.52Y-3.65
X3.535Y-3.17
X3.535Y-3.77
X3.573Y-3.958
X3.635Y-3.17
X3.635Y-3.77
X3.673Y-3.958
X3.735Y-3.17
X3.735Y-3.77
X3.773Y-3.958
X3.785Y-2.44
X3.785Y-3.0109
X3.835Y-3.17
X3.835Y-3.77
X3.873Y-3.958
X3.885Y-2.44
X3.973Y-3.958
X3.985Y-2.44
X3.985Y-3.0109
X3.995Y-3.275
X3.995Y-3.375
X3.995Y-3.475
X3.995Y-3.575
T3
X3.77Y-2.91
T5
X2.35Y-2.395
X2.4207Y-2.3243
X2.4914Y-2.2536
X2.5621Y-2.1829
X3.415Y-2.225
X3.515Y-2.225
X3.615Y-2.225
X3.715Y-2.225
X3.815Y-2.225
X3.915Y-2.225
T7
X2.895Y-2.715
X2.895Y-2.915
T8
X2.325Y-2.18
X2.335Y-3.96
X4.11Y-3.965
X4.12Y-2.18
T4
X2.4129Y-2.6606G85X2.4129Y-2.7393
G05
X2.4916Y-2.885G85X2.5703Y-2.885
G05
X2.6491Y-2.6606G85X2.6491Y-2.7393
G05
T6
X3.6389Y-2.7569G85X3.6389Y-2.7136
G05
X4.1311Y-2.7569G85X4.1311Y-2.7136
G05
T0
M30
